<svg width="81" height="18" viewBox="0 0 81 18" fill="none" xmlns="http://www.w3.org/2000/svg">
<path d="M5.5 17.24C3.95333 17.24 2.8 16.8333 2.04 16.02C1.29333 15.1933 0.893333 13.8867 0.84 12.1L3.9 11.64C3.91333 12.6667 4.03333 13.4067 4.26 13.86C4.5 14.3 4.85333 14.52 5.32 14.52C5.92 14.52 6.22 14.1267 6.22 13.34C6.22 12.7133 6.07333 12.1733 5.78 11.72C5.5 11.2667 5.05333 10.78 4.44 10.26L3.04 9.04C2.34667 8.45333 1.80667 7.83333 1.42 7.18C1.04667 6.51333 0.86 5.72667 0.86 4.82C0.86 3.46 1.26 2.41333 2.06 1.68C2.87333 0.946666 3.98667 0.579999 5.4 0.579999C6.93333 0.579999 7.97333 1.02667 8.52 1.92C9.08 2.81333 9.38 3.9 9.42 5.18L6.34 5.56C6.31333 4.72 6.23333 4.12 6.1 3.76C5.98 3.38667 5.70667 3.2 5.28 3.2C4.97333 3.2 4.73333 3.33333 4.56 3.6C4.4 3.85333 4.32 4.14 4.32 4.46C4.32 5.00667 4.44 5.46667 4.68 5.84C4.93333 6.21333 5.33333 6.64 5.88 7.12L7.22 8.3C8.02 8.98 8.64 9.7 9.08 10.46C9.52 11.22 9.74 12.12 9.74 13.16C9.74 13.92 9.56 14.6133 9.2 15.24C8.85333 15.8533 8.36 16.34 7.72 16.7C7.08 17.06 6.34 17.24 5.5 17.24ZM14.7498 17.2C13.4832 17.2 12.4965 16.8667 11.7898 16.2C11.0832 15.52 10.7298 14.5667 10.7298 13.34V9.1C10.7298 7.87333 11.0832 6.92667 11.7898 6.26C12.4965 5.58 13.4832 5.24 14.7498 5.24C16.0298 5.24 16.9898 5.56667 17.6298 6.22C18.2698 6.87333 18.5898 7.83333 18.5898 9.1V11.42H13.9498V13.64C13.9498 14.4667 14.2165 14.88 14.7498 14.88C15.3098 14.88 15.5898 14.5067 15.5898 13.76V12.54H18.5898V13.66C18.5898 14.82 18.2498 15.7 17.5698 16.3C16.9032 16.9 15.9632 17.2 14.7498 17.2ZM15.5898 9.9V8.74C15.5898 8.31333 15.5098 8.01333 15.3498 7.84C15.2032 7.65333 14.9965 7.56 14.7298 7.56C14.4765 7.56 14.2832 7.66 14.1498 7.86C14.0165 8.06 13.9498 8.41333 13.9498 8.92V9.9H15.5898ZM20.1808 0.799999H23.4208V17H20.1808V0.799999ZM25.3454 0.799999H28.5854V17H25.3454V0.799999ZM34.1501 17.2C32.8835 17.2 31.8968 16.8667 31.1901 16.2C30.4835 15.52 30.1301 14.5667 30.1301 13.34V9.1C30.1301 7.87333 30.4835 6.92667 31.1901 6.26C31.8968 5.58 32.8835 5.24 34.1501 5.24C35.4301 5.24 36.3901 5.56667 37.0301 6.22C37.6701 6.87333 37.9901 7.83333 37.9901 9.1V11.42H33.3501V13.64C33.3501 14.4667 33.6168 14.88 34.1501 14.88C34.7101 14.88 34.9901 14.5067 34.9901 13.76V12.54H37.9901V13.66C37.9901 14.82 37.6501 15.7 36.9701 16.3C36.3035 16.9 35.3635 17.2 34.1501 17.2ZM34.9901 9.9V8.74C34.9901 8.31333 34.9101 8.01333 34.7501 7.84C34.6035 7.65333 34.3968 7.56 34.1301 7.56C33.8768 7.56 33.6835 7.66 33.5501 7.86C33.4168 8.06 33.3501 8.41333 33.3501 8.92V9.9H34.9901ZM39.4811 5.44H42.7411V7.36C43.1411 6.65333 43.5277 6.13333 43.9011 5.8C44.2744 5.46667 44.7144 5.3 45.2211 5.3C45.4077 5.3 45.5744 5.32 45.7211 5.36V8.6C45.3211 8.44 44.9677 8.36 44.6611 8.36C43.9544 8.36 43.3144 8.73333 42.7411 9.48V17H39.4811V5.44Z" fill="#42CFA6"/>
<path d="M47.1937 7.64H46.0937V5.44H47.1937V4.58C47.1937 3.80667 47.267 3.18667 47.4137 2.72C47.5604 2.24 47.8604 1.86667 48.3137 1.6C48.7804 1.33333 49.4604 1.2 50.3537 1.2C50.9137 1.2 51.4337 1.23333 51.9137 1.3V3.72C51.6204 3.65333 51.387 3.62 51.2137 3.62C50.707 3.62 50.4537 3.92 50.4537 4.52V5.44H51.9137V7.64H50.4537V17H47.1937V7.64ZM54.8964 17.2C54.203 17.2 53.6697 16.9533 53.2964 16.46C52.923 15.9533 52.7364 15.3 52.7364 14.5V5.44H55.9964V14.12C55.9964 14.4133 56.0497 14.6333 56.1564 14.78C56.263 14.9267 56.4364 15 56.6764 15C56.8897 15 57.2097 14.88 57.6364 14.64V5.44H60.8764V17H57.6364V15.94C56.7297 16.78 55.8164 17.2 54.8964 17.2ZM62.6109 5.44H65.8709V6.6C66.7776 5.69333 67.7042 5.24 68.6509 5.24C69.3442 5.24 69.8709 5.49333 70.2309 6C70.6042 6.49333 70.7909 7.14 70.7909 7.94V17H67.5509V8.4C67.5509 8.10667 67.4976 7.89333 67.3909 7.76C67.2976 7.61333 67.1309 7.54 66.8909 7.54C66.6242 7.54 66.2842 7.68 65.8709 7.96V17H62.6109V5.44ZM74.924 17.2C74.0573 17.2 73.3907 16.9 72.924 16.3C72.4707 15.7 72.244 14.8133 72.244 13.64V8.86C72.244 7.75333 72.4707 6.87333 72.924 6.22C73.3907 5.56667 74.0573 5.24 74.924 5.24C75.7373 5.24 76.4973 5.54667 77.204 6.16V0.799999H80.464V17H77.204V16.1C76.444 16.8333 75.684 17.2 74.924 17.2ZM76.344 15.12C76.5973 15.12 76.884 15.02 77.204 14.82V7.52C76.884 7.34667 76.604 7.26 76.364 7.26C76.084 7.26 75.8707 7.38 75.724 7.62C75.5907 7.84667 75.524 8.14667 75.524 8.52V13.84C75.524 14.2267 75.5907 14.54 75.724 14.78C75.8573 15.0067 76.064 15.12 76.344 15.12Z" fill="white"/>
</svg>
