<svg width="118" height="16" viewBox="0 0 118 16" fill="none" xmlns="http://www.w3.org/2000/svg">
<path d="M6.32 15.14C5.29333 15.14 4.37333 14.9733 3.56 14.64C2.74667 14.3067 2.09333 13.8133 1.6 13.16C1.12 12.5067 0.866667 11.72 0.84 10.8H4.48C4.53333 11.32 4.71333 11.72 5.02 12C5.32667 12.2667 5.72667 12.4 6.22 12.4C6.72667 12.4 7.12667 12.2867 7.42 12.06C7.71333 11.82 7.86 11.4933 7.86 11.08C7.86 10.7333 7.74 10.4467 7.5 10.22C7.27333 9.99333 6.98667 9.80667 6.64 9.66C6.30667 9.51333 5.82667 9.34667 5.2 9.16C4.29333 8.88 3.55333 8.6 2.98 8.32C2.40667 8.04 1.91333 7.62667 1.5 7.08C1.08667 6.53333 0.88 5.82 0.88 4.94C0.88 3.63333 1.35333 2.61333 2.3 1.88C3.24667 1.13333 4.48 0.76 6 0.76C7.54667 0.76 8.79333 1.13333 9.74 1.88C10.6867 2.61333 11.1933 3.64 11.26 4.96H7.56C7.53333 4.50667 7.36667 4.15333 7.06 3.9C6.75333 3.63333 6.36 3.5 5.88 3.5C5.46667 3.5 5.13333 3.61333 4.88 3.84C4.62667 4.05333 4.5 4.36667 4.5 4.78C4.5 5.23333 4.71333 5.58667 5.14 5.84C5.56667 6.09333 6.23333 6.36667 7.14 6.66C8.04667 6.96667 8.78 7.26 9.34 7.54C9.91333 7.82 10.4067 8.22667 10.82 8.76C11.2333 9.29333 11.44 9.98 11.44 10.82C11.44 11.62 11.2333 12.3467 10.82 13C10.42 13.6533 9.83333 14.1733 9.06 14.56C8.28667 14.9467 7.37333 15.14 6.32 15.14ZM16.6411 3.7V6.54H21.2211V9.18H16.6411V12.26H21.8211V15H13.2211V0.96H21.8211V3.7H16.6411ZM27.1378 12.36H31.6178V15H23.7178V0.96H27.1378V12.36ZM36.3454 12.36H40.8254V15H32.9254V0.96H36.3454V12.36ZM45.5531 3.7V6.54H50.1331V9.18H45.5531V12.26H50.7331V15H42.1331V0.96H50.7331V3.7H45.5531ZM59.7898 15L56.8698 9.7H56.0498V15H52.6298V0.96H58.3698C59.4765 0.96 60.4165 1.15333 61.1898 1.54C61.9765 1.92667 62.5631 2.46 62.9498 3.14C63.3365 3.80667 63.5298 4.55333 63.5298 5.38C63.5298 6.31333 63.2631 7.14667 62.7298 7.88C62.2098 8.61333 61.4365 9.13333 60.4098 9.44L63.6498 15H59.7898ZM56.0498 7.28H58.1698C58.7965 7.28 59.2631 7.12667 59.5698 6.82C59.8898 6.51333 60.0498 6.08 60.0498 5.52C60.0498 4.98667 59.8898 4.56667 59.5698 4.26C59.2631 3.95333 58.7965 3.8 58.1698 3.8H56.0498V7.28Z" fill="url(#paint0_linear_557:2731)"/>
<path d="M75.7504 1.1V2.96H69.8504V7.06H74.4504V8.92H69.8504V15H67.5704V1.1H75.7504ZM79.7998 1.1V9.96C79.7998 11.0133 80.0731 11.8067 80.6198 12.34C81.1798 12.8733 81.9531 13.14 82.9398 13.14C83.9398 13.14 84.7131 12.8733 85.2598 12.34C85.8198 11.8067 86.0998 11.0133 86.0998 9.96V1.1H88.3798V9.92C88.3798 11.0533 88.1331 12.0133 87.6398 12.8C87.1465 13.5867 86.4865 14.1733 85.6598 14.56C84.8331 14.9467 83.9198 15.14 82.9198 15.14C81.9198 15.14 81.0065 14.9467 80.1798 14.56C79.3665 14.1733 78.7198 13.5867 78.2398 12.8C77.7598 12.0133 77.5198 11.0533 77.5198 9.92V1.1H79.7998ZM102.445 15H100.165L93.3048 4.62V15H91.0248V1.08H93.3048L100.165 11.44V1.08H102.445V15ZM109.655 1.1C111.135 1.1 112.429 1.38667 113.535 1.96C114.655 2.52 115.515 3.33333 116.115 4.4C116.729 5.45333 117.035 6.68667 117.035 8.1C117.035 9.51333 116.729 10.74 116.115 11.78C115.515 12.82 114.655 13.62 113.535 14.18C112.429 14.7267 111.135 15 109.655 15H105.115V1.1H109.655ZM109.655 13.14C111.282 13.14 112.529 12.7 113.395 11.82C114.262 10.94 114.695 9.7 114.695 8.1C114.695 6.48667 114.262 5.22667 113.395 4.32C112.529 3.41333 111.282 2.96 109.655 2.96H107.395V13.14H109.655Z" fill="white"/>
<defs>
<linearGradient id="paint0_linear_557:2731" x1="0" y1="8" x2="118" y2="8" gradientUnits="userSpaceOnUse">
<stop stop-color="#73C592"/>
<stop offset="1" stop-color="#428EB4"/>
</linearGradient>
</defs>
</svg>
