<svg width="392" height="290" viewBox="0 0 392 290" fill="none" xmlns="http://www.w3.org/2000/svg">
<path opacity="0.5" fill-rule="evenodd" clip-rule="evenodd" d="M196 -45C87.8942 -45 0 42.8942 0 151C0 259.106 87.8942 347 196 347C304.106 347 392 259.106 392 151C392 42.8942 304.106 -45 196 -45ZM196 -21.0189C291.146 -21.0189 368.019 55.854 368.019 151C368.019 194.646 351.815 234.422 325.118 264.721C316.927 256.528 308.734 248.337 300.542 240.144C309.136 238.254 315.625 230.581 315.625 221.438V176.563C323.899 172.715 328.51 163.327 326.071 154.224L315.625 115.237V108.882C315.625 103.834 313.625 99.2389 310.41 95.8069L296.935 45.5054C294.716 37.2258 287.33 31.6431 279.172 31.3073C277.29 31.2298 275.366 31.4418 273.456 31.9538L130.624 70.2266C114.509 54.112 98.3951 37.996 82.2792 21.8816C112.578 -4.8149 152.354 -21.0189 196 -21.0189ZM66.8816 37.2792C80.0341 50.4304 93.1846 63.583 106.337 76.7344L79.4889 83.9227C69.2986 86.6532 63.2068 97.2116 65.9373 107.402L76.4689 146.712V221.438C76.4689 231.987 85.0938 240.612 95.6436 240.612H270.215C283.383 253.781 296.553 266.949 309.721 280.118C279.422 306.815 239.646 323.019 196 323.019C100.854 323.019 23.9811 246.146 23.9811 151C23.9811 107.354 40.1851 67.5782 66.8816 37.2792ZM277.794 39.4144C282.965 39.0802 287.697 42.3693 289.1 47.6066L289.764 50.0821L148.37 87.972C144.661 84.2631 140.952 80.5539 137.243 76.845L275.557 39.7802C276.305 39.5797 277.056 39.4622 277.794 39.4144ZM297.352 78.3932L300.499 90.1498C299.19 89.8653 297.841 89.7075 296.45 89.7075H255.123L297.352 78.3932ZM112.955 83.3528C115.074 85.471 117.192 87.5893 119.31 89.7075H95.6436C85.6549 89.7075 77.4045 97.4382 76.554 107.215L74.4358 107.785L73.7722 105.301C72.1684 99.3152 75.6046 93.3615 81.5901 91.7576L112.955 83.3528ZM95.6436 97.8231H127.426C160.493 130.889 193.559 163.956 226.625 197.023L200.534 197.244C194.658 197.227 194.735 206.08 200.611 205.963L235.268 205.666C244.212 214.609 253.156 223.553 262.099 232.497H95.6436C89.4469 232.497 84.5845 227.634 84.5845 221.438V108.882C84.5845 102.685 89.4469 97.8231 95.6436 97.8231ZM158.221 97.8231H296.45C302.647 97.8231 307.509 102.685 307.509 108.882V221.438C307.509 227.634 302.647 232.497 296.45 232.497H292.894C283.863 223.465 274.831 214.434 265.799 205.402L289.211 205.198C295.087 205.215 295.009 196.37 289.134 196.487L257.156 196.759C224.179 163.78 191.2 130.801 158.221 97.8231ZM256.391 106.483C244.988 106.483 235.693 115.786 235.693 127.189C235.693 138.592 244.988 147.886 256.391 147.886C260.277 147.886 263.912 146.785 267.024 144.909C270.137 146.785 273.763 147.886 277.65 147.886C289.052 147.886 298.356 138.592 298.356 127.189C298.356 115.786 289.052 106.483 277.65 106.483C273.763 106.483 270.137 107.585 267.024 109.461C263.912 107.585 260.277 106.483 256.391 106.483ZM256.391 111.8C258.586 111.8 260.665 112.265 262.55 113.085C259.087 116.788 256.944 121.739 256.944 127.189C256.944 132.639 259.087 137.59 262.55 141.294C260.665 142.113 258.586 142.578 256.391 142.578C247.86 142.578 241.002 135.72 241.002 127.189C241.002 118.658 247.86 111.8 256.391 111.8ZM277.65 111.8C286.18 111.8 293.039 118.658 293.039 127.189C293.039 135.72 286.18 142.578 277.65 142.578C269.119 142.578 262.261 135.72 262.261 127.189C262.261 118.658 269.119 111.8 277.65 111.8ZM94.3845 137.142C93.0891 137.142 92.0098 138.01 91.6878 139.201H105.052C107.205 139.201 108.965 140.97 108.965 143.123V145.539C108.965 147.691 107.205 149.452 105.052 149.452H101.139C101.595 150.091 101.871 150.864 101.871 151.706V154.131C101.871 155.356 101.304 156.457 100.416 157.176C101.365 157.891 101.981 159.016 101.981 160.29V162.714C101.981 163.556 101.706 164.337 101.25 164.977H105.052C107.205 164.977 108.965 166.737 108.965 168.89V171.315C108.965 173.468 107.205 175.219 105.052 175.219H91.6878C92.0098 176.41 93.0891 177.286 94.3845 177.286H128.931C130.227 177.286 131.306 176.41 131.628 175.219H118.264C116.111 175.219 114.342 173.468 114.342 171.315V168.89C114.342 166.737 116.111 164.977 118.264 164.977H122.066C121.61 164.337 121.335 163.556 121.335 162.714V160.29C121.335 159.016 121.951 157.891 122.9 157.176C122.012 156.457 121.445 155.356 121.445 154.131V151.706C121.445 150.864 121.712 150.091 122.168 149.452H118.264C116.111 149.452 114.342 147.691 114.342 145.539V143.123C114.342 140.97 116.111 139.201 118.264 139.201H131.628C131.306 138.01 130.227 137.142 128.931 137.142H94.3845ZM91.5858 140.868V147.784H105.052C106.313 147.784 107.298 146.8 107.298 145.539V143.123C107.298 141.862 106.313 140.868 105.052 140.868H91.5858ZM118.264 140.868C117.003 140.868 116.009 141.862 116.009 143.123V145.539C116.009 146.8 117.003 147.784 118.264 147.784H131.722V140.868H118.264ZM315.625 146.559L318.236 156.325C319.28 160.221 318.165 164.084 315.625 166.763V146.559ZM91.5858 149.46V156.376H98.0085C99.2433 156.348 100.203 155.373 100.203 154.131V151.706C100.203 150.445 99.2185 149.46 97.9575 149.46H91.5858ZM125.35 149.46C124.089 149.46 123.104 150.445 123.104 151.706V154.131C123.104 155.373 124.064 156.348 125.299 156.376H131.722V149.46H125.35ZM107.757 149.894H115.558C117.436 149.894 118.978 151.428 118.978 153.305V161.115C118.978 162.992 117.436 164.535 115.558 164.535H107.757C105.88 164.535 104.338 162.992 104.338 161.115V153.305C104.338 151.428 105.88 149.894 107.757 149.894ZM107.757 151.681C106.837 151.681 106.116 152.385 106.116 153.305V161.115C106.116 162.035 106.837 162.748 107.757 162.748H115.558C116.478 162.748 117.192 162.035 117.192 161.115V153.305C117.192 152.385 116.478 151.681 115.558 151.681H107.757ZM91.5858 158.044V164.96H98.0595C99.3206 164.96 100.314 163.975 100.314 162.714V160.29C100.314 159.029 99.3206 158.044 98.0595 158.044H98.0085C97.9917 158.044 97.9743 158.044 97.9575 158.044H91.5858ZM125.248 158.044C123.987 158.044 123.002 159.029 123.002 160.29V162.714C123.002 163.975 123.987 164.968 125.248 164.968H131.722V158.044H125.35C125.333 158.044 125.324 158.044 125.307 158.044H125.248ZM91.5858 166.636V173.56H105.052C106.313 173.56 107.298 172.576 107.298 171.315V168.89C107.298 167.629 106.313 166.636 105.052 166.636H91.5858ZM118.264 166.636C117.003 166.636 116.009 167.629 116.009 168.89V171.315C116.009 172.576 117.003 173.56 118.264 173.56H131.722V166.636H118.264ZM179.411 196.64L126.881 197.082C121.005 197.065 121.074 205.918 126.949 205.802L179.488 205.351C185.365 205.368 185.287 196.523 179.411 196.64ZM153.116 212.616C152.586 212.614 152.097 212.9 151.84 213.364L146.736 222.203C145.66 223.907 148.308 225.441 149.246 223.658L154.359 214.819C154.939 213.854 154.243 212.622 153.116 212.616ZM141.462 215.627L125.367 215.857C121.494 215.914 121.579 221.725 125.452 221.667L141.547 221.438C145.419 221.38 145.334 215.57 141.462 215.627ZM176.323 215.627L160.228 215.857C156.356 215.914 156.441 221.725 160.313 221.667L176.409 221.438C180.281 221.38 180.196 215.57 176.323 215.627Z" fill="white"/>
</svg>
