<svg width="392" height="392" viewBox="0 0 392 392" fill="none" xmlns="http://www.w3.org/2000/svg">
<path opacity="0.5" fill-rule="evenodd" clip-rule="evenodd" d="M196 0C87.8942 0 0 87.8942 0 196C0 304.106 87.8942 392 196 392C304.106 392 392 304.106 392 196C392 87.8942 304.106 0 196 0ZM196 23.9811C291.146 23.9811 368.019 100.854 368.019 196C368.019 239.646 351.815 279.422 325.118 309.721C316.927 301.528 308.734 293.337 300.542 285.144C309.136 283.254 315.625 275.581 315.625 266.438V221.563C323.899 217.715 328.51 208.327 326.071 199.224L315.625 160.237V153.882C315.625 148.834 313.625 144.239 310.41 140.807L296.935 90.5054C294.716 82.2258 287.33 76.6431 279.172 76.3073C277.29 76.2298 275.366 76.4418 273.456 76.9538L130.624 115.227C114.509 99.112 98.3951 82.996 82.2792 66.8816C112.578 40.1851 152.354 23.9811 196 23.9811ZM66.8816 82.2792C80.0341 95.4304 93.1846 108.583 106.337 121.734L79.4889 128.923C69.2986 131.653 63.2068 142.212 65.9373 152.402L76.4689 191.712V266.438C76.4689 276.987 85.0938 285.612 95.6436 285.612H270.215C283.383 298.781 296.553 311.949 309.721 325.118C279.422 351.815 239.646 368.019 196 368.019C100.854 368.019 23.9811 291.146 23.9811 196C23.9811 152.354 40.1851 112.578 66.8816 82.2792ZM277.794 84.4144C282.965 84.0802 287.697 87.3693 289.1 92.6066L289.764 95.0821L148.37 132.972C144.661 129.263 140.952 125.554 137.243 121.845L275.557 84.7802C276.305 84.5797 277.056 84.4622 277.794 84.4144ZM297.352 123.393L300.499 135.15C299.19 134.865 297.841 134.707 296.45 134.707H255.123L297.352 123.393ZM112.955 128.353C115.074 130.471 117.192 132.589 119.31 134.707H95.6436C85.6549 134.707 77.4045 142.438 76.554 152.215L74.4358 152.785L73.7722 150.301C72.1684 144.315 75.6046 138.361 81.5901 136.758L112.955 128.353ZM95.6436 142.823H127.426C160.493 175.889 193.559 208.956 226.625 242.023L200.534 242.244C194.658 242.227 194.735 251.08 200.611 250.963L235.268 250.666C244.212 259.609 253.156 268.553 262.099 277.497H95.6436C89.4469 277.497 84.5845 272.634 84.5845 266.438V153.882C84.5845 147.685 89.4469 142.823 95.6436 142.823ZM158.221 142.823H296.45C302.647 142.823 307.509 147.685 307.509 153.882V266.438C307.509 272.634 302.647 277.497 296.45 277.497H292.894C283.863 268.465 274.831 259.434 265.799 250.402L289.211 250.198C295.087 250.215 295.009 241.37 289.134 241.487L257.156 241.759C224.179 208.78 191.2 175.801 158.221 142.823ZM256.391 151.483C244.988 151.483 235.693 160.786 235.693 172.189C235.693 183.592 244.988 192.886 256.391 192.886C260.277 192.886 263.912 191.785 267.024 189.909C270.137 191.785 273.763 192.886 277.65 192.886C289.052 192.886 298.356 183.592 298.356 172.189C298.356 160.786 289.052 151.483 277.65 151.483C273.763 151.483 270.137 152.585 267.024 154.461C263.912 152.585 260.277 151.483 256.391 151.483ZM256.391 156.8C258.586 156.8 260.665 157.265 262.55 158.085C259.087 161.788 256.944 166.739 256.944 172.189C256.944 177.639 259.087 182.59 262.55 186.294C260.665 187.113 258.586 187.578 256.391 187.578C247.86 187.578 241.002 180.72 241.002 172.189C241.002 163.658 247.86 156.8 256.391 156.8ZM277.65 156.8C286.18 156.8 293.039 163.658 293.039 172.189C293.039 180.72 286.18 187.578 277.65 187.578C269.119 187.578 262.261 180.72 262.261 172.189C262.261 163.658 269.119 156.8 277.65 156.8ZM94.3845 182.142C93.0891 182.142 92.0098 183.01 91.6878 184.201H105.052C107.205 184.201 108.965 185.97 108.965 188.123V190.539C108.965 192.691 107.205 194.452 105.052 194.452H101.139C101.595 195.091 101.871 195.864 101.871 196.706V199.131C101.871 200.356 101.304 201.457 100.416 202.176C101.365 202.891 101.981 204.016 101.981 205.29V207.714C101.981 208.556 101.706 209.337 101.25 209.977H105.052C107.205 209.977 108.965 211.737 108.965 213.89V216.315C108.965 218.468 107.205 220.219 105.052 220.219H91.6878C92.0098 221.41 93.0891 222.286 94.3845 222.286H128.931C130.227 222.286 131.306 221.41 131.628 220.219H118.264C116.111 220.219 114.342 218.468 114.342 216.315V213.89C114.342 211.737 116.111 209.977 118.264 209.977H122.066C121.61 209.337 121.335 208.556 121.335 207.714V205.29C121.335 204.016 121.951 202.891 122.9 202.176C122.012 201.457 121.445 200.356 121.445 199.131V196.706C121.445 195.864 121.712 195.091 122.168 194.452H118.264C116.111 194.452 114.342 192.691 114.342 190.539V188.123C114.342 185.97 116.111 184.201 118.264 184.201H131.628C131.306 183.01 130.227 182.142 128.931 182.142H94.3845ZM91.5858 185.868V192.784H105.052C106.313 192.784 107.298 191.8 107.298 190.539V188.123C107.298 186.862 106.313 185.868 105.052 185.868H91.5858ZM118.264 185.868C117.003 185.868 116.009 186.862 116.009 188.123V190.539C116.009 191.8 117.003 192.784 118.264 192.784H131.722V185.868H118.264ZM315.625 191.559L318.236 201.325C319.28 205.221 318.165 209.084 315.625 211.763V191.559ZM91.5858 194.46V201.376H98.0085C99.2433 201.348 100.203 200.373 100.203 199.131V196.706C100.203 195.445 99.2185 194.46 97.9575 194.46H91.5858ZM125.35 194.46C124.089 194.46 123.104 195.445 123.104 196.706V199.131C123.104 200.373 124.064 201.348 125.299 201.376H131.722V194.46H125.35ZM107.757 194.894H115.558C117.436 194.894 118.978 196.428 118.978 198.305V206.115C118.978 207.992 117.436 209.535 115.558 209.535H107.757C105.88 209.535 104.338 207.992 104.338 206.115V198.305C104.338 196.428 105.88 194.894 107.757 194.894ZM107.757 196.681C106.837 196.681 106.116 197.385 106.116 198.305V206.115C106.116 207.035 106.837 207.748 107.757 207.748H115.558C116.478 207.748 117.192 207.035 117.192 206.115V198.305C117.192 197.385 116.478 196.681 115.558 196.681H107.757ZM91.5858 203.044V209.96H98.0595C99.3206 209.96 100.314 208.975 100.314 207.714V205.29C100.314 204.029 99.3206 203.044 98.0595 203.044H98.0085C97.9917 203.044 97.9743 203.044 97.9575 203.044H91.5858ZM125.248 203.044C123.987 203.044 123.002 204.029 123.002 205.29V207.714C123.002 208.975 123.987 209.968 125.248 209.968H131.722V203.044H125.35C125.333 203.044 125.324 203.044 125.307 203.044H125.248ZM91.5858 211.636V218.56H105.052C106.313 218.56 107.298 217.576 107.298 216.315V213.89C107.298 212.629 106.313 211.636 105.052 211.636H91.5858ZM118.264 211.636C117.003 211.636 116.009 212.629 116.009 213.89V216.315C116.009 217.576 117.003 218.56 118.264 218.56H131.722V211.636H118.264ZM179.411 241.64L126.881 242.082C121.005 242.065 121.074 250.918 126.949 250.802L179.488 250.351C185.365 250.368 185.287 241.523 179.411 241.64ZM153.116 257.616C152.586 257.614 152.097 257.9 151.84 258.364L146.736 267.203C145.66 268.907 148.308 270.441 149.246 268.658L154.359 259.819C154.939 258.854 154.243 257.622 153.116 257.616ZM141.462 260.627L125.367 260.857C121.494 260.914 121.579 266.725 125.452 266.667L141.547 266.438C145.419 266.38 145.334 260.57 141.462 260.627ZM176.323 260.627L160.228 260.857C156.356 260.914 156.441 266.725 160.313 266.667L176.409 266.438C180.281 266.38 180.196 260.57 176.323 260.627Z" fill="white"/>
</svg>
