<svg width="241" height="94" viewBox="0 0 241 94" fill="none" xmlns="http://www.w3.org/2000/svg">
<path d="M202.109 22.1981C200.404 22.5675 198.912 23.7608 198.159 25.3661C197.79 26.1475 197.776 26.318 197.733 28.7756L197.676 31.3754L197.066 31.6453C196.028 32.0999 196 32.2562 196 36.376C196 39.743 196.014 39.9987 196.284 40.439C196.455 40.7232 196.81 41.0215 197.136 41.1493L197.705 41.3909V44.8856C197.705 48.7639 197.79 49.3321 198.628 50.625C199.182 51.4916 199.935 52.1167 201.072 52.6565L201.896 53.0401L206.839 53.0826L211.769 53.1253V53.9067C211.769 54.6596 211.755 54.6739 211.357 54.6739C210.988 54.6739 209.723 55.0858 208.757 55.5404C208.53 55.6398 208.359 55.7961 208.359 55.9097C208.359 56.0233 208.189 56.0944 207.876 56.0944C207.408 56.0944 207.379 56.1229 207.337 56.62C207.294 57.1172 207.251 57.1457 206.612 57.3162C204.794 57.785 203.728 59.1346 203.572 61.223C203.501 62.0895 203.43 62.3879 203.259 62.4446C203.132 62.4872 202.762 62.7856 202.435 63.0981L201.825 63.6806V65.4563V67.2321L202.421 67.843L203.018 68.4539H204.467C206.243 68.4539 206.371 68.3545 206.371 67.0616V66.1808H206.868H207.365V64.4904C207.365 62.672 207.322 62.5441 206.584 62.4588C206.172 62.4163 206.158 62.4021 206.115 61.5213C206.072 60.6972 206.101 60.5979 206.499 60.2142C207.138 59.575 207.365 59.646 207.365 60.4983V61.2087H207.933H208.502V63.3538V65.499L209.212 66.3088L209.922 67.1327V68.1982V69.278L209.184 69.3773C208.175 69.5194 207.479 69.7751 206.726 70.3008L206.086 70.7412V71.8776V73L211.812 72.9716L217.523 72.9289L217.551 70.7979L217.565 68.6671H218.261H218.943L218.986 70.8263L219.029 73H224.768H230.521V71.9487C230.521 70.9399 230.507 70.8832 230.067 70.4996C229.428 69.9598 228.319 69.4909 227.439 69.3773L226.686 69.278V68.1413V67.0191L227.396 66.2662L228.106 65.5132V63.368V61.2087H228.675H229.243V60.4983C229.243 59.7313 229.385 59.6317 229.896 60.0012C230.323 60.2995 230.55 60.9246 230.493 61.7201C230.45 62.4021 230.436 62.4163 229.953 62.4872C229.243 62.5866 229.087 62.9845 229.129 64.6892L229.172 66.1099L229.712 66.1526L230.237 66.1951V67.0901C230.237 68.3403 230.393 68.4539 232.098 68.4539H233.448L234.045 67.843L234.641 67.2321V65.4279V63.6096L234.101 63.0697C233.803 62.7713 233.434 62.5015 233.277 62.4588C233.036 62.4163 232.993 62.2458 232.922 61.1376C232.88 60.3847 232.752 59.6744 232.61 59.4187C232.027 58.2964 230.948 57.4725 229.854 57.2877C229.257 57.2026 229.243 57.1884 229.243 56.6484C229.243 56.1086 229.229 56.0944 228.746 56.0944C228.433 56.0944 228.248 56.0233 228.248 55.9097C228.248 55.6825 226.132 54.7875 225.336 54.6879L224.768 54.6027V53.8925V53.1822L229.598 53.1111C234.201 53.0401 234.471 53.0259 235.238 52.7134C236.815 52.074 237.966 50.8096 238.477 49.1618C238.733 48.3662 238.761 47.8263 238.761 44.8147L238.775 41.3909L239.372 41.1068C240.437 40.5811 240.48 40.3822 240.437 36.1772L240.395 32.5403L240.04 32.1426C239.841 31.9437 239.471 31.6738 239.23 31.5742L238.761 31.3754V29.2018C238.761 27.6959 238.69 26.7726 238.548 26.1902C238.008 24.1301 236.289 22.5533 234.144 22.1556C232.908 21.9282 203.174 21.9566 202.109 22.1981ZM234.897 24.528C235.721 24.9684 236.516 25.7781 236.929 26.6306L237.269 27.3266V37.413V47.4997L236.929 48.1957C236.474 49.1191 235.65 49.9288 234.741 50.3552L234.002 50.696H218.233H202.464L201.739 50.3552C200.716 49.8721 200.049 49.247 199.552 48.2526L199.125 47.3859V37.4273V27.4687L199.466 26.7442C199.949 25.7213 200.574 25.0536 201.583 24.5565L202.45 24.1301L218.361 24.1586L234.286 24.2012L234.897 24.528Z" fill="white"/>
<path d="M210.205 35.6651C209.409 36.1906 208.997 37.1852 209.012 38.549C209.012 39.8844 209.381 40.7367 210.191 41.2765C211.015 41.8307 211.739 41.6602 212.407 40.751C212.861 40.1401 213.046 39.4723 213.046 38.4921C213.046 37.4266 212.79 36.7021 212.208 36.0486C211.54 35.3099 210.915 35.1962 210.205 35.6651Z" fill="#2A90E4"/>
<path d="M224.596 35.6518C223.46 36.3763 223.033 38.7203 223.772 40.2831C224.34 41.5191 225.335 41.9168 226.258 41.2774C227.423 40.4961 227.821 38.1663 227.04 36.6462C226.443 35.4386 225.505 35.0693 224.596 35.6518Z" fill="#2A90E4"/>
<path d="M10.016 36.664C12.3627 36.664 14.4213 37.1227 16.192 38.04C17.984 38.9573 19.36 40.2693 20.32 41.976C21.3013 43.6613 21.792 45.624 21.792 47.864C21.792 50.104 21.3013 52.0667 20.32 53.752C19.36 55.416 17.984 56.7067 16.192 57.624C14.4213 58.5413 12.3627 59 10.016 59H2.208V36.664H10.016ZM9.856 55.192C12.2027 55.192 14.016 54.552 15.296 53.272C16.576 51.992 17.216 50.1893 17.216 47.864C17.216 45.5387 16.576 43.7253 15.296 42.424C14.016 41.1013 12.2027 40.44 9.856 40.44H6.688V55.192H9.856ZM23.4757 50.072C23.4757 48.28 23.8277 46.6907 24.5317 45.304C25.2571 43.9173 26.2277 42.8507 27.4437 42.104C28.6811 41.3573 30.0571 40.984 31.5717 40.984C32.8944 40.984 34.0464 41.2507 35.0277 41.784C36.0304 42.3173 36.8304 42.9893 37.4277 43.8V41.272H41.9397V59H37.4277V56.408C36.8517 57.24 36.0517 57.9333 35.0277 58.488C34.0251 59.0213 32.8624 59.288 31.5397 59.288C30.0464 59.288 28.6811 58.904 27.4437 58.136C26.2277 57.368 25.2571 56.2907 24.5317 54.904C23.8277 53.496 23.4757 51.8853 23.4757 50.072ZM37.4277 50.136C37.4277 49.048 37.2144 48.12 36.7877 47.352C36.3611 46.5627 35.7851 45.9653 35.0597 45.56C34.3344 45.1333 33.5557 44.92 32.7237 44.92C31.8917 44.92 31.1237 45.1227 30.4197 45.528C29.7157 45.9333 29.1397 46.5307 28.6917 47.32C28.2651 48.088 28.0517 49.0053 28.0517 50.072C28.0517 51.1387 28.2651 52.0773 28.6917 52.888C29.1397 53.6773 29.7157 54.2853 30.4197 54.712C31.1451 55.1387 31.9131 55.352 32.7237 55.352C33.5557 55.352 34.3344 55.1493 35.0597 54.744C35.7851 54.3173 36.3611 53.72 36.7877 52.952C37.2144 52.1627 37.4277 51.224 37.4277 50.136ZM51.0135 44.952V53.528C51.0135 54.1253 51.1521 54.5627 51.4295 54.84C51.7281 55.096 52.2188 55.224 52.9015 55.224H54.9815V59H52.1655C48.3895 59 46.5015 57.1653 46.5015 53.496V44.952H44.3895V41.272H46.5015V36.888H51.0135V41.272H54.9815V44.952H51.0135ZM56.534 50.072C56.534 48.28 56.886 46.6907 57.59 45.304C58.3153 43.9173 59.286 42.8507 60.502 42.104C61.7393 41.3573 63.1153 40.984 64.63 40.984C65.9526 40.984 67.1046 41.2507 68.086 41.784C69.0886 42.3173 69.8886 42.9893 70.486 43.8V41.272H74.998V59H70.486V56.408C69.91 57.24 69.11 57.9333 68.086 58.488C67.0833 59.0213 65.9206 59.288 64.598 59.288C63.1046 59.288 61.7393 58.904 60.502 58.136C59.286 57.368 58.3153 56.2907 57.59 54.904C56.886 53.496 56.534 51.8853 56.534 50.072ZM70.486 50.136C70.486 49.048 70.2726 48.12 69.846 47.352C69.4193 46.5627 68.8433 45.9653 68.118 45.56C67.3926 45.1333 66.614 44.92 65.782 44.92C64.95 44.92 64.182 45.1227 63.478 45.528C62.774 45.9333 62.198 46.5307 61.75 47.32C61.3233 48.088 61.11 49.0053 61.11 50.072C61.11 51.1387 61.3233 52.0773 61.75 52.888C62.198 53.6773 62.774 54.2853 63.478 54.712C64.2033 55.1387 64.9713 55.352 65.782 55.352C66.614 55.352 67.3926 55.1493 68.118 54.744C68.8433 54.3173 69.4193 53.72 69.846 52.952C70.2726 52.1627 70.486 51.224 70.486 50.136ZM90.3757 59L85.4477 50.296H83.3357V59H78.8557V36.664H87.2397C88.9677 36.664 90.4397 36.9733 91.6557 37.592C92.8717 38.1893 93.7784 39.0107 94.3757 40.056C94.9944 41.08 95.3037 42.232 95.3037 43.512C95.3037 44.984 94.877 46.3173 94.0237 47.512C93.1704 48.6853 91.901 49.496 90.2157 49.944L95.5597 59H90.3757ZM83.3357 46.936H87.0797C88.2957 46.936 89.2024 46.648 89.7997 46.072C90.397 45.4747 90.6957 44.6533 90.6957 43.608C90.6957 42.584 90.397 41.7947 89.7997 41.24C89.2024 40.664 88.2957 40.376 87.0797 40.376H83.3357V46.936ZM106.71 59.288C105.003 59.288 103.467 58.9147 102.102 58.168C100.737 57.4 99.6593 56.3227 98.87 54.936C98.102 53.5493 97.718 51.9493 97.718 50.136C97.718 48.3227 98.1126 46.7227 98.902 45.336C99.7126 43.9493 100.811 42.8827 102.198 42.136C103.585 41.368 105.131 40.984 106.838 40.984C108.545 40.984 110.091 41.368 111.478 42.136C112.865 42.8827 113.953 43.9493 114.742 45.336C115.553 46.7227 115.958 48.3227 115.958 50.136C115.958 51.9493 115.542 53.5493 114.71 54.936C113.899 56.3227 112.79 57.4 111.382 58.168C109.995 58.9147 108.438 59.288 106.71 59.288ZM106.71 55.384C107.521 55.384 108.278 55.192 108.982 54.808C109.707 54.4027 110.283 53.8053 110.71 53.016C111.137 52.2267 111.35 51.2667 111.35 50.136C111.35 48.4507 110.902 47.16 110.006 46.264C109.131 45.3467 108.054 44.888 106.774 44.888C105.494 44.888 104.417 45.3467 103.542 46.264C102.689 47.16 102.262 48.4507 102.262 50.136C102.262 51.8213 102.678 53.1227 103.51 54.04C104.363 54.936 105.43 55.384 106.71 55.384ZM123.206 43.864C123.782 43.0107 124.572 42.3173 125.574 41.784C126.598 41.2507 127.761 40.984 129.062 40.984C130.577 40.984 131.942 41.3573 133.158 42.104C134.396 42.8507 135.366 43.9173 136.07 45.304C136.796 46.6693 137.158 48.2587 137.158 50.072C137.158 51.8853 136.796 53.496 136.07 54.904C135.366 56.2907 134.396 57.368 133.158 58.136C131.942 58.904 130.577 59.288 129.062 59.288C127.74 59.288 126.577 59.032 125.574 58.52C124.593 57.9867 123.804 57.304 123.206 56.472V59H118.726V35.32H123.206V43.864ZM132.582 50.072C132.582 49.0053 132.358 48.088 131.91 47.32C131.484 46.5307 130.908 45.9333 130.182 45.528C129.478 45.1227 128.71 44.92 127.878 44.92C127.068 44.92 126.3 45.1333 125.574 45.56C124.87 45.9653 124.294 46.5627 123.846 47.352C123.42 48.1413 123.206 49.0693 123.206 50.136C123.206 51.2027 123.42 52.1307 123.846 52.92C124.294 53.7093 124.87 54.3173 125.574 54.744C126.3 55.1493 127.068 55.352 127.878 55.352C128.71 55.352 129.478 55.1387 130.182 54.712C130.908 54.2853 131.484 53.6773 131.91 52.888C132.358 52.0987 132.582 51.16 132.582 50.072ZM147.768 59.288C146.062 59.288 144.526 58.9147 143.16 58.168C141.795 57.4 140.718 56.3227 139.928 54.936C139.16 53.5493 138.776 51.9493 138.776 50.136C138.776 48.3227 139.171 46.7227 139.96 45.336C140.771 43.9493 141.87 42.8827 143.256 42.136C144.643 41.368 146.19 40.984 147.896 40.984C149.603 40.984 151.15 41.368 152.536 42.136C153.923 42.8827 155.011 43.9493 155.8 45.336C156.611 46.7227 157.016 48.3227 157.016 50.136C157.016 51.9493 156.6 53.5493 155.768 54.936C154.958 56.3227 153.848 57.4 152.44 58.168C151.054 58.9147 149.496 59.288 147.768 59.288ZM147.768 55.384C148.579 55.384 149.336 55.192 150.04 54.808C150.766 54.4027 151.342 53.8053 151.768 53.016C152.195 52.2267 152.408 51.2667 152.408 50.136C152.408 48.4507 151.96 47.16 151.064 46.264C150.19 45.3467 149.112 44.888 147.832 44.888C146.552 44.888 145.475 45.3467 144.6 46.264C143.747 47.16 143.32 48.4507 143.32 50.136C143.32 51.8213 143.736 53.1227 144.568 54.04C145.422 54.936 146.488 55.384 147.768 55.384ZM165.001 44.952V53.528C165.001 54.1253 165.139 54.5627 165.417 54.84C165.715 55.096 166.206 55.224 166.889 55.224H168.969V59H166.153C162.377 59 160.489 57.1653 160.489 53.496V44.952H158.377V41.272H160.489V36.888H165.001V41.272H168.969V44.952H165.001Z" fill="white"/>
</svg>
