<svg width="241" height="94" viewBox="0 0 241 94" fill="none" xmlns="http://www.w3.org/2000/svg">
<path d="M233.28 50.0642C233.28 50.5188 233.101 50.9548 232.782 51.2763C232.463 51.5976 232.03 51.7783 231.579 51.7783C231.128 51.7783 230.696 51.5976 230.377 51.2763C230.058 50.9548 229.878 50.5188 229.878 50.0642V34.7501C229.878 34.2955 230.058 33.8594 230.377 33.538C230.696 33.2165 231.128 33.036 231.579 33.036C232.03 33.036 232.463 33.2165 232.782 33.538C233.101 33.8594 233.28 34.2955 233.28 34.7501V50.0642ZM232.69 60.6749C232.465 60.9017 226.139 66.2141 214.542 66.2141C202.945 66.2141 196.661 60.9299 196.394 60.7032C196.226 60.5602 196.087 60.3852 195.986 60.188C195.885 59.9908 195.824 59.7755 195.805 59.5545C195.787 59.3333 195.812 59.1108 195.88 58.8995C195.947 58.6882 196.055 58.4923 196.197 58.3232C196.491 57.9809 196.907 57.7695 197.355 57.735C197.802 57.7004 198.245 57.8458 198.587 58.1391C198.685 58.21 204.336 62.8283 214.528 62.8283C224.719 62.8283 230.413 58.1816 230.469 58.1391C230.814 57.8484 231.259 57.705 231.708 57.7394C232.157 57.7739 232.575 57.9831 232.873 58.3232C233.159 58.6604 233.303 59.0982 233.271 59.5411C233.239 59.984 233.036 60.3965 232.704 60.6891L232.69 60.6749ZM195.79 34.7501C195.815 34.294 196.018 33.8667 196.356 33.5613C196.693 33.256 197.136 33.0977 197.589 33.1209C198.009 33.1449 198.405 33.3247 198.7 33.6255C198.996 33.9264 199.171 34.327 199.191 34.7501V50.0358C199.191 50.4904 199.012 50.9264 198.693 51.2479C198.374 51.5694 197.942 51.75 197.491 51.75C197.039 51.75 196.607 51.5694 196.288 51.2479C195.969 50.9264 195.79 50.4904 195.79 50.0358V34.7501ZM204.322 31.35C204.348 30.8941 204.551 30.4666 204.888 30.1613C205.226 29.8561 205.669 29.6977 206.122 29.721C206.541 29.745 206.937 29.9246 207.233 30.2254C207.529 30.5264 207.704 30.927 207.724 31.35V54.0165C207.724 54.4712 207.545 54.9073 207.226 55.2288C206.907 55.5501 206.474 55.7309 206.023 55.7309C205.572 55.7309 205.139 55.5501 204.821 55.2288C204.502 54.9073 204.322 54.4712 204.322 54.0165V31.35ZM212.897 30.5001C212.897 30.0454 213.077 29.6095 213.396 29.288C213.714 28.9664 214.147 28.7859 214.598 28.7859C215.049 28.7859 215.482 28.9664 215.801 29.288C216.12 29.6095 216.299 30.0454 216.299 30.5001V55.1499C216.299 55.6045 216.12 56.0407 215.801 56.362C215.482 56.6835 215.049 56.864 214.598 56.864C214.147 56.864 213.714 56.6835 213.396 56.362C213.077 56.0407 212.897 55.6045 212.897 55.1499V30.5001ZM221.332 31.35C221.332 30.8954 221.511 30.4594 221.83 30.1379C222.149 29.8166 222.581 29.6358 223.033 29.6358C223.484 29.6358 223.916 29.8166 224.235 30.1379C224.554 30.4594 224.733 30.8954 224.733 31.35V54.0165C224.733 54.4712 224.554 54.9073 224.235 55.2288C223.916 55.5501 223.484 55.7309 223.033 55.7309C222.581 55.7309 222.149 55.5501 221.83 55.2288C221.511 54.9073 221.332 54.4712 221.332 54.0165V31.35ZM233.744 22.0001H195.396C194.56 21.9945 193.732 22.155 192.958 22.4725C192.184 22.79 191.48 23.2584 190.886 23.8505C190.292 24.4427 189.819 25.147 189.496 25.9236C189.172 26.6999 189.004 27.533 189 28.375V66.625C189.004 67.467 189.172 68.3001 189.496 69.0765C189.819 69.853 190.292 70.5573 190.886 71.1495C191.48 71.7416 192.184 72.21 192.958 72.5275C193.732 72.845 194.56 73.0055 195.396 72.9999H233.744C234.579 73.0055 235.406 72.8453 236.179 72.5288C236.952 72.2122 237.656 71.7451 238.249 71.1544C238.843 70.5638 239.316 69.861 239.64 69.0863C239.965 68.3115 240.135 67.48 240.14 66.6391V28.375C240.136 27.5343 239.969 26.7023 239.646 25.9268C239.323 25.1512 238.852 24.4476 238.259 23.8555C237.667 23.2635 236.964 22.795 236.192 22.4766C235.42 22.1583 234.593 21.9963 233.758 22.0001" fill="#286EFA"/>
<path d="M6.688 36.664V59H2.208V36.664H6.688ZM20.4205 41.016C22.5325 41.016 24.2392 41.688 25.5405 43.032C26.8418 44.3547 27.4925 46.2107 27.4925 48.6V59H23.0125V49.208C23.0125 47.8 22.6605 46.7227 21.9565 45.976C21.2525 45.208 20.2925 44.824 19.0765 44.824C17.8392 44.824 16.8578 45.208 16.1325 45.976C15.4285 46.7227 15.0765 47.8 15.0765 49.208V59H10.5965V41.272H15.0765V43.48C15.6738 42.712 16.4312 42.1147 17.3485 41.688C18.2872 41.24 19.3112 41.016 20.4205 41.016ZM36.451 44.952V53.528C36.451 54.1253 36.5896 54.5627 36.867 54.84C37.1656 55.096 37.6563 55.224 38.339 55.224H40.419V59H37.603C33.827 59 31.939 57.1653 31.939 53.496V44.952H29.827V41.272H31.939V36.888H36.451V41.272H40.419V44.952H36.451ZM59.6035 49.752C59.6035 50.392 59.5608 50.968 59.4755 51.48H46.5155C46.6221 52.76 47.0701 53.7627 47.8595 54.488C48.6488 55.2133 49.6195 55.576 50.7715 55.576C52.4355 55.576 53.6195 54.8613 54.3235 53.432H59.1555C58.6435 55.1387 57.6621 56.5467 56.2115 57.656C54.7608 58.744 52.9795 59.288 50.8675 59.288C49.1608 59.288 47.6248 58.9147 46.2595 58.168C44.9155 57.4 43.8595 56.3227 43.0915 54.936C42.3448 53.5493 41.9715 51.9493 41.9715 50.136C41.9715 48.3013 42.3448 46.6907 43.0915 45.304C43.8381 43.9173 44.8835 42.8507 46.2275 42.104C47.5715 41.3573 49.1181 40.984 50.8675 40.984C52.5528 40.984 54.0568 41.3467 55.3795 42.072C56.7235 42.7973 57.7581 43.832 58.4835 45.176C59.2301 46.4987 59.6035 48.024 59.6035 49.752ZM54.9635 48.472C54.9421 47.32 54.5261 46.4027 53.7155 45.72C52.9048 45.016 51.9128 44.664 50.7395 44.664C49.6301 44.664 48.6915 45.0053 47.9235 45.688C47.1768 46.3493 46.7181 47.2773 46.5475 48.472H54.9635ZM66.8357 44.024C67.4117 43.0853 68.1584 42.3493 69.0757 41.816C70.0144 41.2827 71.081 41.016 72.2757 41.016V45.72H71.0917C69.6837 45.72 68.617 46.0507 67.8917 46.712C67.1877 47.3733 66.8357 48.5253 66.8357 50.168V59H62.3557V41.272H66.8357V44.024ZM73.6235 50.136C73.6235 48.3013 73.9968 46.7013 74.7435 45.336C75.4901 43.9493 76.5248 42.8827 77.8475 42.136C79.1701 41.368 80.6848 40.984 82.3915 40.984C84.5888 40.984 86.4021 41.5387 87.8315 42.648C89.2821 43.736 90.2528 45.272 90.7435 47.256H85.9115C85.6555 46.488 85.2181 45.8907 84.5995 45.464C84.0021 45.016 83.2555 44.792 82.3595 44.792C81.0795 44.792 80.0661 45.2613 79.3195 46.2C78.5728 47.1173 78.1995 48.4293 78.1995 50.136C78.1995 51.8213 78.5728 53.1333 79.3195 54.072C80.0661 54.9893 81.0795 55.448 82.3595 55.448C84.1728 55.448 85.3568 54.6373 85.9115 53.016H90.7435C90.2528 54.936 89.2821 56.4613 87.8315 57.592C86.3808 58.7227 84.5675 59.288 82.3915 59.288C80.6848 59.288 79.1701 58.9147 77.8475 58.168C76.5248 57.4 75.4901 56.3333 74.7435 54.968C73.9968 53.5813 73.6235 51.9707 73.6235 50.136ZM101.38 59.288C99.673 59.288 98.137 58.9147 96.7717 58.168C95.4064 57.4 94.329 56.3227 93.5397 54.936C92.7717 53.5493 92.3877 51.9493 92.3877 50.136C92.3877 48.3227 92.7824 46.7227 93.5717 45.336C94.3824 43.9493 95.481 42.8827 96.8677 42.136C98.2544 41.368 99.801 40.984 101.508 40.984C103.214 40.984 104.761 41.368 106.148 42.136C107.534 42.8827 108.622 43.9493 109.412 45.336C110.222 46.7227 110.628 48.3227 110.628 50.136C110.628 51.9493 110.212 53.5493 109.38 54.936C108.569 56.3227 107.46 57.4 106.052 58.168C104.665 58.9147 103.108 59.288 101.38 59.288ZM101.38 55.384C102.19 55.384 102.948 55.192 103.652 54.808C104.377 54.4027 104.953 53.8053 105.38 53.016C105.806 52.2267 106.02 51.2667 106.02 50.136C106.02 48.4507 105.572 47.16 104.676 46.264C103.801 45.3467 102.724 44.888 101.444 44.888C100.164 44.888 99.0864 45.3467 98.2117 46.264C97.3584 47.16 96.9317 48.4507 96.9317 50.136C96.9317 51.8213 97.3477 53.1227 98.1797 54.04C99.033 54.936 100.1 55.384 101.38 55.384ZM135.412 41.016C137.588 41.016 139.338 41.688 140.66 43.032C142.004 44.3547 142.676 46.2107 142.676 48.6V59H138.196V49.208C138.196 47.8213 137.844 46.7653 137.14 46.04C136.436 45.2933 135.476 44.92 134.26 44.92C133.044 44.92 132.074 45.2933 131.348 46.04C130.644 46.7653 130.292 47.8213 130.292 49.208V59H125.812V49.208C125.812 47.8213 125.46 46.7653 124.756 46.04C124.052 45.2933 123.092 44.92 121.876 44.92C120.639 44.92 119.658 45.2933 118.932 46.04C118.228 46.7653 117.876 47.8213 117.876 49.208V59H113.396V41.272H117.876V43.416C118.452 42.6693 119.188 42.0827 120.084 41.656C121.002 41.2293 122.004 41.016 123.092 41.016C124.479 41.016 125.716 41.3147 126.804 41.912C127.892 42.488 128.735 43.32 129.332 44.408C129.908 43.384 130.74 42.5627 131.828 41.944C132.938 41.3253 134.132 41.016 135.412 41.016Z" fill="#286EFA"/>
</svg>
