<svg width="240" height="94" viewBox="0 0 240 94" fill="none" xmlns="http://www.w3.org/2000/svg">
<path fill-rule="evenodd" clip-rule="evenodd" d="M240 50.707V72.3221H231.349V53.6495C231.349 48.7105 229.062 46.0476 225.085 46.0476C221.373 46.0476 218.291 48.5704 218.291 53.7204V72.3221H209.64V38.376H218.059V42.3695C220.346 38.7611 223.826 37.4651 227.504 37.4651C234.797 37.4651 240 42.8249 240 50.707ZM8.65022 34.277C8.65022 31.0895 9.9096 29.5127 12.4281 29.5127C15.4582 29.5127 18.6709 30.5118 18.6709 30.5118V22.4891C16.7191 21.5894 14.4106 21 11.5005 21C4.01018 21 0 26.2197 0 34.1721V38.376V46.5031V55.3312V72.3215H8.65022V46.5031H18.6262V38.376H8.65022V34.277ZM151.939 61.9144C151.671 62.074 148.192 63.7691 145.112 63.7691C142.461 63.7691 140.306 62.1924 140.306 57.9885V45.5877H151.939V43.21V37.4601H140.306V27.3706H131.657V32.3531V37.4601V45.5877V48.254V58.7241C131.657 67.5527 135.699 72.2813 143.687 72.2813C147.008 72.2813 149.654 71.4737 151.939 70.2307V61.9144ZM37.0808 72.3518C47.1239 72.3518 54.5405 64.8827 54.5405 54.8787C54.5405 44.8746 47.1239 37.4061 37.0808 37.4061C27.0705 37.4061 19.6875 44.8746 19.6875 54.8787C19.6875 64.8827 27.0705 72.3518 37.0808 72.3518ZM37.0808 64.0266C32.192 64.0266 28.534 60.2574 28.534 54.8787C28.534 49.4999 32.192 45.7313 37.0808 45.7313C42.0024 45.7313 45.6605 49.4999 45.6605 54.8787C45.6605 60.2574 42.0024 64.0266 37.0808 64.0266ZM58.697 57.3462C58.697 67.8292 65.8808 72.3518 73.9621 72.3518C82.0428 72.3518 89.1931 67.8292 89.1931 57.3462V38.2963H80.5459V56.5575C80.5459 61.8677 77.6865 64.0266 73.9621 64.0266C70.2036 64.0266 67.3771 61.8677 67.3771 56.5575V38.2963H58.697V57.3462ZM125.841 72.4115V51.2725C125.841 43.5635 120.62 38.322 113.304 38.322C109.612 38.322 106.12 39.589 103.825 43.1187V39.2128H95.3784V72.4115H104.059V54.2189C104.059 49.1828 107.151 46.7153 110.876 46.7153C114.866 46.7153 117.162 49.3196 117.162 54.1503V72.4115H125.841ZM180.459 67.8292V72.4115H188.94V38.2963H180.459V41.9627C178.331 39.2217 175.239 37.4061 170.815 37.4061C161.903 37.4061 155.219 44.9092 155.219 54.8787C155.219 64.8487 161.903 72.3518 170.815 72.3518C175.239 72.3518 178.331 70.5362 180.459 67.8292ZM172.412 64.0266C167.324 64.0266 164.098 59.9499 164.098 54.8787C164.098 49.8085 167.324 45.7313 172.412 45.7313C177.367 45.7313 180.725 49.6372 180.725 54.8787C180.725 60.1207 177.367 64.0266 172.412 64.0266ZM202.517 72.2157H193.594V38.6598H202.517V72.2157ZM202.517 33.0737H193.594V23.7528H202.517V33.0737Z" fill="#22A4F2"/>
</svg>
