<svg width="241" height="94" viewBox="0 0 241 94" fill="none" xmlns="http://www.w3.org/2000/svg">
<path d="M208.055 21.0746C206.943 21.4279 206.263 22.3829 205.949 24.0179C205.687 25.3785 205.687 28.6618 205.962 30.2446C206.524 33.6065 208.238 37.0731 210.567 39.5454C211.378 40.3957 218.193 46.243 219.004 46.7793C219.619 47.1718 220.011 46.9756 222.274 45.0787C224.42 43.2736 225.191 42.7896 226.434 42.4626C227.86 42.0832 230.005 42.2794 231.235 42.9073C232.347 43.4698 234.793 45.5497 235.146 46.23C235.473 46.8709 235.434 48.009 235.042 48.6631C234.636 49.3434 230.515 52.7967 229.521 53.2938C227.324 54.3666 224.642 54.2095 222.693 52.8752C222.314 52.6136 217.487 48.6107 211.966 43.9669C206.446 39.323 201.724 35.4118 201.462 35.281C200.442 34.7576 198.95 35.0978 198.257 36.0135C197.04 37.6356 196.91 42.5803 197.982 46.2953C198.702 48.807 200.219 51.5018 201.946 53.4116C202.391 53.8825 203.686 55.0859 204.837 56.067C205.988 57.0482 206.93 57.8984 206.93 57.9508C206.93 58.0031 204.824 59.8214 202.247 61.9798C197.446 66.0089 197.197 66.2574 197.028 67.2908C196.622 69.8023 200.756 71.9739 205.949 72C209.049 72 212.372 70.8881 215.511 68.7821C216.479 68.128 239.698 48.7023 239.96 48.3229C240.052 48.1921 240.169 47.8913 240.222 47.6558C240.431 46.6747 240.771 46.9886 225.165 33.8943C217.146 27.1705 210.37 21.5325 210.083 21.3624C209.507 21.0354 208.604 20.9046 208.055 21.0746Z" fill="#742DDD"/>
<path d="M9.92 59.224C8.36267 59.224 6.95467 58.9573 5.696 58.424C4.45867 57.8907 3.47733 57.1227 2.752 56.12C2.02667 55.1173 1.65333 53.9333 1.632 52.568H6.432C6.496 53.4853 6.816 54.2107 7.392 54.744C7.98933 55.2773 8.8 55.544 9.824 55.544C10.8693 55.544 11.6907 55.2987 12.288 54.808C12.8853 54.296 13.184 53.6347 13.184 52.824C13.184 52.1627 12.9813 51.6187 12.576 51.192C12.1707 50.7653 11.6587 50.4347 11.04 50.2C10.4427 49.944 9.61067 49.6667 8.544 49.368C7.09333 48.9413 5.90933 48.5253 4.992 48.12C4.096 47.6933 3.31733 47.064 2.656 46.232C2.016 45.3787 1.696 44.248 1.696 42.84C1.696 41.5173 2.02667 40.3653 2.688 39.384C3.34933 38.4027 4.27733 37.656 5.472 37.144C6.66667 36.6107 8.032 36.344 9.568 36.344C11.872 36.344 13.7387 36.9093 15.168 38.04C16.6187 39.1493 17.4187 40.7067 17.568 42.712H12.64C12.5973 41.944 12.2667 41.3147 11.648 40.824C11.0507 40.312 10.2507 40.056 9.248 40.056C8.37333 40.056 7.66933 40.28 7.136 40.728C6.624 41.176 6.368 41.8267 6.368 42.68C6.368 43.2773 6.56 43.7787 6.944 44.184C7.34933 44.568 7.84 44.888 8.416 45.144C9.01333 45.3787 9.84533 45.656 10.912 45.976C12.3627 46.4027 13.5467 46.8293 14.464 47.256C15.3813 47.6827 16.1707 48.3227 16.832 49.176C17.4933 50.0293 17.824 51.1493 17.824 52.536C17.824 53.7307 17.5147 54.84 16.896 55.864C16.2773 56.888 15.3707 57.7093 14.176 58.328C12.9813 58.9253 11.5627 59.224 9.92 59.224ZM37.6702 49.752C37.6702 50.392 37.6276 50.968 37.5422 51.48H24.5822C24.6889 52.76 25.1369 53.7627 25.9262 54.488C26.7156 55.2133 27.6862 55.576 28.8382 55.576C30.5022 55.576 31.6862 54.8613 32.3902 53.432H37.2222C36.7102 55.1387 35.7289 56.5467 34.2782 57.656C32.8276 58.744 31.0462 59.288 28.9342 59.288C27.2276 59.288 25.6916 58.9147 24.3262 58.168C22.9822 57.4 21.9262 56.3227 21.1582 54.936C20.4116 53.5493 20.0382 51.9493 20.0382 50.136C20.0382 48.3013 20.4116 46.6907 21.1582 45.304C21.9049 43.9173 22.9502 42.8507 24.2942 42.104C25.6382 41.3573 27.1849 40.984 28.9342 40.984C30.6196 40.984 32.1236 41.3467 33.4462 42.072C34.7902 42.7973 35.8249 43.832 36.5502 45.176C37.2969 46.4987 37.6702 48.024 37.6702 49.752ZM33.0302 48.472C33.0089 47.32 32.5929 46.4027 31.7822 45.72C30.9716 45.016 29.9796 44.664 28.8062 44.664C27.6969 44.664 26.7582 45.0053 25.9902 45.688C25.2436 46.3493 24.7849 47.2773 24.6142 48.472H33.0302ZM50.2465 41.016C52.3585 41.016 54.0651 41.688 55.3665 43.032C56.6678 44.3547 57.3185 46.2107 57.3185 48.6V59H52.8385V49.208C52.8385 47.8 52.4865 46.7227 51.7825 45.976C51.0785 45.208 50.1185 44.824 48.9025 44.824C47.6651 44.824 46.6838 45.208 45.9585 45.976C45.2545 46.7227 44.9025 47.8 44.9025 49.208V59H40.4225V41.272H44.9025V43.48C45.4998 42.712 46.2571 42.1147 47.1745 41.688C48.1131 41.24 49.1371 41.016 50.2465 41.016ZM59.909 50.072C59.909 48.28 60.261 46.6907 60.965 45.304C61.6903 43.9173 62.6716 42.8507 63.909 42.104C65.1463 41.3573 66.5223 40.984 68.037 40.984C69.189 40.984 70.2876 41.24 71.333 41.752C72.3783 42.2427 73.2103 42.904 73.829 43.736V35.32H78.373V59H73.829V56.376C73.2743 57.2507 72.4956 57.9547 71.493 58.488C70.4903 59.0213 69.3276 59.288 68.005 59.288C66.5116 59.288 65.1463 58.904 63.909 58.136C62.6716 57.368 61.6903 56.2907 60.965 54.904C60.261 53.496 59.909 51.8853 59.909 50.072ZM73.861 50.136C73.861 49.048 73.6476 48.12 73.221 47.352C72.7943 46.5627 72.2183 45.9653 71.493 45.56C70.7676 45.1333 69.989 44.92 69.157 44.92C68.325 44.92 67.557 45.1227 66.853 45.528C66.149 45.9333 65.573 46.5307 65.125 47.32C64.6983 48.088 64.485 49.0053 64.485 50.072C64.485 51.1387 64.6983 52.0773 65.125 52.888C65.573 53.6773 66.149 54.2853 66.853 54.712C67.5783 55.1387 68.3463 55.352 69.157 55.352C69.989 55.352 70.7676 55.1493 71.493 54.744C72.2183 54.3173 72.7943 53.72 73.221 52.952C73.6476 52.1627 73.861 51.224 73.861 50.136ZM86.7107 43.864C87.2867 43.0107 88.076 42.3173 89.0787 41.784C90.1027 41.2507 91.2654 40.984 92.5667 40.984C94.0814 40.984 95.4467 41.3573 96.6627 42.104C97.9 42.8507 98.8707 43.9173 99.5747 45.304C100.3 46.6693 100.663 48.2587 100.663 50.072C100.663 51.8853 100.3 53.496 99.5747 54.904C98.8707 56.2907 97.9 57.368 96.6627 58.136C95.4467 58.904 94.0814 59.288 92.5667 59.288C91.244 59.288 90.0814 59.032 89.0787 58.52C88.0974 57.9867 87.308 57.304 86.7107 56.472V59H82.2307V35.32H86.7107V43.864ZM96.0867 50.072C96.0867 49.0053 95.8627 48.088 95.4147 47.32C94.988 46.5307 94.412 45.9333 93.6867 45.528C92.9827 45.1227 92.2147 44.92 91.3827 44.92C90.572 44.92 89.804 45.1333 89.0787 45.56C88.3747 45.9653 87.7987 46.5627 87.3507 47.352C86.924 48.1413 86.7107 49.0693 86.7107 50.136C86.7107 51.2027 86.924 52.1307 87.3507 52.92C87.7987 53.7093 88.3747 54.3173 89.0787 54.744C89.804 55.1493 90.572 55.352 91.3827 55.352C92.2147 55.352 92.9827 55.1387 93.6867 54.712C94.412 54.2853 94.988 53.6773 95.4147 52.888C95.8627 52.0987 96.0867 51.16 96.0867 50.072ZM105.672 39.16C104.883 39.16 104.222 38.9147 103.688 38.424C103.176 37.912 102.92 37.2827 102.92 36.536C102.92 35.7893 103.176 35.1707 103.688 34.68C104.222 34.168 104.883 33.912 105.672 33.912C106.462 33.912 107.112 34.168 107.624 34.68C108.158 35.1707 108.424 35.7893 108.424 36.536C108.424 37.2827 108.158 37.912 107.624 38.424C107.112 38.9147 106.462 39.16 105.672 39.16ZM107.88 41.272V59H103.4V41.272H107.88ZM116.269 44.024C116.845 43.0853 117.592 42.3493 118.509 41.816C119.448 41.2827 120.514 41.016 121.709 41.016V45.72H120.525C119.117 45.72 118.05 46.0507 117.325 46.712C116.621 47.3733 116.269 48.5253 116.269 50.168V59H111.789V41.272H116.269V44.024ZM123.057 50.072C123.057 48.28 123.409 46.6907 124.113 45.304C124.838 43.9173 125.819 42.8507 127.057 42.104C128.294 41.3573 129.67 40.984 131.185 40.984C132.337 40.984 133.435 41.24 134.481 41.752C135.526 42.2427 136.358 42.904 136.977 43.736V35.32H141.521V59H136.977V56.376C136.422 57.2507 135.643 57.9547 134.641 58.488C133.638 59.0213 132.475 59.288 131.153 59.288C129.659 59.288 128.294 58.904 127.057 58.136C125.819 57.368 124.838 56.2907 124.113 54.904C123.409 53.496 123.057 51.8853 123.057 50.072ZM137.009 50.136C137.009 49.048 136.795 48.12 136.369 47.352C135.942 46.5627 135.366 45.9653 134.641 45.56C133.915 45.1333 133.137 44.92 132.305 44.92C131.473 44.92 130.705 45.1227 130.001 45.528C129.297 45.9333 128.721 46.5307 128.273 47.32C127.846 48.088 127.633 49.0053 127.633 50.072C127.633 51.1387 127.846 52.0773 128.273 52.888C128.721 53.6773 129.297 54.2853 130.001 54.712C130.726 55.1387 131.494 55.352 132.305 55.352C133.137 55.352 133.915 55.1493 134.641 54.744C135.366 54.3173 135.942 53.72 136.369 52.952C136.795 52.1627 137.009 51.224 137.009 50.136Z" fill="#742DDD"/>
</svg>
