<svg width="283" height="383" viewBox="0 0 283 383" fill="none" xmlns="http://www.w3.org/2000/svg"><rect width="283" height="383" rx="3" fill="url(#b)" filter="url(#a)"/><path fill-rule="evenodd" clip-rule="evenodd" d="M210.538 202.769a.46.46 0 0 1-.461-.461v-.462h-1.846v.462a.464.464 0 0 1-.462.461.458.458 0 0 1-.461-.461v-.462h-1.385v1.846h9.231v-1.846h-1.385v.462a.46.46 0 0 1-.788.326.464.464 0 0 1-.135-.326v-.462H211v.462a.464.464 0 0 1-.462.461zm5.539 1.385v-2.769a.465.465 0 0 0-.135-.327.465.465 0 0 0-.327-.135h-1.846v-.461a.46.46 0 1 0-.923 0v.461H211v-.461a.465.465 0 0 0-.135-.327.465.465 0 0 0-.653 0 .465.465 0 0 0-.135.327v.461h-1.846v-.461a.465.465 0 0 0-.135-.327.465.465 0 0 0-.653 0 .46.46 0 0 0-.135.327v.461h-1.846a.465.465 0 0 0-.327.135.465.465 0 0 0-.135.327v10.153c0 .123.049.24.135.327a.465.465 0 0 0 .327.135h10.153c.123 0 .24-.049.327-.135a.465.465 0 0 0 .135-.327v-7.384z" fill="#fff"/><rect x="20" y="20" width="92" height="28" rx="5" fill="#fff"/><path d="M39.648 38.084c-.56 0-1.064-.096-1.512-.288-.448-.2-.8-.48-1.056-.84a2.118 2.118 0 0 1-.384-1.26h1.464c.032.36.172.656.42.888.256.232.612.348 1.068.348.472 0 .84-.112 1.104-.336a1.13 1.13 0 0 0 .396-.888c0-.28-.084-.508-.252-.684a1.583 1.583 0 0 0-.612-.408c-.24-.096-.576-.2-1.008-.312a10.495 10.495 0 0 1-1.332-.432 2.254 2.254 0 0 1-.864-.696c-.24-.312-.36-.728-.36-1.248 0-.48.12-.9.36-1.26a2.3 2.3 0 0 1 1.008-.828c.432-.192.932-.288 1.5-.288.808 0 1.468.204 1.98.612.52.4.808.952.864 1.656H40.92c-.024-.304-.168-.564-.432-.78-.264-.216-.612-.324-1.044-.324-.392 0-.712.1-.96.3-.248.2-.372.488-.372.864 0 .256.076.468.228.636.16.16.36.288.6.384.24.096.568.2.984.312.552.152 1 .304 1.344.456.352.152.648.388.888.708.248.312.372.732.372 1.26 0 .424-.116.824-.348 1.2-.224.376-.556.68-.996.912-.432.224-.944.336-1.536.336zm10.482-6.696V38h-1.368v-.78c-.216.272-.5.488-.852.648a2.7 2.7 0 0 1-1.104.228c-.52 0-.988-.108-1.404-.324a2.388 2.388 0 0 1-.972-.96c-.232-.424-.348-.936-.348-1.536v-3.888h1.356v3.684c0 .592.148 1.048.444 1.368.296.312.7.468 1.212.468s.916-.156 1.212-.468c.304-.32.456-.776.456-1.368v-3.684h1.368zm9.81-.108c.52 0 .983.108 1.391.324.416.216.74.536.972.96.24.424.36.936.36 1.536V38h-1.356v-3.696c0-.592-.148-1.044-.444-1.356-.296-.32-.7-.48-1.212-.48s-.92.16-1.224.48c-.296.312-.444.764-.444 1.356V38h-1.356v-3.696c0-.592-.148-1.044-.444-1.356-.296-.32-.7-.48-1.212-.48s-.92.16-1.224.48c-.296.312-.444.764-.444 1.356V38h-1.368v-6.612h1.368v.756c.224-.272.508-.484.852-.636a2.7 2.7 0 0 1 1.104-.228c.528 0 1 .112 1.416.336.416.224.736.548.96.972.2-.4.512-.716.936-.948.424-.24.88-.36 1.368-.36zm12.468 0c.52 0 .984.108 1.392.324.416.216.74.536.972.96.24.424.36.936.36 1.536V38h-1.356v-3.696c0-.592-.148-1.044-.444-1.356-.296-.32-.7-.48-1.212-.48s-.92.16-1.224.48c-.296.312-.444.764-.444 1.356V38h-1.356v-3.696c0-.592-.148-1.044-.444-1.356-.296-.32-.7-.48-1.212-.48s-.92.16-1.224.48c-.296.312-.444.764-.444 1.356V38h-1.368v-6.612h1.368v.756c.224-.272.508-.484.852-.636a2.7 2.7 0 0 1 1.104-.228c.528 0 1 .112 1.416.336.416.224.736.548.96.972.2-.4.512-.716.936-.948.424-.24.88-.36 1.368-.36zm4.009 3.384c0-.664.136-1.252.408-1.764a3.047 3.047 0 0 1 2.712-1.62c.52 0 .972.104 1.356.312.392.2.704.452.936.756v-.96h1.38V38h-1.38v-.984a2.717 2.717 0 0 1-.948.78c-.4.208-.856.312-1.368.312a2.938 2.938 0 0 1-1.56-.432 3.206 3.206 0 0 1-1.128-1.224c-.272-.528-.408-1.124-.408-1.788zm5.412.024c0-.456-.096-.852-.288-1.188a1.938 1.938 0 0 0-.732-.768 1.93 1.93 0 0 0-.984-.264c-.352 0-.68.088-.984.264-.304.168-.552.42-.744.756-.184.328-.276.72-.276 1.176 0 .456.092.856.276 1.2.192.344.44.608.744.792a1.974 1.974 0 0 0 1.968 0c.304-.176.548-.432.732-.768.192-.344.288-.744.288-1.2zm4.545-2.34c.2-.336.464-.596.791-.78.336-.192.732-.288 1.188-.288v1.416h-.347c-.537 0-.945.136-1.225.408-.272.272-.407.744-.407 1.416V38h-1.368v-6.612h1.368v.96zm9.189-.96l-4.056 9.72H90.09l1.344-3.216-2.604-6.504h1.524l1.86 5.04 1.932-5.04h1.416z" fill="#42CFA6"/><path d="M131.648 38.084c-.56 0-1.064-.096-1.512-.288-.448-.2-.8-.48-1.056-.84a2.118 2.118 0 0 1-.384-1.26h1.464c.032.36.172.656.42.888.256.232.612.348 1.068.348.472 0 .84-.112 1.104-.336a1.13 1.13 0 0 0 .396-.888c0-.28-.084-.508-.252-.684a1.583 1.583 0 0 0-.612-.408c-.24-.096-.576-.2-1.008-.312a10.495 10.495 0 0 1-1.332-.432 2.254 2.254 0 0 1-.864-.696c-.24-.312-.36-.728-.36-1.248 0-.48.12-.9.36-1.26a2.3 2.3 0 0 1 1.008-.828c.432-.192.932-.288 1.5-.288.808 0 1.468.204 1.98.612.52.4.808.952.864 1.656h-1.512c-.024-.304-.168-.564-.432-.78-.264-.216-.612-.324-1.044-.324-.392 0-.712.1-.96.3-.248.2-.372.488-.372.864 0 .256.076.468.228.636.16.16.36.288.6.384.24.096.568.2.984.312.552.152 1 .304 1.344.456.352.152.648.388.888.708.248.312.372.732.372 1.26 0 .424-.116.824-.348 1.2-.224.376-.556.68-.996.912-.432.224-.944.336-1.536.336zm4.038-3.396c0-.68.136-1.276.408-1.788.28-.52.664-.92 1.152-1.2.488-.28 1.048-.42 1.68-.42.8 0 1.46.192 1.98.576.528.376.884.916 1.068 1.62h-1.476a1.56 1.56 0 0 0-.576-.768c-.264-.184-.596-.276-.996-.276-.56 0-1.008.2-1.344.6-.328.392-.492.944-.492 1.656s.164 1.268.492 1.668c.336.4.784.6 1.344.6.792 0 1.316-.348 1.572-1.044h1.476c-.192.672-.552 1.208-1.08 1.608-.528.392-1.184.588-1.968.588-.632 0-1.192-.14-1.68-.42a3.08 3.08 0 0 1-1.152-1.2c-.272-.52-.408-1.12-.408-1.8zm11.072-3.408c.504 0 .952.108 1.344.324.4.216.712.536.936.96.232.424.348.936.348 1.536V38h-1.356v-3.696c0-.592-.148-1.044-.444-1.356-.296-.32-.7-.48-1.212-.48s-.92.16-1.224.48c-.296.312-.444.764-.444 1.356V38h-1.368v-8.88h1.368v3.036c.232-.28.524-.496.876-.648.36-.152.752-.228 1.176-.228zm10.432 3.252c0 .248-.016.472-.048.672h-5.052c.04.528.236.952.588 1.272.352.32.784.48 1.296.48.736 0 1.256-.308 1.56-.924h1.476a2.998 2.998 0 0 1-1.092 1.5c-.52.384-1.168.576-1.944.576-.632 0-1.2-.14-1.704-.42a3.139 3.139 0 0 1-1.176-1.2c-.28-.52-.42-1.12-.42-1.8 0-.68.136-1.276.408-1.788.28-.52.668-.92 1.164-1.2.504-.28 1.08-.42 1.728-.42.624 0 1.18.136 1.668.408.488.272.868.656 1.14 1.152.272.488.408 1.052.408 1.692zm-1.428-.432c-.008-.504-.188-.908-.54-1.212-.352-.304-.788-.456-1.308-.456-.472 0-.876.152-1.212.456-.336.296-.536.7-.6 1.212h3.66zm2.319.564c0-.664.136-1.252.408-1.764a3.047 3.047 0 0 1 2.724-1.62c.432 0 .856.096 1.272.288.424.184.76.432 1.008.744V29.12h1.38V38h-1.38v-.996a2.55 2.55 0 0 1-.936.792c-.392.208-.844.312-1.356.312a3.021 3.021 0 0 1-1.584-.432 3.206 3.206 0 0 1-1.128-1.224c-.272-.528-.408-1.124-.408-1.788zm5.412.024c0-.456-.096-.852-.288-1.188a1.938 1.938 0 0 0-.732-.768 1.93 1.93 0 0 0-.984-.264c-.352 0-.68.088-.984.264-.304.168-.552.42-.744.756-.184.328-.276.72-.276 1.176 0 .456.092.856.276 1.2.192.344.44.608.744.792a1.974 1.974 0 0 0 1.968 0c.304-.176.548-.432.732-.768.192-.344.288-.744.288-1.2zm9.165-3.3V38h-1.368v-.78c-.216.272-.5.488-.852.648a2.7 2.7 0 0 1-1.104.228c-.52 0-.988-.108-1.404-.324a2.388 2.388 0 0 1-.972-.96c-.232-.424-.348-.936-.348-1.536v-3.888h1.356v3.684c0 .592.148 1.048.444 1.368.296.312.7.468 1.212.468s.916-.156 1.212-.468c.304-.32.456-.776.456-1.368v-3.684h1.368zm3.173-2.268V38h-1.368v-8.88h1.368zm7.856 5.412c0 .248-.016.472-.048.672h-5.052c.04.528.236.952.588 1.272.352.32.784.48 1.296.48.736 0 1.256-.308 1.56-.924h1.476a2.998 2.998 0 0 1-1.092 1.5c-.52.384-1.168.576-1.944.576-.632 0-1.2-.14-1.704-.42a3.139 3.139 0 0 1-1.176-1.2c-.28-.52-.42-1.12-.42-1.8 0-.68.136-1.276.408-1.788.28-.52.668-.92 1.164-1.2.504-.28 1.08-.42 1.728-.42.624 0 1.18.136 1.668.408.488.272.868.656 1.14 1.152.272.488.408 1.052.408 1.692zm-1.428-.432c-.008-.504-.188-.908-.54-1.212-.352-.304-.788-.456-1.308-.456-.472 0-.876.152-1.212.456-.336.296-.536.7-.6 1.212h3.66zM21.552 101.176v-1.032l4.032-5.784h1.656v5.628h1.116v1.188H27.24V103h-1.344v-1.824h-4.344zm4.404-5.424l-2.832 4.236h2.832v-4.236zm9.077-.444L31.698 103h-1.38l3.372-7.548h-4.44v-1.164h5.783v1.02zm6.869 7.8c-.52 0-.988-.092-1.404-.276a2.536 2.536 0 0 1-.972-.768 1.943 1.943 0 0 1-.384-1.092h1.416a.99.99 0 0 0 .396.708c.248.184.556.276.924.276.384 0 .68-.072.888-.216.216-.152.324-.344.324-.576 0-.248-.12-.432-.36-.552-.232-.12-.604-.252-1.116-.396a10.83 10.83 0 0 1-1.212-.396 2.176 2.176 0 0 1-.816-.588c-.224-.264-.336-.612-.336-1.044 0-.352.104-.672.312-.96.208-.296.504-.528.888-.696.392-.168.84-.252 1.344-.252.752 0 1.356.192 1.812.576.464.376.712.892.744 1.548h-1.368a.974.974 0 0 0-.36-.708c-.216-.176-.508-.264-.876-.264-.36 0-.636.068-.828.204a.632.632 0 0 0-.288.54c0 .176.064.324.192.444s.284.216.468.288c.184.064.456.148.816.252.48.128.872.26 1.176.396.312.128.58.32.804.576.224.256.34.596.348 1.02 0 .376-.104.712-.312 1.008-.208.296-.504.528-.888.696-.376.168-.82.252-1.332.252zm10.07-3.576c0 .248-.016.472-.048.672h-5.052c.04.528.236.952.588 1.272.352.32.784.48 1.296.48.736 0 1.256-.308 1.56-.924h1.476a2.998 2.998 0 0 1-1.092 1.5c-.52.384-1.168.576-1.944.576-.632 0-1.2-.14-1.704-.42a3.139 3.139 0 0 1-1.176-1.2c-.28-.52-.42-1.12-.42-1.8 0-.68.136-1.276.408-1.788.28-.52.668-.92 1.164-1.2.504-.28 1.08-.42 1.728-.42.624 0 1.18.136 1.668.408.488.272.868.656 1.14 1.152.272.488.408 1.052.408 1.692zm-1.428-.432c-.008-.504-.188-.908-.54-1.212-.352-.304-.788-.456-1.308-.456-.472 0-.876.152-1.212.456-.336.296-.536.7-.6 1.212h3.66zm4.142-4.98V103h-1.368v-8.88h1.368zm7.856 5.412c0 .248-.016.472-.048.672h-5.052c.04.528.236.952.588 1.272.352.32.784.48 1.296.48.736 0 1.256-.308 1.56-.924h1.476a2.998 2.998 0 0 1-1.092 1.5c-.52.384-1.168.576-1.944.576-.632 0-1.2-.14-1.704-.42a3.139 3.139 0 0 1-1.176-1.2c-.28-.52-.42-1.12-.42-1.8 0-.68.136-1.276.408-1.788.28-.52.668-.92 1.164-1.2.504-.28 1.08-.42 1.728-.42.624 0 1.18.136 1.668.408.488.272.868.656 1.14 1.152.272.488.408 1.052.408 1.692zm-1.428-.432c-.008-.504-.188-.908-.54-1.212-.352-.304-.788-.456-1.308-.456-.472 0-.876.152-1.212.456-.336.296-.536.7-.6 1.212h3.66zm2.318.588c0-.68.136-1.276.408-1.788.28-.52.664-.92 1.152-1.2.488-.28 1.048-.42 1.68-.42.8 0 1.46.192 1.98.576.528.376.884.916 1.068 1.62h-1.476a1.56 1.56 0 0 0-.576-.768c-.264-.184-.596-.276-.996-.276-.56 0-1.008.2-1.344.6-.328.392-.492.944-.492 1.656s.164 1.268.492 1.668c.336.4.784.6 1.344.6.792 0 1.316-.348 1.572-1.044h1.476c-.192.672-.552 1.208-1.08 1.608-.528.392-1.184.588-1.968.588-.632 0-1.192-.14-1.68-.42a3.08 3.08 0 0 1-1.152-1.2c-.272-.52-.408-1.12-.408-1.8zm9.248-2.184v3.66c0 .248.056.428.168.54.12.104.32.156.6.156h.84V103h-1.08c-.616 0-1.088-.144-1.416-.432-.328-.288-.492-.756-.492-1.404v-3.66h-.78v-1.116h.78v-1.644h1.38v1.644h1.608v1.116H72.68zm8.928 2.028c0 .248-.016.472-.048.672h-5.052c.04.528.236.952.588 1.272.352.32.784.48 1.296.48.736 0 1.256-.308 1.56-.924h1.476a2.998 2.998 0 0 1-1.092 1.5c-.52.384-1.168.576-1.944.576-.632 0-1.2-.14-1.704-.42a3.139 3.139 0 0 1-1.176-1.2c-.28-.52-.42-1.12-.42-1.8 0-.68.136-1.276.408-1.788.28-.52.668-.92 1.164-1.2.504-.28 1.08-.42 1.728-.42.624 0 1.18.136 1.668.408.488.272.868.656 1.14 1.152.272.488.408 1.052.408 1.692zM80.18 99.1c-.008-.504-.188-.908-.54-1.212-.352-.304-.788-.456-1.308-.456-.472 0-.876.152-1.212.456-.336.296-.536.7-.6 1.212h3.66zm2.319.564c0-.664.136-1.252.408-1.764a3.047 3.047 0 0 1 2.724-1.62c.432 0 .856.096 1.272.288.424.184.76.432 1.008.744V94.12h1.38V103h-1.38v-.996a2.55 2.55 0 0 1-.936.792c-.392.208-.844.312-1.356.312a3.021 3.021 0 0 1-1.584-.432 3.206 3.206 0 0 1-1.128-1.224c-.272-.528-.408-1.124-.408-1.788zm5.412.024c0-.456-.096-.852-.288-1.188a1.938 1.938 0 0 0-.732-.768 1.93 1.93 0 0 0-.984-.264c-.352 0-.68.088-.984.264-.304.168-.552.42-.744.756-.184.328-.276.72-.276 1.176 0 .456.092.856.276 1.2.192.344.44.608.744.792a1.974 1.974 0 0 0 1.968 0c.304-.176.548-.432.732-.768.192-.344.288-.744.288-1.2zm5.838 0c0-.68.136-1.276.408-1.788.28-.52.664-.92 1.152-1.2.488-.28 1.048-.42 1.68-.42.8 0 1.46.192 1.98.576.528.376.884.916 1.068 1.62h-1.476a1.56 1.56 0 0 0-.576-.768c-.264-.184-.596-.276-.996-.276-.56 0-1.008.2-1.344.6-.328.392-.492.944-.492 1.656s.164 1.268.492 1.668c.336.4.784.6 1.344.6.792 0 1.316-.348 1.572-1.044h1.476c-.192.672-.552 1.208-1.08 1.608-.528.392-1.184.588-1.968.588-.632 0-1.192-.14-1.68-.42a3.08 3.08 0 0 1-1.152-1.2c-.272-.52-.408-1.12-.408-1.8zm10.519 3.42c-.624 0-1.188-.14-1.692-.42a3.113 3.113 0 0 1-1.188-1.2c-.288-.52-.432-1.12-.432-1.8 0-.672.148-1.268.444-1.788.296-.52.7-.92 1.212-1.2a3.517 3.517 0 0 1 1.716-.42c.632 0 1.204.14 1.716.42.512.28.916.68 1.212 1.2.296.52.444 1.116.444 1.788 0 .672-.152 1.268-.456 1.788-.304.52-.72.924-1.248 1.212-.52.28-1.096.42-1.728.42zm0-1.188c.352 0 .68-.084.984-.252.312-.168.564-.42.756-.756.192-.336.288-.744.288-1.224s-.092-.884-.276-1.212a1.855 1.855 0 0 0-.732-.756 2.002 2.002 0 0 0-.984-.252c-.352 0-.68.084-.984.252-.296.168-.532.42-.708.756-.176.328-.264.732-.264 1.212 0 .712.18 1.264.54 1.656.368.384.828.576 1.38.576zm8.12-5.64c.52 0 .984.108 1.392.324.416.216.74.536.972.96.232.424.348.936.348 1.536v3.9h-1.356v-3.696c0-.592-.148-1.044-.444-1.356-.296-.32-.7-.48-1.212-.48s-.92.16-1.224.48c-.296.312-.444.764-.444 1.356V103h-1.368v-6.612h1.368v.756c.224-.272.508-.484.852-.636a2.785 2.785 0 0 1 1.116-.228zm6.053 1.224v3.66c0 .248.056.428.168.54.12.104.32.156.6.156h.84V103h-1.08c-.616 0-1.088-.144-1.416-.432-.328-.288-.492-.756-.492-1.404v-3.66h-.78v-1.116h.78v-1.644h1.38v1.644h1.608v1.116h-1.608zm4.237-.156c.2-.336.464-.596.792-.78.336-.192.732-.288 1.188-.288v1.416h-.348c-.536 0-.944.136-1.224.408-.272.272-.408.744-.408 1.416V103h-1.368v-6.612h1.368v.96zm2.782 2.316c0-.664.136-1.252.408-1.764a3.047 3.047 0 0 1 2.712-1.62c.52 0 .972.104 1.356.312.392.2.704.452.936.756v-.96h1.38V103h-1.38v-.984a2.717 2.717 0 0 1-.948.78c-.4.208-.856.312-1.368.312a2.938 2.938 0 0 1-1.56-.432 3.206 3.206 0 0 1-1.128-1.224c-.272-.528-.408-1.124-.408-1.788zm5.412.024c0-.456-.096-.852-.288-1.188a1.938 1.938 0 0 0-.732-.768 1.93 1.93 0 0 0-.984-.264c-.352 0-.68.088-.984.264-.304.168-.552.42-.744.756-.184.328-.276.72-.276 1.176 0 .456.092.856.276 1.2.192.344.44.608.744.792a1.974 1.974 0 0 0 1.968 0c.304-.176.548-.432.732-.768.192-.344.288-.744.288-1.2zm2.72 0c0-.68.136-1.276.408-1.788.28-.52.664-.92 1.152-1.2.488-.28 1.048-.42 1.68-.42.8 0 1.46.192 1.98.576.528.376.884.916 1.068 1.62h-1.476a1.56 1.56 0 0 0-.576-.768c-.264-.184-.596-.276-.996-.276-.56 0-1.008.2-1.344.6-.328.392-.492.944-.492 1.656s.164 1.268.492 1.668c.336.4.784.6 1.344.6.792 0 1.316-.348 1.572-1.044h1.476c-.192.672-.552 1.208-1.08 1.608-.528.392-1.184.588-1.968.588-.632 0-1.192-.14-1.68-.42a3.08 3.08 0 0 1-1.152-1.2c-.272-.52-.408-1.12-.408-1.8zm9.248-2.184v3.66c0 .248.056.428.168.54.12.104.32.156.6.156h.84V103h-1.08c-.616 0-1.088-.144-1.416-.432-.328-.288-.492-.756-.492-1.404v-3.66h-.78v-1.116h.78v-1.644h1.38v1.644h1.608v1.116h-1.608zm5.269 5.604c-.52 0-.988-.092-1.404-.276a2.536 2.536 0 0 1-.972-.768 1.943 1.943 0 0 1-.384-1.092h1.416a.99.99 0 0 0 .396.708c.248.184.556.276.924.276.384 0 .68-.072.888-.216.216-.152.324-.344.324-.576 0-.248-.12-.432-.36-.552-.232-.12-.604-.252-1.116-.396a10.83 10.83 0 0 1-1.212-.396 2.176 2.176 0 0 1-.816-.588c-.224-.264-.336-.612-.336-1.044 0-.352.104-.672.312-.96.208-.296.504-.528.888-.696.392-.168.84-.252 1.344-.252.752 0 1.356.192 1.812.576.464.376.712.892.744 1.548h-1.368a.974.974 0 0 0-.36-.708c-.216-.176-.508-.264-.876-.264-.36 0-.636.068-.828.204a.632.632 0 0 0-.288.54c0 .176.064.324.192.444s.284.216.468.288c.184.064.456.148.816.252.48.128.872.26 1.176.396.312.128.58.32.804.576.224.256.34.596.348 1.02 0 .376-.104.712-.312 1.008-.208.296-.504.528-.888.696-.376.168-.82.252-1.332.252zM26.528 126.624c0 .4-.1.776-.3 1.128a2.41 2.41 0 0 1-.864.888c-.376.24-.824.384-1.344.432v.972h-.78v-.972c-.752-.072-1.36-.308-1.824-.708-.464-.4-.696-.928-.696-1.584h1.464c.024.312.124.572.3.78.176.2.428.328.756.384v-2.64a10.404 10.404 0 0 1-1.308-.408 2.19 2.19 0 0 1-.864-.672c-.232-.304-.348-.72-.348-1.248 0-.664.232-1.212.696-1.644.464-.44 1.072-.696 1.824-.768v-.972h.78v.972c.704.064 1.268.288 1.692.672.432.376.676.896.732 1.56H24.98a1.149 1.149 0 0 0-.288-.66 1.26 1.26 0 0 0-.672-.408v2.592a8.29 8.29 0 0 1 1.308.408c.336.136.62.356.852.66.232.296.348.708.348 1.236zm-4.416-3.72c0 .328.096.584.288.768.2.184.48.332.84.444v-2.424c-.344.04-.62.164-.828.372-.2.208-.3.488-.3.84zm1.908 5.04c.352-.056.628-.196.828-.42.2-.232.3-.508.3-.828 0-.32-.1-.568-.3-.744-.192-.184-.468-.332-.828-.444v2.436zm7.454-.768v-1.032l4.032-5.784h1.656v5.628h1.116v1.188h-1.116V129h-1.344v-1.824h-4.344zm4.404-5.424l-2.832 4.236h2.832v-4.236zm3.51.66c.047-.744.331-1.324.851-1.74.528-.416 1.2-.624 2.016-.624.56 0 1.044.1 1.452.3.408.2.716.472.924.816.208.344.312.732.312 1.164 0 .496-.132.92-.396 1.272s-.58.588-.948.708v.048c.472.144.84.408 1.104.792.264.376.396.86.396 1.452 0 .472-.108.892-.324 1.26-.216.368-.536.66-.96.876-.424.208-.932.312-1.524.312-.864 0-1.576-.22-2.136-.66-.552-.448-.848-1.088-.888-1.92h1.32c.032.424.196.772.492 1.044.296.264.696.396 1.2.396.488 0 .864-.132 1.128-.396.264-.272.396-.62.396-1.044 0-.56-.18-.956-.54-1.188-.352-.24-.896-.36-1.632-.36h-.312v-1.128h.324c.648-.008 1.14-.116 1.476-.324.344-.208.516-.536.516-.984 0-.384-.124-.688-.372-.912-.248-.232-.6-.348-1.056-.348-.448 0-.796.116-1.044.348a1.356 1.356 0 0 0-.444.84h-1.332zm7.124 0c.048-.744.332-1.324.852-1.74.528-.416 1.2-.624 2.016-.624.56 0 1.044.1 1.452.3.408.2.716.472.924.816.208.344.312.732.312 1.164 0 .496-.132.92-.396 1.272s-.58.588-.948.708v.048c.472.144.84.408 1.104.792.264.376.396.86.396 1.452 0 .472-.108.892-.324 1.26-.216.368-.536.66-.96.876-.424.208-.932.312-1.524.312-.864 0-1.576-.22-2.136-.66-.552-.448-.848-1.088-.888-1.92h1.32c.032.424.196.772.492 1.044.296.264.696.396 1.2.396.488 0 .864-.132 1.128-.396.264-.272.396-.62.396-1.044 0-.56-.18-.956-.54-1.188-.352-.24-.896-.36-1.632-.36h-.312v-1.128h.324c.648-.008 1.14-.116 1.476-.324.344-.208.516-.536.516-.984 0-.384-.124-.688-.372-.912-.248-.232-.6-.348-1.056-.348-.448 0-.796.116-1.044.348a1.356 1.356 0 0 0-.444.84h-1.332zm8.83 4.944l-1.453 3.312h-.888l.852-3.312h1.488zm5.719-5.076c-.088-.368-.248-.644-.48-.828-.232-.184-.556-.276-.972-.276-.632 0-1.104.244-1.416.732-.312.48-.476 1.28-.492 2.4.208-.352.512-.624.912-.816.4-.192.832-.288 1.296-.288.528 0 .992.116 1.392.348a2.3 2.3 0 0 1 .948.984c.232.432.348.948.348 1.548 0 .56-.112 1.06-.336 1.5-.216.44-.54.788-.972 1.044-.432.248-.952.372-1.56.372-.824 0-1.472-.18-1.944-.54-.464-.368-.792-.884-.984-1.548-.184-.664-.276-1.492-.276-2.484 0-2.928 1.032-4.392 3.096-4.392.8 0 1.428.216 1.884.648.464.432.736.964.816 1.596h-1.26zm-1.452 2.076c-.488 0-.904.148-1.248.444-.336.288-.504.708-.504 1.26s.156.992.468 1.32c.32.32.764.48 1.332.48.504 0 .9-.156 1.188-.468.296-.312.444-.728.444-1.248 0-.544-.144-.976-.432-1.296-.28-.328-.696-.492-1.248-.492zm5.923.072c-.832-.416-1.248-1.072-1.248-1.968 0-.432.108-.828.324-1.188.216-.36.54-.644.972-.852.432-.216.96-.324 1.584-.324.616 0 1.14.108 1.572.324.44.208.768.492.984.852.216.36.324.756.324 1.188 0 .448-.116.844-.348 1.188a2.245 2.245 0 0 1-.9.78c.456.168.816.444 1.08.828.264.376.396.82.396 1.332 0 .52-.132.98-.396 1.38-.264.4-.632.708-1.104.924-.472.216-1.008.324-1.608.324-.6 0-1.136-.108-1.608-.324a2.58 2.58 0 0 1-1.092-.924c-.264-.4-.396-.86-.396-1.38 0-.52.132-.968.396-1.344.264-.376.62-.648 1.068-.816zm3.204-1.8c0-.448-.14-.792-.42-1.032-.28-.24-.664-.36-1.152-.36-.48 0-.86.12-1.14.36-.28.24-.42.588-.42 1.044 0 .4.144.728.432.984.296.248.672.372 1.128.372.456 0 .832-.128 1.128-.384.296-.256.444-.584.444-.984zm-1.572 2.4c-.528 0-.96.132-1.296.396-.328.256-.492.628-.492 1.116 0 .456.16.828.48 1.116.32.28.756.42 1.308.42.544 0 .972-.144 1.284-.432.32-.288.48-.656.48-1.104 0-.48-.164-.852-.492-1.116-.32-.264-.744-.396-1.272-.396zm10.184-3.6h-4.02v2.388c.168-.224.416-.412.744-.564a2.561 2.561 0 0 1 1.068-.228c.672 0 1.216.144 1.632.432.424.288.724.652.9 1.092.184.44.276.904.276 1.392 0 .592-.116 1.12-.348 1.584a2.504 2.504 0 0 1-1.02 1.08c-.448.264-1 .396-1.656.396-.872 0-1.572-.216-2.1-.648-.528-.432-.844-1.004-.948-1.716h1.332c.088.376.284.676.588.9.304.216.684.324 1.14.324.568 0 .992-.172 1.272-.516.288-.344.432-.8.432-1.368 0-.576-.144-1.016-.432-1.32-.288-.312-.712-.468-1.272-.468-.392 0-.724.1-.996.3a1.626 1.626 0 0 0-.576.792h-1.296v-5.052h5.28v1.2zm6.69 1.932a2.78 2.78 0 0 1 .948-.768c.4-.208.852-.312 1.355-.312.577 0 1.1.144 1.573.432.48.28.855.676 1.127 1.188.273.512.409 1.1.409 1.764 0 .664-.136 1.26-.409 1.788-.272.52-.647.928-1.127 1.224a2.96 2.96 0 0 1-1.573.432c-.503 0-.951-.1-1.343-.3a3.083 3.083 0 0 1-.96-.768v4.104H82.67v-9.756h1.367v.972zm4.02 2.304c0-.456-.097-.848-.289-1.176a1.832 1.832 0 0 0-.744-.756 1.974 1.974 0 0 0-1.968 0 2.022 2.022 0 0 0-.743.768c-.184.336-.276.732-.276 1.188 0 .456.091.856.276 1.2.192.336.44.592.744.768a1.974 1.974 0 0 0 1.967 0c.313-.184.56-.448.744-.792.192-.344.288-.744.288-1.2zm2.288 0c0-.664.136-1.252.408-1.764a3.047 3.047 0 0 1 2.712-1.62c.52 0 .972.104 1.356.312.392.2.704.452.936.756v-.96h1.38V129h-1.38v-.984a2.717 2.717 0 0 1-.948.78c-.4.208-.856.312-1.368.312a2.938 2.938 0 0 1-1.56-.432 3.206 3.206 0 0 1-1.128-1.224c-.272-.528-.408-1.124-.408-1.788zm5.412.024c0-.456-.096-.852-.288-1.188a1.938 1.938 0 0 0-.732-.768 1.93 1.93 0 0 0-.984-.264c-.352 0-.68.088-.984.264-.304.168-.552.42-.744.756-.184.328-.276.72-.276 1.176 0 .456.092.856.276 1.2.192.344.44.608.744.792a1.974 1.974 0 0 0 1.968 0c.304-.176.548-.432.732-.768.192-.344.288-.744.288-1.2zm9.129-3.3l-4.056 9.72h-1.416l1.344-3.216-2.604-6.504h1.524l1.86 5.04 1.932-5.04h1.416zm3.901 6.72c-.624 0-1.188-.14-1.692-.42a3.113 3.113 0 0 1-1.188-1.2c-.288-.52-.432-1.12-.432-1.8 0-.672.148-1.268.444-1.788.296-.52.7-.92 1.212-1.2a3.517 3.517 0 0 1 1.716-.42c.632 0 1.204.14 1.716.42.512.28.916.68 1.212 1.2.296.52.444 1.116.444 1.788 0 .672-.152 1.268-.456 1.788-.304.52-.72.924-1.248 1.212-.52.28-1.096.42-1.728.42zm0-1.188c.352 0 .68-.084.984-.252.312-.168.564-.42.756-.756.192-.336.288-.744.288-1.224s-.092-.884-.276-1.212a1.855 1.855 0 0 0-.732-.756 2.002 2.002 0 0 0-.984-.252c-.352 0-.68.084-.984.252-.296.168-.532.42-.708.756-.176.328-.264.732-.264 1.212 0 .712.18 1.264.54 1.656.368.384.828.576 1.38.576zm10.772-5.532V129h-1.368v-.78c-.216.272-.5.488-.852.648a2.7 2.7 0 0 1-1.104.228c-.52 0-.988-.108-1.404-.324a2.388 2.388 0 0 1-.972-.96c-.232-.424-.348-.936-.348-1.536v-3.888h1.356v3.684c0 .592.148 1.048.444 1.368.296.312.7.468 1.212.468s.916-.156 1.212-.468c.304-.32.456-.776.456-1.368v-3.684h1.368zm3.401 1.116v3.66c0 .248.056.428.168.54.12.104.32.156.6.156h.84V129h-1.08c-.616 0-1.088-.144-1.416-.432-.328-.288-.492-.756-.492-1.404v-3.66h-.78v-1.116h.78v-1.644h1.38v1.644h1.608v1.116h-1.608zM26.528 152.624c0 .4-.1.776-.3 1.128a2.41 2.41 0 0 1-.864.888c-.376.24-.824.384-1.344.432v.972h-.78v-.972c-.752-.072-1.36-.308-1.824-.708-.464-.4-.696-.928-.696-1.584h1.464c.024.312.124.572.3.78.176.2.428.328.756.384v-2.64a10.404 10.404 0 0 1-1.308-.408 2.19 2.19 0 0 1-.864-.672c-.232-.304-.348-.72-.348-1.248 0-.664.232-1.212.696-1.644.464-.44 1.072-.696 1.824-.768v-.972h.78v.972c.704.064 1.268.288 1.692.672.432.376.676.896.732 1.56H24.98a1.149 1.149 0 0 0-.288-.66 1.26 1.26 0 0 0-.672-.408v2.592a8.29 8.29 0 0 1 1.308.408c.336.136.62.356.852.66.232.296.348.708.348 1.236zm-4.416-3.72c0 .328.096.584.288.768.2.184.48.332.84.444v-2.424c-.344.04-.62.164-.828.372-.2.208-.3.488-.3.84zm1.908 5.04c.352-.056.628-.196.828-.42.2-.232.3-.508.3-.828 0-.32-.1-.568-.3-.744-.192-.184-.468-.332-.828-.444v2.436zm4.505-3.432c0-1.384.232-2.464.696-3.24.472-.784 1.28-1.176 2.424-1.176s1.948.392 2.412 1.176c.472.776.708 1.856.708 3.24 0 1.4-.236 2.496-.708 3.288-.464.784-1.268 1.176-2.412 1.176s-1.952-.392-2.424-1.176c-.464-.792-.696-1.888-.696-3.288zm4.896 0c0-.648-.044-1.196-.132-1.644-.08-.448-.248-.812-.504-1.092-.256-.288-.636-.432-1.14-.432-.504 0-.884.144-1.14.432-.256.28-.428.644-.516 1.092-.08.448-.12.996-.12 1.644 0 .672.04 1.236.12 1.692.08.456.248.824.504 1.104.264.28.648.42 1.152.42.504 0 .884-.14 1.14-.42.264-.28.436-.648.516-1.104.08-.456.12-1.02.12-1.692zm5.632.3c0-.816.188-1.548.564-2.196a4.07 4.07 0 0 1 1.548-1.512 4.316 4.316 0 0 1 2.148-.552c.888 0 1.676.22 2.364.66.696.432 1.2 1.048 1.512 1.848h-1.644c-.216-.44-.516-.768-.9-.984-.384-.216-.828-.324-1.332-.324-.552 0-1.044.124-1.476.372a2.628 2.628 0 0 0-1.02 1.068c-.24.464-.36 1.004-.36 1.62 0 .616.12 1.156.36 1.62.248.464.588.824 1.02 1.08.432.248.924.372 1.476.372.504 0 .948-.108 1.332-.324.384-.216.684-.544.9-.984h1.644c-.312.8-.816 1.416-1.512 1.848-.688.432-1.476.648-2.364.648-.784 0-1.5-.18-2.148-.54a4.16 4.16 0 0 1-1.548-1.524c-.376-.648-.564-1.38-.564-2.196zm9.282.852c0-.664.136-1.252.408-1.764a3.047 3.047 0 0 1 2.712-1.62c.52 0 .972.104 1.356.312.392.2.704.452.936.756v-.96h1.38V155h-1.38v-.984a2.717 2.717 0 0 1-.948.78c-.4.208-.856.312-1.368.312a2.938 2.938 0 0 1-1.56-.432 3.206 3.206 0 0 1-1.128-1.224c-.272-.528-.408-1.124-.408-1.788zm5.412.024c0-.456-.096-.852-.288-1.188a1.938 1.938 0 0 0-.732-.768 1.93 1.93 0 0 0-.984-.264c-.352 0-.68.088-.984.264-.304.168-.552.42-.744.756-.184.328-.276.72-.276 1.176 0 .456.092.856.276 1.2.192.344.44.608.744.792a1.974 1.974 0 0 0 1.968 0c.304-.176.548-.432.732-.768.192-.344.288-.744.288-1.2zm6.512-3.408c.52 0 .984.108 1.392.324.416.216.74.536.972.96.232.424.348.936.348 1.536v3.9h-1.356v-3.696c0-.592-.148-1.044-.444-1.356-.296-.32-.7-.48-1.212-.48s-.92.16-1.224.48c-.296.312-.444.764-.444 1.356V155h-1.368v-6.612h1.368v.756c.224-.272.508-.484.852-.636a2.785 2.785 0 0 1 1.116-.228zm4.001 3.408c0-.68.136-1.276.408-1.788.28-.52.664-.92 1.152-1.2.488-.28 1.048-.42 1.68-.42.8 0 1.46.192 1.98.576.528.376.884.916 1.068 1.62h-1.476a1.56 1.56 0 0 0-.576-.768c-.264-.184-.596-.276-.996-.276-.56 0-1.008.2-1.344.6-.328.392-.492.944-.492 1.656s.164 1.268.492 1.668c.336.4.784.6 1.344.6.792 0 1.316-.348 1.572-1.044h1.476c-.192.672-.552 1.208-1.08 1.608-.528.392-1.184.588-1.968.588-.632 0-1.192-.14-1.68-.42a3.08 3.08 0 0 1-1.152-1.2c-.272-.52-.408-1.12-.408-1.8zm13.712-.156c0 .248-.016.472-.048.672h-5.052c.04.528.236.952.588 1.272.352.32.784.48 1.296.48.736 0 1.256-.308 1.56-.924h1.476a2.998 2.998 0 0 1-1.092 1.5c-.52.384-1.168.576-1.944.576-.632 0-1.2-.14-1.704-.42a3.139 3.139 0 0 1-1.176-1.2c-.28-.52-.42-1.12-.42-1.8 0-.68.136-1.276.408-1.788.28-.52.668-.92 1.164-1.2.504-.28 1.08-.42 1.728-.42.624 0 1.18.136 1.668.408.488.272.868.656 1.14 1.152.272.488.408 1.052.408 1.692zm-1.428-.432c-.008-.504-.188-.908-.54-1.212-.352-.304-.788-.456-1.308-.456-.472 0-.876.152-1.212.456-.336.296-.536.7-.6 1.212h3.66zm4.142-4.98V155h-1.368v-8.88h1.368zm3.164 0V155h-1.368v-8.88h1.368zm1.34 5.544c0-.664.136-1.252.408-1.764a3.047 3.047 0 0 1 2.712-1.62c.52 0 .972.104 1.356.312.392.2.704.452.936.756v-.96h1.38V155h-1.38v-.984a2.717 2.717 0 0 1-.948.78c-.4.208-.856.312-1.368.312a2.938 2.938 0 0 1-1.56-.432 3.206 3.206 0 0 1-1.128-1.224c-.272-.528-.408-1.124-.408-1.788zm5.412.024c0-.456-.096-.852-.288-1.188a1.938 1.938 0 0 0-.732-.768 1.93 1.93 0 0 0-.984-.264c-.352 0-.68.088-.984.264-.304.168-.552.42-.744.756-.184.328-.276.72-.276 1.176 0 .456.092.856.276 1.2.192.344.44.608.744.792a1.974 1.974 0 0 0 1.968 0c.304-.176.548-.432.732-.768.192-.344.288-.744.288-1.2zm4.773-2.184v3.66c0 .248.056.428.168.54.12.104.32.156.6.156h.84V155h-1.08c-.616 0-1.088-.144-1.416-.432-.328-.288-.492-.756-.492-1.404v-3.66h-.78v-1.116h.78v-1.644h1.38v1.644h1.608v1.116h-1.608zm3.565-1.992a.847.847 0 0 1-.624-.252.847.847 0 0 1-.252-.624c0-.248.084-.456.252-.624a.847.847 0 0 1 .624-.252c.24 0 .444.084.612.252a.847.847 0 0 1 .252.624.847.847 0 0 1-.252.624.833.833 0 0 1-.612.252zm.672.876V155h-1.368v-6.612h1.368zm4.664 6.72c-.624 0-1.188-.14-1.692-.42a3.113 3.113 0 0 1-1.188-1.2c-.288-.52-.432-1.12-.432-1.8 0-.672.148-1.268.444-1.788.296-.52.7-.92 1.212-1.2a3.517 3.517 0 0 1 1.716-.42c.632 0 1.204.14 1.716.42.512.28.916.68 1.212 1.2.296.52.444 1.116.444 1.788 0 .672-.152 1.268-.456 1.788-.304.52-.72.924-1.248 1.212-.52.28-1.096.42-1.728.42zm0-1.188c.352 0 .68-.084.984-.252.312-.168.564-.42.756-.756.192-.336.288-.744.288-1.224s-.092-.884-.276-1.212a1.855 1.855 0 0 0-.732-.756 2.002 2.002 0 0 0-.984-.252c-.352 0-.68.084-.984.252-.296.168-.532.42-.708.756-.176.328-.264.732-.264 1.212 0 .712.18 1.264.54 1.656.368.384.828.576 1.38.576zm8.12-5.64c.52 0 .984.108 1.392.324.416.216.74.536.972.96.232.424.348.936.348 1.536v3.9h-1.356v-3.696c0-.592-.148-1.044-.444-1.356-.296-.32-.7-.48-1.212-.48s-.92.16-1.224.48c-.296.312-.444.764-.444 1.356V155h-1.368v-6.612h1.368v.756c.224-.272.508-.484.852-.636a2.785 2.785 0 0 1 1.116-.228zm6.857 6.828c-.52 0-.988-.092-1.404-.276a2.536 2.536 0 0 1-.972-.768 1.943 1.943 0 0 1-.384-1.092h1.416a.99.99 0 0 0 .396.708c.248.184.556.276.924.276.384 0 .68-.072.888-.216.216-.152.324-.344.324-.576 0-.248-.12-.432-.36-.552-.232-.12-.604-.252-1.116-.396a10.83 10.83 0 0 1-1.212-.396 2.176 2.176 0 0 1-.816-.588c-.224-.264-.336-.612-.336-1.044 0-.352.104-.672.312-.96.208-.296.504-.528.888-.696.392-.168.84-.252 1.344-.252.752 0 1.356.192 1.812.576.464.376.712.892.744 1.548h-1.368a.974.974 0 0 0-.36-.708c-.216-.176-.508-.264-.876-.264-.36 0-.636.068-.828.204a.632.632 0 0 0-.288.54c0 .176.064.324.192.444s.284.216.468.288c.184.064.456.148.816.252.48.128.872.26 1.176.396.312.128.58.32.804.576.224.256.34.596.348 1.02 0 .376-.104.712-.312 1.008-.208.296-.504.528-.888.696-.376.168-.82.252-1.332.252zM26.732 205.144c0 .424-.1.824-.3 1.2-.2.376-.52.684-.96.924-.44.232-1.004.348-1.692.348h-1.512V211H20.9v-8.34h2.88c.64 0 1.18.112 1.62.336.448.216.78.512.996.888.224.376.336.796.336 1.26zM23.78 206.5c.52 0 .908-.116 1.164-.348.256-.24.384-.576.384-1.008 0-.912-.516-1.368-1.548-1.368h-1.512v2.724h1.512zm3.8 1.164c0-.664.137-1.252.409-1.764a3.047 3.047 0 0 1 2.712-1.62c.52 0 .972.104 1.356.312.392.2.704.452.936.756v-.96h1.38V211h-1.38v-.984a2.717 2.717 0 0 1-.948.78c-.4.208-.856.312-1.368.312a2.938 2.938 0 0 1-1.56-.432 3.206 3.206 0 0 1-1.128-1.224c-.272-.528-.408-1.124-.408-1.788zm5.413.024c0-.456-.096-.852-.288-1.188a1.938 1.938 0 0 0-.732-.768 1.93 1.93 0 0 0-.984-.264c-.352 0-.68.088-.984.264-.304.168-.552.42-.744.756-.184.328-.276.72-.276 1.176 0 .456.092.856.276 1.2.192.344.44.608.744.792a1.974 1.974 0 0 0 1.968 0c.304-.176.548-.432.732-.768.192-.344.288-.744.288-1.2zm9.128-3.3l-4.056 9.72H36.65l1.343-3.216-2.604-6.504h1.524l1.86 5.04 1.932-5.04h1.416zm3.9 6.72c-.623 0-1.187-.14-1.691-.42a3.113 3.113 0 0 1-1.188-1.2c-.288-.52-.432-1.12-.432-1.8 0-.672.148-1.268.444-1.788.296-.52.7-.92 1.212-1.2a3.517 3.517 0 0 1 1.716-.42c.632 0 1.204.14 1.716.42.512.28.916.68 1.212 1.2.296.52.444 1.116.444 1.788 0 .672-.152 1.268-.456 1.788-.304.52-.72.924-1.248 1.212-.52.28-1.096.42-1.728.42zm0-1.188c.353 0 .68-.084.985-.252.312-.168.564-.42.756-.756.192-.336.288-.744.288-1.224s-.092-.884-.276-1.212a1.855 1.855 0 0 0-.732-.756 2.002 2.002 0 0 0-.984-.252c-.352 0-.68.084-.984.252-.296.168-.532.42-.708.756-.176.328-.264.732-.264 1.212 0 .712.18 1.264.54 1.656.368.384.828.576 1.38.576zm10.773-5.532V211h-1.368v-.78c-.216.272-.5.488-.852.648a2.7 2.7 0 0 1-1.104.228c-.52 0-.988-.108-1.404-.324a2.388 2.388 0 0 1-.972-.96c-.232-.424-.348-.936-.348-1.536v-3.888h1.356v3.684c0 .592.148 1.048.444 1.368.296.312.7.468 1.212.468s.916-.156 1.212-.468c.304-.32.456-.776.456-1.368v-3.684h1.368zm3.401 1.116v3.66c0 .248.056.428.168.54.12.104.32.156.6.156h.84V211h-1.08c-.616 0-1.088-.144-1.416-.432-.328-.288-.492-.756-.492-1.404v-3.66h-.78v-1.116h.78v-1.644h1.38v1.644h1.608v1.116h-1.608zm8.71-2.844c.888 0 1.664.172 2.328.516a3.557 3.557 0 0 1 1.548 1.464c.368.632.552 1.372.552 2.22 0 .848-.184 1.584-.552 2.208a3.597 3.597 0 0 1-1.548 1.44c-.664.328-1.44.492-2.328.492h-2.724v-8.34h2.724zm0 7.224c.976 0 1.724-.264 2.244-.792.52-.528.78-1.272.78-2.232 0-.968-.26-1.724-.78-2.268-.52-.544-1.268-.816-2.244-.816H67.55v6.108h1.356zm5.328-2.22c0-.664.136-1.252.408-1.764a3.047 3.047 0 0 1 2.712-1.62c.52 0 .972.104 1.356.312.392.2.704.452.936.756v-.96h1.38V211h-1.38v-.984a2.717 2.717 0 0 1-.948.78c-.4.208-.856.312-1.368.312a2.938 2.938 0 0 1-1.56-.432 3.206 3.206 0 0 1-1.128-1.224c-.272-.528-.408-1.124-.408-1.788zm5.412.024c0-.456-.096-.852-.288-1.188a1.938 1.938 0 0 0-.732-.768 1.93 1.93 0 0 0-.984-.264c-.352 0-.68.088-.984.264-.304.168-.552.42-.744.756-.184.328-.276.72-.276 1.176 0 .456.092.856.276 1.2.192.344.44.608.744.792a1.974 1.974 0 0 0 1.968 0c.304-.176.548-.432.732-.768.192-.344.288-.744.288-1.2zm4.773-2.184v3.66c0 .248.056.428.168.54.12.104.32.156.6.156h.84V211h-1.08c-.616 0-1.088-.144-1.416-.432-.328-.288-.492-.756-.492-1.404v-3.66h-.78v-1.116h.78v-1.644h1.38v1.644h1.608v1.116h-1.608zm8.929 2.028c0 .248-.016.472-.048.672h-5.052c.04.528.236.952.588 1.272.352.32.784.48 1.296.48.736 0 1.256-.308 1.56-.924h1.476a2.998 2.998 0 0 1-1.092 1.5c-.52.384-1.168.576-1.944.576-.632 0-1.2-.14-1.704-.42a3.139 3.139 0 0 1-1.176-1.2c-.28-.52-.42-1.12-.42-1.8 0-.68.136-1.276.408-1.788.28-.52.668-.92 1.164-1.2.504-.28 1.08-.42 1.728-.42.624 0 1.18.136 1.668.408.488.272.868.656 1.14 1.152.272.488.408 1.052.408 1.692zm-1.428-.432c-.008-.504-.188-.908-.54-1.212-.352-.304-.788-.456-1.308-.456-.472 0-.876.152-1.212.456-.336.296-.536.7-.6 1.212h3.66z" fill="#fff"/><path d="M0 179h283M0 235h283" stroke="#fff" stroke-opacity=".3"/><path d="M26.61 73.12c0 .353-.083.687-.25 1-.167.313-.433.57-.8.77-.367.193-.837.29-1.41.29h-1.26V78h-1.14v-6.95h2.4c.533 0 .983.093 1.35.28.373.18.65.427.83.74.187.313.28.663.28 1.05zm-2.46 1.13c.433 0 .757-.097.97-.29.213-.2.32-.48.32-.84 0-.76-.43-1.14-1.29-1.14h-1.26v2.27h1.26zm3.167.97c0-.553.114-1.043.34-1.47a2.538 2.538 0 0 1 2.26-1.35c.434 0 .81.087 1.13.26.327.167.587.377.78.63v-.8h1.15V78h-1.15v-.82c-.193.26-.456.477-.79.65-.333.173-.713.26-1.14.26-.473 0-.906-.12-1.3-.36a2.672 2.672 0 0 1-.94-1.02 3.206 3.206 0 0 1-.34-1.49zm4.51.02c0-.38-.08-.71-.24-.99a1.616 1.616 0 0 0-.61-.64 1.609 1.609 0 0 0-.82-.22c-.293 0-.566.073-.82.22-.253.14-.46.35-.62.63-.153.273-.23.6-.23.98s.077.713.23 1c.16.287.367.507.62.66a1.644 1.644 0 0 0 1.64 0c.254-.147.457-.36.61-.64.16-.287.24-.62.24-1zm7.608-2.75l-3.38 8.1h-1.18l1.12-2.68-2.17-5.42h1.27l1.55 4.2 1.61-4.2h1.18zm3.25 5.6c-.52 0-.99-.117-1.41-.35-.42-.24-.75-.573-.99-1-.24-.433-.36-.933-.36-1.5 0-.56.123-1.057.37-1.49a2.556 2.556 0 0 1 1.01-1c.427-.233.903-.35 1.43-.35a2.93 2.93 0 0 1 1.43.35c.427.233.763.567 1.01 1 .247.433.37.93.37 1.49 0 .56-.127 1.057-.38 1.49-.253.433-.6.77-1.04 1.01-.433.233-.913.35-1.44.35zm0-.99c.293 0 .567-.07.82-.21.26-.14.47-.35.63-.63.16-.28.24-.62.24-1.02s-.077-.737-.23-1.01a1.545 1.545 0 0 0-.61-.63 1.668 1.668 0 0 0-.82-.21c-.293 0-.567.07-.82.21-.247.14-.443.35-.59.63-.147.273-.22.61-.22 1.01 0 .593.15 1.053.45 1.38.307.32.69.48 1.15.48zm8.977-4.61V78h-1.14v-.65c-.18.227-.417.407-.71.54a2.25 2.25 0 0 1-.92.19 2.5 2.5 0 0 1-1.17-.27 1.99 1.99 0 0 1-.81-.8c-.194-.353-.29-.78-.29-1.28v-3.24h1.13v3.07c0 .493.123.873.37 1.14.246.26.583.39 1.01.39.427 0 .763-.13 1.01-.39.253-.267.38-.647.38-1.14v-3.07h1.14zm2.834.93v3.05c0 .207.047.357.14.45.1.087.267.13.5.13h.7V78h-.9c-.513 0-.907-.12-1.18-.36-.273-.24-.41-.63-.41-1.17v-3.05h-.65v-.93h.65v-1.37h1.15v1.37h1.34v.93h-1.34zm9.178 3.16h-2.91l-.5 1.42h-1.19l2.49-6.96h1.32l2.49 6.96h-1.2l-.5-1.42zm-.32-.93l-1.13-3.23-1.14 3.23h2.27zm9.773-3.25c.433 0 .82.09 1.16.27.347.18.617.447.81.8.2.353.3.78.3 1.28V78h-1.13v-3.08c0-.493-.123-.87-.37-1.13-.247-.267-.583-.4-1.01-.4-.427 0-.767.133-1.02.4-.247.26-.37.637-.37 1.13V78h-1.13v-3.08c0-.493-.123-.87-.37-1.13-.247-.267-.583-.4-1.01-.4-.427 0-.767.133-1.02.4-.247.26-.37.637-.37 1.13V78h-1.14v-5.51h1.14v.63c.187-.227.423-.403.71-.53a2.25 2.25 0 0 1 .92-.19c.44 0 .833.093 1.18.28.347.187.613.457.8.81a1.82 1.82 0 0 1 .78-.79c.353-.2.733-.3 1.14-.3zm6.11 5.69c-.52 0-.99-.117-1.41-.35-.42-.24-.75-.573-.99-1-.24-.433-.36-.933-.36-1.5 0-.56.124-1.057.37-1.49a2.555 2.555 0 0 1 1.01-1 2.93 2.93 0 0 1 1.43-.35c.527 0 1.004.117 1.43.35.427.233.764.567 1.01 1 .247.433.37.93.37 1.49 0 .56-.126 1.057-.38 1.49-.253.433-.6.77-1.04 1.01-.433.233-.913.35-1.44.35zm0-.99c.294 0 .567-.07.82-.21.26-.14.47-.35.63-.63.16-.28.24-.62.24-1.02s-.076-.737-.23-1.01a1.546 1.546 0 0 0-.61-.63 1.668 1.668 0 0 0-.82-.21c-.293 0-.566.07-.82.21-.246.14-.443.35-.59.63-.146.273-.22.61-.22 1.01 0 .593.15 1.053.45 1.38.307.32.69.48 1.15.48zm8.978-4.61V78h-1.14v-.65c-.18.227-.417.407-.71.54a2.25 2.25 0 0 1-.92.19c-.434 0-.824-.09-1.17-.27a1.99 1.99 0 0 1-.81-.8c-.194-.353-.29-.78-.29-1.28v-3.24h1.13v3.07c0 .493.123.873.37 1.14.246.26.583.39 1.01.39.426 0 .763-.13 1.01-.39.253-.267.38-.647.38-1.14v-3.07h1.14zm4.284-.09c.433 0 .82.09 1.16.27.346.18.616.447.81.8.193.353.29.78.29 1.28V78h-1.13v-3.08c0-.493-.124-.87-.37-1.13-.247-.267-.584-.4-1.01-.4-.427 0-.767.133-1.02.4-.247.26-.37.637-.37 1.13V78h-1.14v-5.51h1.14v.63c.186-.227.423-.403.71-.53a2.32 2.32 0 0 1 .93-.19zm5.044 1.02v3.05c0 .207.047.357.14.45.1.087.267.13.5.13h.7V78h-.9c-.513 0-.907-.12-1.18-.36-.273-.24-.41-.63-.41-1.17v-3.05h-.65v-.93h.65v-1.37h1.15v1.37h1.34v.93h-1.34z" fill="#fff" fill-opacity=".3"/><path d="M25.44 303.02c0 .333-.083.647-.25.94-.16.293-.4.54-.72.74-.313.2-.687.32-1.12.36v.81h-.65v-.81c-.627-.06-1.133-.257-1.52-.59-.387-.333-.58-.773-.58-1.32h1.22c.02.26.103.477.25.65.147.167.357.273.63.32v-2.2a8.668 8.668 0 0 1-1.09-.34c-.28-.12-.52-.307-.72-.56-.193-.253-.29-.6-.29-1.04 0-.553.193-1.01.58-1.37.387-.367.893-.58 1.52-.64v-.81h.65v.81c.587.053 1.057.24 1.41.56.36.313.563.747.61 1.3h-1.22a.956.956 0 0 0-.24-.55 1.048 1.048 0 0 0-.56-.34v2.16c.447.107.81.22 1.09.34.28.113.517.297.71.55.193.247.29.59.29 1.03zm-3.68-3.1c0 .273.08.487.24.64.167.153.4.277.7.37v-2.02a1.126 1.126 0 0 0-.69.31c-.167.173-.25.407-.25.7zm1.59 4.2c.293-.047.523-.163.69-.35a1.02 1.02 0 0 0 .25-.69c0-.267-.083-.473-.25-.62-.16-.153-.39-.277-.69-.37v2.03zm3.604-5.37v-1.04h2.08V305h-1.15v-6.25h-.93zm13.064.65c.433 0 .82.09 1.16.27.346.18.616.447.81.8.2.353.3.78.3 1.28V305h-1.13v-3.08c0-.493-.124-.87-.37-1.13-.247-.267-.584-.4-1.01-.4-.427 0-.767.133-1.02.4-.247.26-.37.637-.37 1.13V305h-1.13v-3.08c0-.493-.124-.87-.37-1.13-.247-.267-.584-.4-1.01-.4-.427 0-.767.133-1.02.4-.247.26-.37.637-.37 1.13V305h-1.14v-5.51h1.14v.63c.186-.227.423-.403.71-.53.286-.127.593-.19.92-.19.44 0 .833.093 1.18.28.346.187.613.457.8.81.166-.333.426-.597.78-.79.353-.2.733-.3 1.14-.3zm4.3-.64a.706.706 0 0 1-.52-.21.706.706 0 0 1-.21-.52c0-.207.07-.38.21-.52.14-.14.314-.21.52-.21.2 0 .37.07.51.21.14.14.21.313.21.52 0 .207-.07.38-.21.52-.14.14-.31.21-.51.21zm.56.73V305h-1.14v-5.51h1.14zm4.277-.09c.433 0 .82.09 1.16.27.347.18.617.447.81.8.193.353.29.78.29 1.28V305h-1.13v-3.08c0-.493-.123-.87-.37-1.13-.247-.267-.583-.4-1.01-.4-.427 0-.767.133-1.02.4-.247.26-.37.637-.37 1.13V305h-1.14v-5.51h1.14v.63c.187-.227.423-.403.71-.53.293-.127.603-.19.93-.19zM190.44 303.02c0 .333-.083.647-.25.94-.16.293-.4.54-.72.74-.313.2-.687.32-1.12.36v.81h-.65v-.81c-.627-.06-1.133-.257-1.52-.59-.387-.333-.58-.773-.58-1.32h1.22c.02.26.103.477.25.65.147.167.357.273.63.32v-2.2a8.652 8.652 0 0 1-1.09-.34c-.28-.12-.52-.307-.72-.56-.193-.253-.29-.6-.29-1.04 0-.553.193-1.01.58-1.37.387-.367.893-.58 1.52-.64v-.81h.65v.81c.587.053 1.057.24 1.41.56.36.313.563.747.61 1.3h-1.22a.956.956 0 0 0-.24-.55 1.05 1.05 0 0 0-.56-.34v2.16c.447.107.81.22 1.09.34.28.113.517.297.71.55.193.247.29.59.29 1.03zm-3.68-3.1c0 .273.08.487.24.64.167.153.4.277.7.37v-2.02c-.287.033-.517.137-.69.31-.167.173-.25.407-.25.7zm1.59 4.2c.293-.047.523-.163.69-.35a1.02 1.02 0 0 0 .25-.69c0-.267-.083-.473-.25-.62-.16-.153-.39-.277-.69-.37v2.03zm3.604-5.37v-1.04h2.08V305h-1.15v-6.25h-.93zm5.046 4.88l-1.21 2.76h-.74l.71-2.76H197zm5.546-4.94h-3.35v1.99c.14-.187.347-.343.62-.47.28-.127.577-.19.89-.19.56 0 1.013.12 1.36.36.353.24.603.543.75.91.153.367.23.753.23 1.16 0 .493-.097.933-.29 1.32-.187.38-.47.68-.85.9-.373.22-.833.33-1.38.33-.727 0-1.31-.18-1.75-.54-.44-.36-.703-.837-.79-1.43h1.11c.073.313.237.563.49.75.253.18.57.27.95.27.473 0 .827-.143 1.06-.43.24-.287.36-.667.36-1.14 0-.48-.12-.847-.36-1.1-.24-.26-.593-.39-1.06-.39-.327 0-.603.083-.83.25-.22.16-.38.38-.48.66h-1.08v-4.21h4.4v1zm1.687 2.57c0-1.153.193-2.053.58-2.7.393-.653 1.066-.98 2.02-.98.953 0 1.623.327 2.01.98.393.647.59 1.547.59 2.7 0 1.167-.197 2.08-.59 2.74-.387.653-1.057.98-2.01.98-.954 0-1.627-.327-2.02-.98-.387-.66-.58-1.573-.58-2.74zm4.08 0c0-.54-.037-.997-.11-1.37-.067-.373-.207-.677-.42-.91-.214-.24-.53-.36-.95-.36-.42 0-.737.12-.95.36-.214.233-.357.537-.43.91-.067.373-.1.83-.1 1.37 0 .56.033 1.03.1 1.41.066.38.206.687.42.92.22.233.54.35.96.35.42 0 .736-.117.95-.35.22-.233.363-.54.43-.92.066-.38.1-.85.1-1.41zm2.326 0c0-1.153.193-2.053.58-2.7.393-.653 1.067-.98 2.02-.98.953 0 1.623.327 2.01.98.393.647.59 1.547.59 2.7 0 1.167-.197 2.08-.59 2.74-.387.653-1.057.98-2.01.98-.953 0-1.627-.327-2.02-.98-.387-.66-.58-1.573-.58-2.74zm4.08 0c0-.54-.037-.997-.11-1.37-.067-.373-.207-.677-.42-.91-.213-.24-.53-.36-.95-.36-.42 0-.737.12-.95.36-.213.233-.357.537-.43.91-.067.373-.1.83-.1 1.37 0 .56.033 1.03.1 1.41.067.38.207.687.42.92.22.233.54.35.96.35.42 0 .737-.117.95-.35.22-.233.363-.54.43-.92s.1-.85.1-1.41zm3.726 2.37l-1.21 2.76h-.74l.71-2.76h1.24zm.846-2.37c0-1.153.194-2.053.58-2.7.394-.653 1.067-.98 2.02-.98.954 0 1.624.327 2.01.98.394.647.59 1.547.59 2.7 0 1.167-.196 2.08-.59 2.74-.386.653-1.056.98-2.01.98-.953 0-1.626-.327-2.02-.98-.386-.66-.58-1.573-.58-2.74zm4.08 0c0-.54-.036-.997-.11-1.37-.066-.373-.206-.677-.42-.91-.213-.24-.53-.36-.95-.36-.42 0-.736.12-.95.36-.213.233-.356.537-.43.91-.066.373-.1.83-.1 1.37 0 .56.034 1.03.1 1.41.067.38.207.687.42.92.22.233.54.35.96.35.42 0 .737-.117.95-.35.22-.233.364-.54.43-.92.067-.38.1-.85.1-1.41zm2.327 0c0-1.153.193-2.053.58-2.7.393-.653 1.066-.98 2.02-.98.953 0 1.623.327 2.01.98.393.647.59 1.547.59 2.7 0 1.167-.197 2.08-.59 2.74-.387.653-1.057.98-2.01.98-.954 0-1.627-.327-2.02-.98-.387-.66-.58-1.573-.58-2.74zm4.08 0c0-.54-.037-.997-.11-1.37-.067-.373-.207-.677-.42-.91-.214-.24-.53-.36-.95-.36-.42 0-.737.12-.95.36-.214.233-.357.537-.43.91-.067.373-.1.83-.1 1.37 0 .56.033 1.03.1 1.41.066.38.206.687.42.92.22.233.54.35.96.35.42 0 .736-.117.95-.35.22-.233.363-.54.43-.92.066-.38.1-.85.1-1.41zm2.326 0c0-1.153.193-2.053.58-2.7.393-.653 1.067-.98 2.02-.98.953 0 1.623.327 2.01.98.393.647.59 1.547.59 2.7 0 1.167-.197 2.08-.59 2.74-.387.653-1.057.98-2.01.98-.953 0-1.627-.327-2.02-.98-.387-.66-.58-1.573-.58-2.74zm4.08 0c0-.54-.037-.997-.11-1.37-.067-.373-.207-.677-.42-.91-.213-.24-.53-.36-.95-.36-.42 0-.737.12-.95.36-.213.233-.357.537-.43.91-.067.373-.1.83-.1 1.37 0 .56.033 1.03.1 1.41.067.38.207.687.42.92.22.233.54.35.96.35.42 0 .737-.117.95-.35.22-.233.363-.54.43-.92s.1-.85.1-1.41zm11.744-1.86c.433 0 .82.09 1.16.27.346.18.616.447.81.8.2.353.3.78.3 1.28V305h-1.13v-3.08c0-.493-.124-.87-.37-1.13-.247-.267-.584-.4-1.01-.4-.427 0-.767.133-1.02.4-.247.26-.37.637-.37 1.13V305h-1.13v-3.08c0-.493-.124-.87-.37-1.13-.247-.267-.584-.4-1.01-.4-.427 0-.767.133-1.02.4-.247.26-.37.637-.37 1.13V305h-1.14v-5.51h1.14v.63c.186-.227.423-.403.71-.53.286-.127.593-.19.92-.19.44 0 .833.093 1.18.28.346.187.613.457.8.81.166-.333.426-.597.78-.79.353-.2.733-.3 1.14-.3zm3.34 2.82c0-.553.114-1.043.34-1.47a2.542 2.542 0 0 1 2.26-1.35c.434 0 .81.087 1.13.26.327.167.587.377.78.63v-.8h1.15V305h-1.15v-.82c-.193.26-.456.477-.79.65-.333.173-.713.26-1.14.26a2.45 2.45 0 0 1-1.3-.36 2.684 2.684 0 0 1-.94-1.02 3.215 3.215 0 0 1-.34-1.49zm4.51.02c0-.38-.08-.71-.24-.99a1.61 1.61 0 0 0-1.43-.86c-.293 0-.566.073-.82.22-.253.14-.46.35-.62.63-.153.273-.23.6-.23.98s.077.713.23 1c.16.287.367.507.62.66a1.643 1.643 0 0 0 1.64 0 1.61 1.61 0 0 0 .61-.64c.16-.287.24-.62.24-1zm5.008-.03l1.78 2.79h-1.29l-1.19-1.87-1.12 1.87h-1.19l1.78-2.71-1.78-2.8h1.29l1.19 1.87 1.12-1.87h1.19l-1.78 2.72z" fill="#fff" fill-opacity=".5"/><rect x="20" y="281" width="243" height="4" rx="2" fill="#fff" fill-opacity=".3"/><rect x="20" y="281" width="161" height="4" rx="2" fill="#fff"/><path d="M26.288 258.66v1.116h-2.22V267H22.7v-7.224h-2.232v-1.116h5.82zm4.253 8.448c-.624 0-1.188-.14-1.692-.42a3.113 3.113 0 0 1-1.188-1.2c-.288-.52-.432-1.12-.432-1.8 0-.672.148-1.268.444-1.788.296-.52.7-.92 1.212-1.2a3.517 3.517 0 0 1 1.716-.42c.632 0 1.204.14 1.716.42.512.28.916.68 1.212 1.2.296.52.444 1.116.444 1.788 0 .672-.152 1.268-.456 1.788-.304.52-.72.924-1.248 1.212-.52.28-1.096.42-1.728.42zm0-1.188c.352 0 .68-.084.984-.252.312-.168.564-.42.756-.756.192-.336.288-.744.288-1.224s-.092-.884-.276-1.212a1.855 1.855 0 0 0-.732-.756 2.002 2.002 0 0 0-.984-.252c-.352 0-.68.084-.984.252-.296.168-.532.42-.708.756-.176.328-.264.732-.264 1.212 0 .712.18 1.264.54 1.656.368.384.828.576 1.38.576zm6.38-4.416v3.66c0 .248.057.428.169.54.12.104.32.156.6.156h.84V267h-1.08c-.616 0-1.088-.144-1.416-.432-.328-.288-.492-.756-.492-1.404v-3.66h-.78v-1.116h.78v-1.644h1.38v1.644h1.608v1.116h-1.608zm2.414 2.16c0-.664.136-1.252.408-1.764a3.047 3.047 0 0 1 2.712-1.62c.52 0 .972.104 1.356.312.392.2.704.452.936.756v-.96h1.38V267h-1.38v-.984a2.717 2.717 0 0 1-.948.78c-.4.208-.856.312-1.368.312a2.938 2.938 0 0 1-1.56-.432 3.206 3.206 0 0 1-1.128-1.224c-.272-.528-.408-1.124-.408-1.788zm5.412.024c0-.456-.096-.852-.288-1.188a1.938 1.938 0 0 0-.732-.768 1.93 1.93 0 0 0-.984-.264c-.352 0-.68.088-.984.264-.304.168-.552.42-.744.756-.184.328-.276.72-.276 1.176 0 .456.092.856.276 1.2.192.344.44.608.744.792a1.974 1.974 0 0 0 1.968 0c.304-.176.548-.432.732-.768.192-.344.288-.744.288-1.2zm4.544-5.568V267h-1.368v-8.88h1.368zm10.746 3.024c0 .424-.1.824-.3 1.2-.2.376-.52.684-.96.924-.44.232-1.004.348-1.692.348h-1.512V267h-1.368v-8.34h2.88c.64 0 1.18.112 1.62.336.448.216.78.512.996.888.224.376.336.796.336 1.26zm-2.952 1.356c.52 0 .908-.116 1.164-.348.256-.24.384-.576.384-1.008 0-.912-.516-1.368-1.548-1.368h-1.512v2.724h1.512zm3.8 1.164c0-.664.136-1.252.408-1.764a3.047 3.047 0 0 1 2.712-1.62c.52 0 .972.104 1.356.312.392.2.704.452.936.756v-.96h1.38V267h-1.38v-.984a2.717 2.717 0 0 1-.948.78c-.4.208-.856.312-1.368.312a2.938 2.938 0 0 1-1.56-.432 3.206 3.206 0 0 1-1.128-1.224c-.272-.528-.408-1.124-.408-1.788zm5.412.024c0-.456-.096-.852-.288-1.188a1.938 1.938 0 0 0-.732-.768 1.93 1.93 0 0 0-.984-.264c-.352 0-.68.088-.984.264-.304.168-.552.42-.744.756-.184.328-.276.72-.276 1.176 0 .456.092.856.276 1.2.192.344.44.608.744.792a1.974 1.974 0 0 0 1.968 0c.304-.176.548-.432.732-.768.192-.344.288-.744.288-1.2zm9.13-3.3l-4.057 9.72h-1.416l1.344-3.216-2.604-6.504h1.524l1.86 5.04 1.932-5.04h1.416zm3.9 6.72c-.624 0-1.188-.14-1.692-.42a3.113 3.113 0 0 1-1.188-1.2c-.288-.52-.432-1.12-.432-1.8 0-.672.148-1.268.444-1.788.296-.52.7-.92 1.212-1.2a3.517 3.517 0 0 1 1.716-.42c.632 0 1.204.14 1.716.42.512.28.916.68 1.212 1.2.296.52.444 1.116.444 1.788 0 .672-.152 1.268-.456 1.788-.304.52-.72.924-1.248 1.212-.52.28-1.096.42-1.728.42zm0-1.188c.352 0 .68-.084.984-.252.312-.168.564-.42.756-.756.192-.336.288-.744.288-1.224s-.092-.884-.276-1.212a1.855 1.855 0 0 0-.732-.756 2.002 2.002 0 0 0-.984-.252c-.352 0-.68.084-.984.252-.296.168-.532.42-.708.756-.176.328-.264.732-.264 1.212 0 .712.18 1.264.54 1.656.368.384.828.576 1.38.576zm10.772-5.532V267H88.73v-.78c-.216.272-.5.488-.852.648a2.7 2.7 0 0 1-1.104.228c-.52 0-.988-.108-1.404-.324a2.388 2.388 0 0 1-.972-.96c-.232-.424-.348-.936-.348-1.536v-3.888h1.356v3.684c0 .592.148 1.048.444 1.368.296.312.7.468 1.212.468s.916-.156 1.212-.468c.304-.32.456-.776.456-1.368v-3.684h1.368zm3.4 1.116v3.66c0 .248.057.428.169.54.12.104.32.156.6.156h.84V267h-1.08c-.616 0-1.088-.144-1.416-.432-.328-.288-.492-.756-.492-1.404v-3.66h-.78v-1.116h.78v-1.644h1.38v1.644h1.608v1.116H93.5zM195.309 264.624c0 .4-.1.776-.3 1.128a2.41 2.41 0 0 1-.864.888c-.376.24-.824.384-1.344.432v.972h-.78v-.972c-.752-.072-1.36-.308-1.824-.708-.464-.4-.696-.928-.696-1.584h1.464c.024.312.124.572.3.78.176.2.428.328.756.384v-2.64a10.404 10.404 0 0 1-1.308-.408 2.19 2.19 0 0 1-.864-.672c-.232-.304-.348-.72-.348-1.248 0-.664.232-1.212.696-1.644.464-.44 1.072-.696 1.824-.768v-.972h.78v.972c.704.064 1.268.288 1.692.672.432.376.676.896.732 1.56h-1.464a1.149 1.149 0 0 0-.288-.66 1.26 1.26 0 0 0-.672-.408v2.592a8.29 8.29 0 0 1 1.308.408c.336.136.62.356.852.66.232.296.348.708.348 1.236zm-4.416-3.72c0 .328.096.584.288.768.2.184.48.332.84.444v-2.424c-.344.04-.62.164-.828.372-.2.208-.3.488-.3.84zm1.908 5.04c.352-.056.628-.196.828-.42.2-.232.3-.508.3-.828 0-.32-.1-.568-.3-.744-.192-.184-.468-.332-.828-.444v2.436zm7.454-.768v-1.032l4.032-5.784h1.656v5.628h1.116v1.188h-1.116V267h-1.344v-1.824h-4.344zm4.404-5.424l-2.832 4.236h2.832v-4.236zm4.29 5.388a47.403 47.403 0 0 0 1.812-1.632c.448-.432.82-.88 1.116-1.344.296-.464.444-.928.444-1.392 0-.48-.116-.856-.348-1.128-.224-.272-.58-.408-1.068-.408-.472 0-.84.152-1.104.456-.256.296-.392.696-.408 1.2h-1.32c.024-.912.296-1.608.816-2.088.528-.488 1.196-.732 2.004-.732.872 0 1.552.24 2.04.72.496.48.744 1.12.744 1.92 0 .576-.148 1.132-.444 1.668a6.62 6.62 0 0 1-1.044 1.428c-.4.416-.912.9-1.536 1.452l-.54.48h3.804v1.14h-5.832v-.996l.864-.744zm6.169-2.628c0-1.384.232-2.464.696-3.24.472-.784 1.28-1.176 2.424-1.176s1.948.392 2.412 1.176c.472.776.708 1.856.708 3.24 0 1.4-.236 2.496-.708 3.288-.464.784-1.268 1.176-2.412 1.176s-1.952-.392-2.424-1.176c-.464-.792-.696-1.888-.696-3.288zm4.896 0c0-.648-.044-1.196-.132-1.644-.08-.448-.248-.812-.504-1.092-.256-.288-.636-.432-1.14-.432-.504 0-.884.144-1.14.432-.256.28-.428.644-.516 1.092-.08.448-.12.996-.12 1.644 0 .672.04 1.236.12 1.692.08.456.248.824.504 1.104.264.28.648.42 1.152.42.504 0 .884-.14 1.14-.42.264-.28.436-.648.516-1.104.08-.456.12-1.02.12-1.692zm11.453-3.204L228.131 267h-1.38l3.372-7.548h-4.44v-1.164h5.784v1.02zm1.171 3.204c0-1.384.232-2.464.696-3.24.472-.784 1.28-1.176 2.424-1.176s1.948.392 2.412 1.176c.472.776.708 1.856.708 3.24 0 1.4-.236 2.496-.708 3.288-.464.784-1.268 1.176-2.412 1.176s-1.952-.392-2.424-1.176c-.464-.792-.696-1.888-.696-3.288zm4.896 0c0-.648-.044-1.196-.132-1.644-.08-.448-.248-.812-.504-1.092-.256-.288-.636-.432-1.14-.432-.504 0-.884.144-1.14.432-.256.28-.428.644-.516 1.092-.08.448-.12.996-.12 1.644 0 .672.04 1.236.12 1.692.08.456.248.824.504 1.104.264.28.648.42 1.152.42.504 0 .884-.14 1.14-.42.264-.28.436-.648.516-1.104.08-.456.12-1.02.12-1.692zm2.791 0c0-1.384.232-2.464.696-3.24.472-.784 1.28-1.176 2.424-1.176s1.948.392 2.412 1.176c.472.776.708 1.856.708 3.24 0 1.4-.236 2.496-.708 3.288-.464.784-1.268 1.176-2.412 1.176s-1.952-.392-2.424-1.176c-.464-.792-.696-1.888-.696-3.288zm4.896 0c0-.648-.044-1.196-.132-1.644-.08-.448-.248-.812-.504-1.092-.256-.288-.636-.432-1.14-.432-.504 0-.884.144-1.14.432-.256.28-.428.644-.516 1.092-.08.448-.12.996-.12 1.644 0 .672.04 1.236.12 1.692.08.456.248.824.504 1.104.264.28.648.42 1.152.42.504 0 .884-.14 1.14-.42.264-.28.436-.648.516-1.104.08-.456.12-1.02.12-1.692zm3.524 4.572a.847.847 0 0 1-.624-.252.847.847 0 0 1-.252-.624c0-.248.084-.456.252-.624a.847.847 0 0 1 .624-.252c.24 0 .444.084.612.252a.847.847 0 0 1 .252.624.847.847 0 0 1-.252.624.833.833 0 0 1-.612.252zm2.043-3.824c0-1.153.193-2.053.58-2.7.393-.653 1.066-.98 2.02-.98.953 0 1.623.327 2.01.98.393.647.59 1.547.59 2.7 0 1.167-.197 2.08-.59 2.74-.387.653-1.057.98-2.01.98-.954 0-1.627-.327-2.02-.98-.387-.66-.58-1.573-.58-2.74zm4.08 0c0-.54-.037-.997-.11-1.37-.067-.373-.207-.677-.42-.91-.214-.24-.53-.36-.95-.36-.42 0-.737.12-.95.36-.214.233-.357.537-.43.91-.067.373-.1.83-.1 1.37 0 .56.033 1.03.1 1.41.066.38.206.687.42.92.22.233.54.35.96.35.42 0 .736-.117.95-.35.22-.233.363-.54.43-.92.066-.38.1-.85.1-1.41zm2.326 0c0-1.153.193-2.053.58-2.7.393-.653 1.066-.98 2.02-.98.953 0 1.623.327 2.01.98.393.647.59 1.547.59 2.7 0 1.167-.197 2.08-.59 2.74-.387.653-1.057.98-2.01.98-.954 0-1.627-.327-2.02-.98-.387-.66-.58-1.573-.58-2.74zm4.08 0c0-.54-.037-.997-.11-1.37-.067-.373-.207-.677-.42-.91-.214-.24-.53-.36-.95-.36-.42 0-.737.12-.95.36-.214.233-.357.537-.43.91-.067.373-.1.83-.1 1.37 0 .56.033 1.03.1 1.41.066.38.206.687.42.92.22.233.54.35.96.35.42 0 .736-.117.95-.35.22-.233.363-.54.43-.92.066-.38.1-.85.1-1.41z" fill="#fff"/><rect x="20" y="328" width="243" height="41" rx="3" fill="#fff"/><path d="M99.25 346.174c0 .448-.108.868-.324 1.26-.208.392-.54.708-.996.948-.448.24-1.016.36-1.704.36h-1.404v3.216h-1.68v-8.376h3.084c.648 0 1.2.112 1.656.336.456.224.796.532 1.02.924.232.392.348.836.348 1.332zm-3.096 1.212c.464 0 .808-.104 1.032-.312.224-.216.336-.516.336-.9 0-.816-.456-1.224-1.368-1.224h-1.332v2.436h1.332zm9.74 2.976h-3.336l-.552 1.596h-1.764l3.012-8.388h1.956l3.012 8.388h-1.776l-.552-1.596zm-.456-1.344l-1.212-3.504-1.212 3.504h2.424zm10.884-5.436l-2.832 5.46v2.916h-1.68v-2.916l-2.844-5.46h1.896l1.8 3.828 1.788-3.828h1.872zm5.171 8.46a4.34 4.34 0 0 1-2.16-.552 4.135 4.135 0 0 1-1.56-1.524c-.384-.656-.576-1.396-.576-2.22 0-.816.192-1.548.576-2.196a4.108 4.108 0 0 1 1.56-1.536 4.34 4.34 0 0 1 2.16-.552c.792 0 1.512.184 2.16.552.656.368 1.172.88 1.548 1.536.384.648.576 1.38.576 2.196 0 .824-.192 1.564-.576 2.22a4.047 4.047 0 0 1-1.548 1.524 4.34 4.34 0 0 1-2.16.552zm0-1.5c.504 0 .948-.112 1.332-.336.384-.232.684-.56.9-.984.216-.424.324-.916.324-1.476 0-.56-.108-1.048-.324-1.464a2.305 2.305 0 0 0-.9-.972c-.384-.224-.828-.336-1.332-.336a2.66 2.66 0 0 0-1.344.336 2.305 2.305 0 0 0-.9.972c-.216.416-.324.904-.324 1.464 0 .56.108 1.052.324 1.476.216.424.516.752.9.984.392.224.84.336 1.344.336zm7.505-6.96v5.184c0 .568.148 1.004.444 1.308.296.296.712.444 1.248.444.544 0 .964-.148 1.26-.444.296-.304.444-.74.444-1.308v-5.184h1.692v5.172c0 .712-.156 1.316-.468 1.812a2.896 2.896 0 0 1-1.236 1.104 3.885 3.885 0 0 1-1.716.372 3.857 3.857 0 0 1-1.704-.372 2.851 2.851 0 0 1-1.2-1.104c-.296-.496-.444-1.1-.444-1.812v-5.172h1.68zm12.726 0v1.356h-2.232v7.02h-1.68v-7.02h-2.232v-1.356h6.144zm4.306 4.176c0-.824.184-1.56.552-2.208a3.984 3.984 0 0 1 1.524-1.524c.648-.368 1.372-.552 2.172-.552.936 0 1.756.24 2.46.72s1.196 1.144 1.476 1.992h-1.932c-.192-.4-.464-.7-.816-.9-.344-.2-.744-.3-1.2-.3a2.48 2.48 0 0 0-1.308.348 2.346 2.346 0 0 0-.888.96c-.208.416-.312.904-.312 1.464 0 .552.104 1.04.312 1.464.216.416.512.74.888.972.384.224.82.336 1.308.336.456 0 .856-.1 1.2-.3.352-.208.624-.512.816-.912h1.932c-.28.856-.772 1.524-1.476 2.004-.696.472-1.516.708-2.46.708-.8 0-1.524-.18-2.172-.54a4.097 4.097 0 0 1-1.524-1.524c-.368-.648-.552-1.384-.552-2.208zm13.821 4.284a4.34 4.34 0 0 1-2.16-.552 4.135 4.135 0 0 1-1.56-1.524c-.384-.656-.576-1.396-.576-2.22 0-.816.192-1.548.576-2.196a4.108 4.108 0 0 1 1.56-1.536 4.34 4.34 0 0 1 2.16-.552c.792 0 1.512.184 2.16.552.656.368 1.172.88 1.548 1.536.384.648.576 1.38.576 2.196 0 .824-.192 1.564-.576 2.22a4.047 4.047 0 0 1-1.548 1.524 4.34 4.34 0 0 1-2.16.552zm0-1.5c.504 0 .948-.112 1.332-.336.384-.232.684-.56.9-.984.216-.424.324-.916.324-1.476 0-.56-.108-1.048-.324-1.464a2.305 2.305 0 0 0-.9-.972c-.384-.224-.828-.336-1.332-.336a2.66 2.66 0 0 0-1.344.336 2.305 2.305 0 0 0-.9.972c-.216.416-.324.904-.324 1.464 0 .56.108 1.052.324 1.476.216.424.516.752.9.984.392.224.84.336 1.344.336zm14.981-6.96v8.376h-1.68v-5.448l-2.244 5.448h-1.272l-2.256-5.448v5.448h-1.68v-8.376h1.908l2.664 6.228 2.664-6.228h1.896zm8.083 2.592c0 .448-.108.868-.324 1.26-.208.392-.54.708-.996.948-.448.24-1.016.36-1.704.36h-1.404v3.216h-1.68v-8.376h3.084c.648 0 1.2.112 1.656.336.456.224.796.532 1.02.924.232.392.348.836.348 1.332zm-3.096 1.212c.464 0 .808-.104 1.032-.312.224-.216.336-.516.336-.9 0-.816-.456-1.224-1.368-1.224h-1.332v2.436h1.332zm6.284 3.24h2.76v1.332h-4.44v-8.376h1.68v7.044zm5.822-5.688v2.1h2.82v1.332h-2.82v2.22h3.18v1.368h-4.86v-8.388h4.86v1.368h-3.18zm10.721-1.356v1.356h-2.232v7.02h-1.68v-7.02h-2.232v-1.356h6.144zm3.221 1.356v2.1h2.82v1.332h-2.82v2.22h3.18v1.368h-4.86v-8.388h4.86v1.368h-3.18z" fill="url(#c)"/><path d="M70 346l4.5 5.5 9-8.5" stroke="url(#d)" stroke-width="2"/><path d="M223.045 202.66V211h-1.368v-8.34h1.368zm5.132 1.62c.52 0 .984.108 1.392.324.416.216.74.536.972.96.232.424.348.936.348 1.536v3.9h-1.356v-3.696c0-.592-.148-1.044-.444-1.356-.296-.32-.7-.48-1.212-.48s-.92.16-1.224.48c-.296.312-.444.764-.444 1.356V211h-1.368v-6.612h1.368v.756c.224-.272.508-.484.852-.636a2.785 2.785 0 0 1 1.116-.228zm6.857 6.828c-.52 0-.988-.092-1.404-.276a2.536 2.536 0 0 1-.972-.768 1.943 1.943 0 0 1-.384-1.092h1.416a.99.99 0 0 0 .396.708c.248.184.556.276.924.276.384 0 .68-.072.888-.216.216-.152.324-.344.324-.576 0-.248-.12-.432-.36-.552-.232-.12-.604-.252-1.116-.396a10.83 10.83 0 0 1-1.212-.396 2.176 2.176 0 0 1-.816-.588c-.224-.264-.336-.612-.336-1.044 0-.352.104-.672.312-.96.208-.296.504-.528.888-.696.392-.168.84-.252 1.344-.252.752 0 1.356.192 1.812.576.464.376.712.892.744 1.548h-1.368a.974.974 0 0 0-.36-.708c-.216-.176-.508-.264-.876-.264-.36 0-.636.068-.828.204a.632.632 0 0 0-.288.54c0 .176.064.324.192.444s.284.216.468.288c.184.064.456.148.816.252.48.128.872.26 1.176.396.312.128.58.32.804.576.224.256.34.596.348 1.02 0 .376-.104.712-.312 1.008-.208.296-.504.528-.888.696-.376.168-.82.252-1.332.252zm5.607-5.604v3.66c0 .248.056.428.168.54.12.104.32.156.6.156h.84V211h-1.08c-.616 0-1.088-.144-1.416-.432-.328-.288-.492-.756-.492-1.404v-3.66h-.78v-1.116h.78v-1.644h1.38v1.644h1.608v1.116h-1.608zm2.412 2.16c0-.664.136-1.252.408-1.764a3.047 3.047 0 0 1 2.712-1.62c.52 0 .972.104 1.356.312.392.2.704.452.936.756v-.96h1.38V211h-1.38v-.984a2.717 2.717 0 0 1-.948.78c-.4.208-.856.312-1.368.312a2.938 2.938 0 0 1-1.56-.432 3.206 3.206 0 0 1-1.128-1.224c-.272-.528-.408-1.124-.408-1.788zm5.412.024c0-.456-.096-.852-.288-1.188a1.938 1.938 0 0 0-.732-.768 1.93 1.93 0 0 0-.984-.264c-.352 0-.68.088-.984.264-.304.168-.552.42-.744.756-.184.328-.276.72-.276 1.176 0 .456.092.856.276 1.2.192.344.44.608.744.792a1.974 1.974 0 0 0 1.968 0c.304-.176.548-.432.732-.768.192-.344.288-.744.288-1.2zm6.513-3.408c.52 0 .984.108 1.392.324.416.216.74.536.972.96.232.424.348.936.348 1.536v3.9h-1.356v-3.696c0-.592-.148-1.044-.444-1.356-.296-.32-.7-.48-1.212-.48s-.92.16-1.224.48c-.296.312-.444.764-.444 1.356V211h-1.368v-6.612h1.368v.756c.224-.272.508-.484.852-.636a2.785 2.785 0 0 1 1.116-.228zm6.053 1.224v3.66c0 .248.056.428.168.54.12.104.32.156.6.156h.84V211h-1.08c-.616 0-1.088-.144-1.416-.432-.328-.288-.492-.756-.492-1.404v-3.66h-.78v-1.116h.78v-1.644h1.38v1.644h1.608v1.116h-1.608z" fill="#fff"/><defs><filter id="a" x="-50" y="-50" width="383" height="483" filterUnits="userSpaceOnUse" color-interpolation-filters="sRGB"><feFlood flood-opacity="0" result="BackgroundImageFix"/><feGaussianBlur in="BackgroundImage" stdDeviation="25"/><feComposite in2="SourceAlpha" operator="in" result="effect1_backgroundBlur_56:1249"/><feBlend in="SourceGraphic" in2="effect1_backgroundBlur_56:1249" result="shape"/></filter><linearGradient id="b" y1="191.5" x2="283" y2="191.5" gradientUnits="userSpaceOnUse"><stop stop-color="#73C592"/><stop offset="1" stop-color="#428EB4"/></linearGradient><linearGradient id="c" x1="92.03" y1="347.958" x2="210.03" y2="347.958" gradientUnits="userSpaceOnUse"><stop stop-color="#73C592"/><stop offset="1" stop-color="#428EB4"/></linearGradient><linearGradient id="d" x1="70" y1="347.25" x2="83.5" y2="347.25" gradientUnits="userSpaceOnUse"><stop stop-color="#73C592"/><stop offset="1" stop-color="#428EB4"/></linearGradient></defs></svg>