<svg width="81" height="18" viewBox="0 0 81 18" fill="none" xmlns="http://www.w3.org/2000/svg"><path d="M5.5 17.24c-1.547 0-2.7-.407-3.46-1.22-.747-.827-1.147-2.133-1.2-3.92l3.06-.46c.013 1.027.133 1.767.36 2.22.24.44.593.66 1.06.66.6 0 .9-.393.9-1.18 0-.627-.147-1.167-.44-1.62-.28-.453-.727-.94-1.34-1.46l-1.4-1.22c-.693-.587-1.233-1.207-1.62-1.86-.373-.667-.56-1.453-.56-2.36 0-1.36.4-2.407 1.2-3.14C2.873.947 3.987.58 5.4.58c1.533 0 2.573.447 3.12 1.34.56.893.86 1.98.9 3.26l-3.08.38c-.027-.84-.107-1.44-.24-1.8-.12-.373-.393-.56-.82-.56a.815.815 0 0 0-.72.4c-.16.253-.24.54-.24.86 0 .547.12 1.007.36 1.38.253.373.653.8 1.2 1.28L7.22 8.3c.8.68 1.42 1.4 1.86 2.16.44.76.66 1.66.66 2.7 0 .76-.18 1.453-.54 2.08-.347.613-.84 1.1-1.48 1.46-.64.36-1.38.54-2.22.54zm9.25-.04c-1.267 0-2.254-.333-2.96-1-.707-.68-1.06-1.633-1.06-2.86V9.1c0-1.227.353-2.173 1.06-2.84.707-.68 1.693-1.02 2.96-1.02 1.28 0 2.24.327 2.88.98.64.653.96 1.613.96 2.88v2.32h-4.64v2.22c0 .827.267 1.24.8 1.24.56 0 .84-.373.84-1.12v-1.22h3v1.12c0 1.16-.34 2.04-1.02 2.64-.667.6-1.607.9-2.82.9zm.84-7.3V8.74c0-.427-.08-.727-.24-.9-.147-.187-.354-.28-.62-.28-.254 0-.447.1-.58.3-.133.2-.2.553-.2 1.06v.98h1.64zM20.18.8h3.24V17h-3.24V.8zm5.165 0h3.24V17h-3.24V.8zm8.805 16.4c-1.267 0-2.253-.333-2.96-1-.707-.68-1.06-1.633-1.06-2.86V9.1c0-1.227.354-2.173 1.06-2.84.707-.68 1.693-1.02 2.96-1.02 1.28 0 2.24.327 2.88.98.64.653.96 1.613.96 2.88v2.32h-4.64v2.22c0 .827.267 1.24.8 1.24.56 0 .84-.373.84-1.12v-1.22h3v1.12c0 1.16-.34 2.04-1.02 2.64-.666.6-1.606.9-2.82.9zm.84-7.3V8.74c0-.427-.08-.727-.24-.9-.147-.187-.353-.28-.62-.28-.253 0-.447.1-.58.3-.133.2-.2.553-.2 1.06v.98h1.64zm4.491-4.46h3.26v1.92c.4-.707.787-1.227 1.16-1.56.373-.333.813-.5 1.32-.5.187 0 .353.02.5.06V8.6c-.4-.16-.753-.24-1.06-.24-.707 0-1.347.373-1.92 1.12V17h-3.26V5.44z" fill="#42CFA6"/><path d="M47.194 7.64h-1.1v-2.2h1.1v-.86c0-.773.073-1.393.22-1.86.146-.48.446-.853.9-1.12.466-.267 1.146-.4 2.04-.4.56 0 1.08.033 1.56.1v2.42a3.346 3.346 0 0 0-.7-.1c-.507 0-.76.3-.76.9v.92h1.46v2.2h-1.46V17h-3.26V7.64zm7.702 9.56c-.693 0-1.226-.247-1.6-.74-.373-.507-.56-1.16-.56-1.96V5.44h3.26v8.68c0 .293.054.513.16.66.107.147.28.22.52.22.214 0 .534-.12.96-.36v-9.2h3.24V17h-3.24v-1.06c-.906.84-1.82 1.26-2.74 1.26zm7.715-11.76h3.26V6.6c.907-.907 1.833-1.36 2.78-1.36.693 0 1.22.253 1.58.76.373.493.56 1.14.56 1.94V17h-3.24V8.4c0-.293-.053-.507-.16-.64-.093-.147-.26-.22-.5-.22-.267 0-.607.14-1.02.42V17h-3.26V5.44zM74.924 17.2c-.867 0-1.533-.3-2-.9-.453-.6-.68-1.487-.68-2.66V8.86c0-1.107.227-1.987.68-2.64.467-.653 1.133-.98 2-.98.813 0 1.573.307 2.28.92V.8h3.26V17h-3.26v-.9c-.76.733-1.52 1.1-2.28 1.1zm1.42-2.08c.253 0 .54-.1.86-.3v-7.3c-.32-.173-.6-.26-.84-.26-.28 0-.493.12-.64.36-.133.227-.2.527-.2.9v5.32c0 .387.067.7.2.94.133.227.34.34.62.34z" fill="#fff"/></svg>