<svg width="118" height="16" viewBox="0 0 118 16" fill="none" xmlns="http://www.w3.org/2000/svg"><path d="M6.32 15.14c-1.027 0-1.947-.167-2.76-.5-.813-.333-1.467-.827-1.96-1.48-.48-.653-.733-1.44-.76-2.36h3.64c.053.52.233.92.54 1.2.307.267.707.4 1.2.4.507 0 .907-.113 1.2-.34.293-.24.44-.567.44-.98 0-.347-.12-.633-.36-.86a2.67 2.67 0 0 0-.86-.56 12.996 12.996 0 0 0-1.44-.5c-.907-.28-1.647-.56-2.22-.84A4.102 4.102 0 0 1 1.5 7.08C1.087 6.533.88 5.82.88 4.94c0-1.307.473-2.327 1.42-3.06C3.247 1.133 4.48.76 6 .76c1.547 0 2.793.373 3.74 1.12.947.733 1.453 1.76 1.52 3.08h-3.7c-.027-.453-.193-.807-.5-1.06-.307-.267-.7-.4-1.18-.4-.413 0-.747.113-1 .34-.253.213-.38.527-.38.94 0 .453.213.807.64 1.06.427.253 1.093.527 2 .82.907.307 1.64.6 2.2.88a4.18 4.18 0 0 1 1.48 1.22c.413.533.62 1.22.62 2.06 0 .8-.207 1.527-.62 2.18-.4.653-.987 1.173-1.76 1.56s-1.687.58-2.74.58zM16.641 3.7v2.84h4.58v2.64h-4.58v3.08h5.18V15h-8.6V.96h8.6V3.7h-5.18zm10.497 8.66h4.48V15h-7.9V.96h3.42v11.4zm9.207 0h4.48V15h-7.9V.96h3.42v11.4zm9.208-8.66v2.84h4.58v2.64h-4.58v3.08h5.18V15h-8.6V.96h8.6V3.7h-5.18zM59.79 15l-2.92-5.3h-.82V15h-3.42V.96h5.74c1.107 0 2.047.193 2.82.58.787.387 1.373.92 1.76 1.6.386.667.58 1.413.58 2.24 0 .933-.267 1.767-.8 2.5-.52.733-1.293 1.253-2.32 1.56L63.65 15h-3.86zm-3.74-7.72h2.12c.627 0 1.093-.153 1.4-.46.32-.307.48-.74.48-1.3 0-.533-.16-.953-.48-1.26-.307-.307-.773-.46-1.4-.46h-2.12v3.48z" fill="url(#a)"/><path d="M75.75 1.1v1.86h-5.9v4.1h4.6v1.86h-4.6V15h-2.28V1.1h8.18zm4.05 0v8.86c0 1.053.273 1.847.82 2.38.56.533 1.333.8 2.32.8 1 0 1.773-.267 2.32-.8.56-.533.84-1.327.84-2.38V1.1h2.28v8.82c0 1.133-.247 2.093-.74 2.88a4.592 4.592 0 0 1-1.98 1.76c-.827.387-1.74.58-2.74.58-1 0-1.913-.193-2.74-.58a4.494 4.494 0 0 1-1.94-1.76c-.48-.787-.72-1.747-.72-2.88V1.1h2.28zM102.445 15h-2.28l-6.86-10.38V15h-2.28V1.08h2.28l6.86 10.36V1.08h2.28V15zm7.21-13.9c1.48 0 2.774.287 3.88.86a5.93 5.93 0 0 1 2.58 2.44c.614 1.053.92 2.287.92 3.7 0 1.413-.306 2.64-.92 3.68-.6 1.04-1.46 1.84-2.58 2.4-1.106.547-2.4.82-3.88.82h-4.54V1.1h4.54zm0 12.04c1.627 0 2.874-.44 3.74-1.32.867-.88 1.3-2.12 1.3-3.72 0-1.613-.433-2.873-1.3-3.78-.866-.907-2.113-1.36-3.74-1.36h-2.26v10.18h2.26z" fill="#fff"/><defs><linearGradient id="a" y1="8" x2="118" y2="8" gradientUnits="userSpaceOnUse"><stop stop-color="#73C592"/><stop offset="1" stop-color="#428EB4"/></linearGradient></defs></svg>