<svg width="392" height="392" viewBox="0 0 392 392" fill="none" xmlns="http://www.w3.org/2000/svg"><path opacity=".5" fill-rule="evenodd" clip-rule="evenodd" d="M196 0C87.894 0 0 87.894 0 196s87.894 196 196 196 196-87.894 196-196S304.106 0 196 0zm0 23.981c95.146 0 172.019 76.873 172.019 172.019 0 43.646-16.204 83.422-42.901 113.721-8.191-8.193-16.384-16.384-24.576-24.577 8.594-1.89 15.083-9.563 15.083-18.706v-44.875c8.274-3.848 12.885-13.236 10.446-22.339l-10.446-38.987v-6.355c0-5.048-2-9.643-5.215-13.075l-13.475-50.302c-2.219-8.28-9.605-13.862-17.763-14.198a19.039 19.039 0 0 0-5.716.647l-142.832 38.273c-16.115-16.115-32.229-32.231-48.345-48.345 30.299-26.697 70.075-42.9 113.721-42.9zM66.882 82.28l39.455 39.455-26.848 7.189c-10.19 2.73-16.282 13.289-13.552 23.479l10.532 39.31v74.726c0 10.549 8.625 19.174 19.175 19.174h174.571l39.506 39.506c-30.299 26.697-70.075 42.901-113.721 42.901-95.146 0-172.019-76.873-172.019-172.019 0-43.646 16.204-83.422 42.9-113.72zm210.912 2.135c5.171-.334 9.903 2.955 11.306 8.193l.664 2.475-141.394 37.89-11.127-11.127L275.557 84.78c.748-.2 1.499-.318 2.237-.366zm19.558 38.979l3.147 11.757a18.978 18.978 0 0 0-4.049-.443h-41.327l42.229-11.314zm-184.397 4.96l6.355 6.354H95.644c-9.99 0-18.24 7.731-19.09 17.508l-2.118.57-.664-2.484c-1.604-5.986 1.833-11.94 7.818-13.543l31.365-8.405zm-17.311 14.47h31.782l99.199 99.2-26.091.221c-5.876-.017-5.799 8.836.077 8.719l34.657-.297 26.831 26.831H95.644c-6.197 0-11.06-4.863-11.06-11.059V153.882c0-6.197 4.863-11.059 11.06-11.059zm62.577 0H296.45c6.197 0 11.059 4.862 11.059 11.059v112.556c0 6.196-4.862 11.059-11.059 11.059h-3.556l-27.095-27.095 23.412-.204c5.876.017 5.798-8.828-.077-8.711l-31.978.272c-32.977-32.979-65.956-65.958-98.935-98.936zm98.17 8.66c-11.403 0-20.698 9.303-20.698 20.706 0 11.403 9.295 20.697 20.698 20.697a20.54 20.54 0 0 0 10.633-2.977c3.113 1.876 6.739 2.977 10.626 2.977 11.402 0 20.706-9.294 20.706-20.697 0-11.403-9.304-20.706-20.706-20.706-3.887 0-7.513 1.102-10.626 2.978-3.112-1.876-6.747-2.978-10.633-2.978zm0 5.317c2.195 0 4.274.465 6.159 1.285-3.463 3.703-5.606 8.654-5.606 14.104 0 5.45 2.143 10.401 5.606 14.105a15.41 15.41 0 0 1-6.159 1.284 15.348 15.348 0 0 1-15.389-15.389 15.348 15.348 0 0 1 15.389-15.389zm21.259 0c8.53 0 15.389 6.858 15.389 15.389a15.349 15.349 0 0 1-15.389 15.389 15.348 15.348 0 0 1-15.389-15.389A15.348 15.348 0 0 1 277.65 156.8zM94.385 182.142a2.784 2.784 0 0 0-2.697 2.059h13.364c2.153 0 3.913 1.769 3.913 3.922v2.416a3.924 3.924 0 0 1-3.913 3.913h-3.913c.456.639.732 1.412.732 2.254v2.425a3.914 3.914 0 0 1-1.455 3.045 3.89 3.89 0 0 1 1.565 3.114v2.424c0 .842-.275 1.623-.731 2.263h3.802a3.923 3.923 0 0 1 3.913 3.913v2.425a3.916 3.916 0 0 1-3.913 3.904H91.688a2.791 2.791 0 0 0 2.697 2.067h34.546a2.79 2.79 0 0 0 2.697-2.067h-13.364c-2.153 0-3.922-1.751-3.922-3.904v-2.425c0-2.153 1.769-3.913 3.922-3.913h3.802a3.893 3.893 0 0 1-.731-2.263v-2.424a3.89 3.89 0 0 1 1.565-3.114 3.914 3.914 0 0 1-1.455-3.045v-2.425c0-.842.267-1.615.723-2.254h-3.904c-2.153 0-3.922-1.761-3.922-3.913v-2.416a3.939 3.939 0 0 1 3.922-3.922h13.364a2.784 2.784 0 0 0-2.697-2.059H94.384zm-2.8 3.726v6.916h13.467a2.22 2.22 0 0 0 2.246-2.245v-2.416a2.228 2.228 0 0 0-2.246-2.255H91.586zm26.679 0a2.235 2.235 0 0 0-2.255 2.255v2.416c0 1.261.994 2.245 2.255 2.245h13.458v-6.916h-13.458zm197.361 5.691l2.611 9.766c1.044 3.896-.071 7.759-2.611 10.438v-20.204zm-224.04 2.901v6.916h6.424a2.222 2.222 0 0 0 2.194-2.245v-2.425a2.22 2.22 0 0 0-2.246-2.246h-6.371zm33.765 0a2.22 2.22 0 0 0-2.246 2.246v2.425c0 1.242.96 2.217 2.195 2.245h6.423v-6.916h-6.372zm-17.593.434h7.801c1.878 0 3.42 1.534 3.42 3.411v7.81a3.435 3.435 0 0 1-3.42 3.42h-7.801a3.434 3.434 0 0 1-3.419-3.42v-7.81c0-1.877 1.542-3.411 3.419-3.411zm0 1.787c-.92 0-1.641.704-1.641 1.624v7.81c0 .92.721 1.633 1.641 1.633h7.801c.92 0 1.634-.713 1.634-1.633v-7.81c0-.92-.714-1.624-1.634-1.624h-7.801zm-16.171 6.363v6.916h6.474a2.227 2.227 0 0 0 2.254-2.246v-2.424a2.227 2.227 0 0 0-2.254-2.246h-6.474zm33.662 0a2.22 2.22 0 0 0-2.246 2.246v2.424c0 1.261.985 2.254 2.246 2.254h6.474v-6.924h-6.474zm-33.662 8.592v6.924h13.466a2.22 2.22 0 0 0 2.246-2.245v-2.425a2.227 2.227 0 0 0-2.246-2.254H91.586zm26.678 0a2.234 2.234 0 0 0-2.255 2.254v2.425c0 1.261.994 2.245 2.255 2.245h13.458v-6.924h-13.458zm61.147 30.004l-52.53.442c-5.876-.017-5.807 8.836.068 8.72l52.539-.451c5.877.017 5.799-8.828-.077-8.711zm-26.295 15.976a1.451 1.451 0 0 0-1.276.748l-5.104 8.839c-1.076 1.704 1.572 3.238 2.51 1.455l5.113-8.839c.58-.965-.116-2.197-1.243-2.203zm-11.654 3.011l-16.095.23c-3.873.057-3.788 5.868.085 5.81l16.095-.229c3.872-.058 3.787-5.868-.085-5.811zm34.861 0l-16.095.23c-3.872.057-3.787 5.868.085 5.81l16.096-.229c3.872-.058 3.787-5.868-.086-5.811z" fill="#fff"/></svg>