<svg width="240" height="94" viewBox="0 0 240 94" fill="none" xmlns="http://www.w3.org/2000/svg"><path fill-rule="evenodd" clip-rule="evenodd" d="M240 50.707v21.615h-8.651V53.65c0-4.94-2.287-7.602-6.264-7.602-3.712 0-6.794 2.522-6.794 7.672v18.602h-8.651V38.376h8.419v3.994c2.287-3.609 5.767-4.905 9.445-4.905 7.293 0 12.496 5.36 12.496 13.242zM8.65 34.277c0-3.188 1.26-4.764 3.778-4.764 3.03 0 6.243.999 6.243.999v-8.023C16.719 21.59 14.41 21 11.5 21 4.01 21 0 26.22 0 34.172v38.149h8.65V46.504h9.976v-8.127H8.65v-4.099zM151.94 61.914c-.268.16-3.747 1.855-6.827 1.855-2.651 0-4.806-1.577-4.806-5.78V45.588h11.633V37.46h-11.633V27.37h-8.649v31.354c0 8.829 4.042 13.557 12.03 13.557 3.321 0 5.967-.807 8.252-2.05v-8.317zM37.081 72.352c10.043 0 17.46-7.47 17.46-17.473 0-10.004-7.417-17.473-17.46-17.473-10.01 0-17.394 7.469-17.394 17.473 0 10.004 7.383 17.473 17.394 17.473zm0-8.325c-4.889 0-8.547-3.77-8.547-9.148 0-5.38 3.658-9.148 8.547-9.148 4.921 0 8.58 3.769 8.58 9.148 0 5.378-3.659 9.148-8.58 9.148zm21.616-6.68c0 10.482 7.184 15.005 15.265 15.005 8.08 0 15.231-4.523 15.231-15.006v-19.05h-8.647v18.261c0 5.31-2.86 7.47-6.584 7.47-3.758 0-6.585-2.16-6.585-7.47v-18.26h-8.68v19.05zm67.144 15.065v-21.14c0-7.709-5.221-12.95-12.537-12.95-3.692 0-7.184 1.267-9.479 4.797v-3.906h-8.447v33.199h8.681V54.219c0-5.036 3.092-7.504 6.817-7.504 3.99 0 6.286 2.605 6.286 7.435v18.262h8.679zm54.618-4.583v4.583h8.481V38.296h-8.481v3.667c-2.128-2.741-5.22-4.557-9.644-4.557-8.912 0-15.596 7.503-15.596 17.473 0 9.97 6.684 17.473 15.596 17.473 4.424 0 7.516-1.816 9.644-4.523zm-8.047-3.802c-5.088 0-8.314-4.077-8.314-9.148 0-5.07 3.226-9.148 8.314-9.148 4.955 0 8.313 3.906 8.313 9.148 0 5.242-3.358 9.148-8.313 9.148zm30.105 8.189h-8.923V38.66h8.923v33.556zm0-39.142h-8.923v-9.321h8.923v9.32z" fill="#22A4F2"/></svg>