<svg width="241" height="94" viewBox="0 0 241 94" fill="none" xmlns="http://www.w3.org/2000/svg"><path d="M202.109 22.198c-1.705.37-3.197 1.563-3.95 3.168-.369.782-.383.952-.426 3.41l-.057 2.6-.61.27c-1.038.454-1.066.61-1.066 4.73 0 3.367.014 3.623.284 4.063.171.284.526.583.852.71l.569.242v3.495c0 3.878.085 4.446.923 5.739.554.867 1.307 1.492 2.444 2.032l.824.383 4.943.043 4.93.042v.782c0 .753-.014.767-.412.767-.369 0-1.634.412-2.6.866-.227.1-.398.256-.398.37 0 .113-.17.184-.483.184-.468 0-.497.029-.539.526-.043.497-.086.526-.725.696-1.818.469-2.884 1.819-3.04 3.907-.071.867-.142 1.165-.313 1.222-.127.042-.497.34-.824.653l-.61.583v3.551l.596.611.597.61h1.449c1.776 0 1.904-.099 1.904-1.391v-.881h.994v-1.69c0-1.819-.043-1.947-.781-2.032-.412-.043-.426-.057-.469-.938-.043-.824-.014-.923.384-1.307.639-.639.866-.568.866.284v.71h1.137V65.5l.71.81.71.824v2.145l-.738.1c-1.009.141-1.705.397-2.458.923l-.64.44V73l5.726-.028 5.711-.043.028-2.131.014-2.13H218.943l.043 2.158.043 2.174h11.492v-1.051c0-1.01-.014-1.066-.454-1.45-.639-.54-1.748-1.008-2.628-1.122l-.753-.099V67.019l.71-.753.71-.753v-4.305h1.137v-.71c0-.767.142-.866.653-.497.427.299.654.924.597 1.72-.043.681-.057.695-.54.766-.71.1-.866.497-.824 2.202l.043 1.42.54.044.525.042v.895c0 1.25.156 1.364 1.861 1.364h1.35l.597-.611.596-.61V63.61l-.54-.54c-.298-.299-.667-.569-.824-.611-.241-.043-.284-.213-.355-1.321-.042-.753-.17-1.464-.312-1.72-.583-1.122-1.662-1.946-2.756-2.13-.597-.085-.611-.1-.611-.64s-.014-.554-.497-.554c-.313 0-.498-.07-.498-.184 0-.227-2.116-1.122-2.912-1.222l-.568-.085v-1.42l4.83-.072c4.603-.07 4.873-.085 5.64-.398 1.577-.639 2.728-1.903 3.239-3.551.256-.796.284-1.336.284-4.347l.014-3.424.597-.284c1.065-.526 1.108-.725 1.065-4.93l-.042-3.637-.355-.397c-.199-.2-.569-.47-.81-.569l-.469-.199v-2.173c0-1.506-.071-2.43-.213-3.012-.54-2.06-2.259-3.637-4.404-4.034-1.236-.228-30.97-.2-32.035.042zm32.788 2.33c.824.44 1.619 1.25 2.032 2.103l.34.696V47.5l-.34.696c-.455.923-1.279 1.733-2.188 2.16l-.739.34h-31.538l-.725-.34c-1.023-.484-1.69-1.109-2.187-2.103l-.427-.867V27.469l.341-.725c.483-1.023 1.108-1.69 2.117-2.188l.867-.426 15.911.029 15.925.042.611.327z" fill="#fff"/><path d="M210.205 35.665c-.796.526-1.208 1.52-1.193 2.884 0 1.335.369 2.188 1.179 2.727.824.555 1.548.384 2.216-.525.454-.61.639-1.279.639-2.259 0-1.065-.256-1.79-.838-2.443-.668-.74-1.293-.853-2.003-.384zM224.596 35.652c-1.136.724-1.563 3.068-.824 4.631.568 1.236 1.563 1.634 2.486.994 1.165-.78 1.563-3.11.782-4.63-.597-1.208-1.535-1.578-2.444-.995z" fill="#2A90E4"/><path d="M10.016 36.664c2.347 0 4.405.459 6.176 1.376 1.792.917 3.168 2.23 4.128 3.936.981 1.685 1.472 3.648 1.472 5.888 0 2.24-.49 4.203-1.472 5.888-.96 1.664-2.336 2.955-4.128 3.872-1.77.917-3.83 1.376-6.176 1.376H2.208V36.664h7.808zm-.16 18.528c2.347 0 4.16-.64 5.44-1.92 1.28-1.28 1.92-3.083 1.92-5.408s-.64-4.139-1.92-5.44c-1.28-1.323-3.093-1.984-5.44-1.984H6.688v14.752h3.168zm13.62-5.12c0-1.792.352-3.381 1.056-4.768.725-1.387 1.696-2.453 2.912-3.2 1.237-.747 2.613-1.12 4.128-1.12 1.322 0 2.474.267 3.456.8 1.002.533 1.802 1.205 2.4 2.016v-2.528h4.512V59h-4.512v-2.592c-.576.832-1.376 1.525-2.4 2.08-1.003.533-2.166.8-3.488.8-1.494 0-2.859-.384-4.096-1.152-1.216-.768-2.187-1.845-2.912-3.232-.704-1.408-1.056-3.019-1.056-4.832zm13.952.064c0-1.088-.214-2.016-.64-2.784-.427-.79-1.003-1.387-1.728-1.792a4.53 4.53 0 0 0-2.336-.64c-.832 0-1.6.203-2.304.608-.704.405-1.28 1.003-1.728 1.792-.427.768-.64 1.685-.64 2.752 0 1.067.213 2.005.64 2.816.448.79 1.024 1.397 1.728 1.824.725.427 1.493.64 2.304.64.832 0 1.61-.203 2.336-.608a4.654 4.654 0 0 0 1.728-1.792c.426-.79.64-1.728.64-2.816zm13.586-5.184v8.576c0 .597.138 1.035.415 1.312.3.256.79.384 1.472.384h2.08V59h-2.816c-3.776 0-5.663-1.835-5.663-5.504v-8.544h-2.113v-3.68h2.112v-4.384h4.513v4.384h3.967v3.68h-3.968zm5.52 5.12c0-1.792.352-3.381 1.056-4.768.725-1.387 1.696-2.453 2.912-3.2 1.237-.747 2.613-1.12 4.128-1.12 1.323 0 2.475.267 3.456.8 1.003.533 1.803 1.205 2.4 2.016v-2.528h4.512V59h-4.512v-2.592c-.576.832-1.376 1.525-2.4 2.08-1.003.533-2.165.8-3.488.8-1.493 0-2.859-.384-4.096-1.152-1.216-.768-2.187-1.845-2.912-3.232-.704-1.408-1.056-3.019-1.056-4.832zm13.952.064c0-1.088-.213-2.016-.64-2.784-.427-.79-1.003-1.387-1.728-1.792a4.53 4.53 0 0 0-2.336-.64c-.832 0-1.6.203-2.304.608-.704.405-1.28 1.003-1.728 1.792-.427.768-.64 1.685-.64 2.752 0 1.067.213 2.005.64 2.816.448.79 1.024 1.397 1.728 1.824.725.427 1.493.64 2.304.64.832 0 1.61-.203 2.336-.608a4.656 4.656 0 0 0 1.728-1.792c.427-.79.64-1.728.64-2.816zM90.376 59l-4.928-8.704h-2.112V59h-4.48V36.664h8.384c1.728 0 3.2.31 4.416.928 1.216.597 2.122 1.419 2.72 2.464.618 1.024.928 2.176.928 3.456a6.721 6.721 0 0 1-1.28 4c-.854 1.173-2.123 1.984-3.808 2.432L95.56 59h-5.184zm-7.04-12.064h3.744c1.216 0 2.122-.288 2.72-.864.597-.597.896-1.419.896-2.464 0-1.024-.299-1.813-.896-2.368-.598-.576-1.504-.864-2.72-.864h-3.744v6.56zm23.374 12.352c-1.707 0-3.243-.373-4.608-1.12a8.404 8.404 0 0 1-3.232-3.232c-.768-1.387-1.152-2.987-1.152-4.8 0-1.813.395-3.413 1.184-4.8a8.334 8.334 0 0 1 3.296-3.2c1.387-.768 2.933-1.152 4.64-1.152 1.707 0 3.253.384 4.64 1.152a8.118 8.118 0 0 1 3.264 3.2c.811 1.387 1.216 2.987 1.216 4.8 0 1.813-.416 3.413-1.248 4.8a8.505 8.505 0 0 1-3.328 3.232c-1.387.747-2.944 1.12-4.672 1.12zm0-3.904a4.67 4.67 0 0 0 2.272-.576c.725-.405 1.301-1.003 1.728-1.792.427-.79.64-1.75.64-2.88 0-1.685-.448-2.976-1.344-3.872-.875-.917-1.952-1.376-3.232-1.376-1.28 0-2.357.459-3.232 1.376-.853.896-1.28 2.187-1.28 3.872s.416 2.987 1.248 3.904c.853.896 1.92 1.344 3.2 1.344zm16.496-11.52c.576-.853 1.366-1.547 2.368-2.08 1.024-.533 2.187-.8 3.488-.8 1.515 0 2.88.373 4.096 1.12 1.238.747 2.208 1.813 2.912 3.2.726 1.365 1.088 2.955 1.088 4.768 0 1.813-.362 3.424-1.088 4.832-.704 1.387-1.674 2.464-2.912 3.232-1.216.768-2.581 1.152-4.096 1.152-1.322 0-2.485-.256-3.488-.768-.981-.533-1.77-1.216-2.368-2.048V59h-4.48V35.32h4.48v8.544zm9.376 6.208c0-1.067-.224-1.984-.672-2.752-.426-.79-1.002-1.387-1.728-1.792a4.538 4.538 0 0 0-2.304-.608c-.81 0-1.578.213-2.304.64-.704.405-1.28 1.003-1.728 1.792-.426.79-.64 1.717-.64 2.784 0 1.067.214 1.995.64 2.784.448.79 1.024 1.397 1.728 1.824a4.657 4.657 0 0 0 2.304.608c.832 0 1.6-.213 2.304-.64.726-.427 1.302-1.035 1.728-1.824.448-.79.672-1.728.672-2.816zm15.186 9.216c-1.706 0-3.242-.373-4.608-1.12a8.408 8.408 0 0 1-3.232-3.232c-.768-1.387-1.152-2.987-1.152-4.8 0-1.813.395-3.413 1.184-4.8a8.343 8.343 0 0 1 3.296-3.2c1.387-.768 2.934-1.152 4.64-1.152 1.707 0 3.254.384 4.64 1.152a8.118 8.118 0 0 1 3.264 3.2c.811 1.387 1.216 2.987 1.216 4.8 0 1.813-.416 3.413-1.248 4.8a8.499 8.499 0 0 1-3.328 3.232c-1.386.747-2.944 1.12-4.672 1.12zm0-3.904a4.67 4.67 0 0 0 2.272-.576c.726-.405 1.302-1.003 1.728-1.792.427-.79.64-1.75.64-2.88 0-1.685-.448-2.976-1.344-3.872-.874-.917-1.952-1.376-3.232-1.376-1.28 0-2.357.459-3.232 1.376-.853.896-1.28 2.187-1.28 3.872s.416 2.987 1.248 3.904c.854.896 1.92 1.344 3.2 1.344zm17.233-10.432v8.576c0 .597.138 1.035.416 1.312.298.256.789.384 1.472.384h2.08V59h-2.816c-3.776 0-5.664-1.835-5.664-5.504v-8.544h-2.112v-3.68h2.112v-4.384h4.512v4.384h3.968v3.68h-3.968z" fill="#fff"/></svg>