<svg width="241" height="94" viewBox="0 0 241 94" fill="none" xmlns="http://www.w3.org/2000/svg"><path d="M208.055 21.075c-1.112.353-1.792 1.308-2.106 2.943-.262 1.36-.262 4.644.013 6.227.562 3.361 2.276 6.828 4.605 9.3.811.85 7.626 6.698 8.437 7.234.615.393 1.007.197 3.27-1.7 2.146-1.805 2.917-2.29 4.16-2.616 1.426-.38 3.571-.184 4.801.444 1.112.563 3.558 2.643 3.911 3.323.327.64.288 1.779-.104 2.433-.406.68-4.527 4.134-5.521 4.63-2.197 1.074-4.879.916-6.828-.418-.379-.261-5.206-4.264-10.727-8.908-5.52-4.644-10.242-8.555-10.504-8.686-1.02-.523-2.512-.183-3.205.733-1.217 1.622-1.347 6.566-.275 10.281.72 2.512 2.237 5.207 3.964 7.117.445.47 1.74 1.674 2.891 2.655 1.151.981 2.093 1.831 2.093 1.884 0 .052-2.106 1.87-4.683 4.029-4.801 4.029-5.05 4.277-5.219 5.31-.406 2.512 3.728 4.684 8.921 4.71 3.1 0 6.423-1.112 9.562-3.218.968-.654 24.187-20.08 24.449-20.46.092-.13.209-.43.262-.666.209-.981.549-.667-15.057-13.762-8.019-6.723-14.795-12.361-15.082-12.532-.576-.327-1.479-.457-2.028-.287zM9.92 59.224c-1.557 0-2.965-.267-4.224-.8-1.237-.533-2.219-1.301-2.944-2.304-.725-1.003-1.099-2.187-1.12-3.552h4.8c.064.917.384 1.643.96 2.176.597.533 1.408.8 2.432.8 1.045 0 1.867-.245 2.464-.736.597-.512.896-1.173.896-1.984 0-.661-.203-1.205-.608-1.632-.405-.427-.917-.757-1.536-.992-.597-.256-1.43-.533-2.496-.832-1.45-.427-2.635-.843-3.552-1.248-.896-.427-1.675-1.056-2.336-1.888-.64-.853-.96-1.984-.96-3.392 0-1.323.33-2.475.992-3.456.661-.981 1.59-1.728 2.784-2.24 1.195-.533 2.56-.8 4.096-.8 2.304 0 4.17.565 5.6 1.696 1.45 1.11 2.25 2.667 2.4 4.672H12.64c-.043-.768-.373-1.397-.992-1.888-.597-.512-1.397-.768-2.4-.768-.875 0-1.579.224-2.112.672-.512.448-.768 1.099-.768 1.952 0 .597.192 1.099.576 1.504.405.384.896.704 1.472.96.597.235 1.43.512 2.496.832 1.45.427 2.635.853 3.552 1.28.917.427 1.707 1.067 2.368 1.92.661.853.992 1.973.992 3.36a6.32 6.32 0 0 1-.928 3.328c-.619 1.024-1.525 1.845-2.72 2.464-1.195.597-2.613.896-4.256.896zm27.75-9.472c0 .64-.042 1.216-.128 1.728h-12.96c.107 1.28.555 2.283 1.344 3.008.79.725 1.76 1.088 2.912 1.088 1.664 0 2.848-.715 3.552-2.144h4.832c-.512 1.707-1.493 3.115-2.944 4.224-1.45 1.088-3.232 1.632-5.344 1.632-1.706 0-3.242-.373-4.608-1.12-1.344-.768-2.4-1.845-3.168-3.232-.746-1.387-1.12-2.987-1.12-4.8 0-1.835.374-3.445 1.12-4.832.747-1.387 1.792-2.453 3.136-3.2 1.344-.747 2.89-1.12 4.64-1.12 1.686 0 3.19.363 4.512 1.088a7.505 7.505 0 0 1 3.104 3.104c.747 1.323 1.12 2.848 1.12 4.576zm-4.64-1.28c-.021-1.152-.437-2.07-1.248-2.752-.81-.704-1.802-1.056-2.976-1.056-1.11 0-2.048.341-2.816 1.024-.746.661-1.205 1.59-1.376 2.784h8.416zm17.216-7.456c2.112 0 3.82.672 5.12 2.016 1.302 1.323 1.953 3.179 1.953 5.568V59h-4.48v-9.792c0-1.408-.352-2.485-1.056-3.232-.705-.768-1.665-1.152-2.88-1.152-1.238 0-2.22.384-2.944 1.152-.705.747-1.056 1.824-1.056 3.232V59h-4.48V41.272h4.48v2.208a6.074 6.074 0 0 1 2.272-1.792c.938-.448 1.962-.672 3.072-.672zm9.663 9.056c0-1.792.352-3.381 1.056-4.768.725-1.387 1.707-2.453 2.944-3.2 1.237-.747 2.613-1.12 4.128-1.12a7.4 7.4 0 0 1 3.296.768c1.045.49 1.877 1.152 2.496 1.984V35.32h4.544V59h-4.544v-2.624c-.555.875-1.333 1.579-2.336 2.112-1.003.533-2.165.8-3.488.8-1.493 0-2.859-.384-4.096-1.152-1.237-.768-2.219-1.845-2.944-3.232-.704-1.408-1.056-3.019-1.056-4.832zm13.952.064c0-1.088-.213-2.016-.64-2.784-.427-.79-1.003-1.387-1.728-1.792a4.53 4.53 0 0 0-2.336-.64c-.832 0-1.6.203-2.304.608-.704.405-1.28 1.003-1.728 1.792-.427.768-.64 1.685-.64 2.752 0 1.067.213 2.005.64 2.816.448.79 1.024 1.397 1.728 1.824.725.427 1.493.64 2.304.64.832 0 1.61-.203 2.336-.608a4.656 4.656 0 0 0 1.728-1.792c.427-.79.64-1.728.64-2.816zm12.85-6.272c.576-.853 1.365-1.547 2.368-2.08 1.024-.533 2.186-.8 3.488-.8 1.514 0 2.88.373 4.096 1.12 1.237.747 2.208 1.813 2.912 3.2.725 1.365 1.088 2.955 1.088 4.768 0 1.813-.363 3.424-1.088 4.832-.704 1.387-1.675 2.464-2.912 3.232-1.216.768-2.582 1.152-4.096 1.152-1.323 0-2.486-.256-3.488-.768-.982-.533-1.771-1.216-2.368-2.048V59h-4.48V35.32h4.48v8.544zm9.376 6.208c0-1.067-.224-1.984-.672-2.752-.427-.79-1.003-1.387-1.728-1.792a4.538 4.538 0 0 0-2.304-.608c-.811 0-1.579.213-2.304.64-.704.405-1.28 1.003-1.728 1.792-.427.79-.64 1.717-.64 2.784 0 1.067.213 1.995.64 2.784.448.79 1.024 1.397 1.728 1.824a4.653 4.653 0 0 0 2.304.608c.832 0 1.6-.213 2.304-.64.725-.427 1.301-1.035 1.728-1.824.448-.79.672-1.728.672-2.816zm9.585-10.912c-.789 0-1.45-.245-1.984-.736-.512-.512-.768-1.141-.768-1.888 0-.747.256-1.365.768-1.856.534-.512 1.195-.768 1.984-.768.79 0 1.44.256 1.952.768.534.49.8 1.11.8 1.856 0 .747-.266 1.376-.8 1.888-.512.49-1.162.736-1.952.736zm2.208 2.112V59h-4.48V41.272h4.48zm8.389 2.752a6.343 6.343 0 0 1 2.24-2.208c.939-.533 2.005-.8 3.2-.8v4.704h-1.184c-1.408 0-2.475.33-3.2.992-.704.661-1.056 1.813-1.056 3.456V59h-4.48V41.272h4.48v2.752zm6.788 6.048c0-1.792.352-3.381 1.056-4.768.725-1.387 1.706-2.453 2.944-3.2 1.237-.747 2.613-1.12 4.128-1.12 1.152 0 2.25.256 3.296.768 1.045.49 1.877 1.152 2.496 1.984V35.32h4.544V59h-4.544v-2.624c-.555.875-1.334 1.579-2.336 2.112-1.003.533-2.166.8-3.488.8-1.494 0-2.859-.384-4.096-1.152-1.238-.768-2.219-1.845-2.944-3.232-.704-1.408-1.056-3.019-1.056-4.832zm13.952.064c0-1.088-.214-2.016-.64-2.784-.427-.79-1.003-1.387-1.728-1.792a4.531 4.531 0 0 0-2.336-.64c-.832 0-1.6.203-2.304.608-.704.405-1.28 1.003-1.728 1.792-.427.768-.64 1.685-.64 2.752 0 1.067.213 2.005.64 2.816.448.79 1.024 1.397 1.728 1.824.725.427 1.493.64 2.304.64.832 0 1.61-.203 2.336-.608a4.66 4.66 0 0 0 1.728-1.792c.426-.79.64-1.728.64-2.816z" fill="#742DDD"/></svg>