<svg width="241" height="94" viewBox="0 0 241 94" fill="none" xmlns="http://www.w3.org/2000/svg"><path d="M233.28 50.064c0 .455-.179.89-.498 1.212a1.693 1.693 0 0 1-2.405 0 1.722 1.722 0 0 1-.499-1.212V34.75c0-.455.18-.89.499-1.212a1.693 1.693 0 0 1 2.405 0c.319.321.498.758.498 1.212v15.314zm-.59 10.61c-.225.228-6.551 5.54-18.148 5.54s-17.881-5.284-18.148-5.51a1.687 1.687 0 0 1-.514-1.804c.067-.212.175-.408.317-.577a1.692 1.692 0 0 1 2.39-.184c.098.071 5.749 4.69 15.941 4.69 10.191 0 15.885-4.647 15.941-4.69a1.72 1.72 0 0 1 2.404.184 1.696 1.696 0 0 1-.169 2.366l-.014-.014zm-36.9-25.924c.025-.456.228-.883.566-1.189.337-.305.78-.463 1.233-.44.42.024.816.204 1.111.505.296.3.471.701.491 1.124v15.286c0 .454-.179.89-.498 1.212a1.693 1.693 0 0 1-2.405 0 1.72 1.72 0 0 1-.498-1.212V34.75zm8.532-3.4c.026-.456.229-.883.566-1.189a1.71 1.71 0 0 1 1.234-.44c.419.024.815.204 1.111.504.296.301.471.702.491 1.125v22.666c0 .455-.179.891-.498 1.213a1.692 1.692 0 0 1-2.405 0 1.722 1.722 0 0 1-.499-1.212V31.35zm8.575-.85c0-.455.18-.89.499-1.212a1.69 1.69 0 0 1 2.405 0c.319.322.498.757.498 1.212v24.65c0 .455-.179.89-.498 1.212a1.695 1.695 0 0 1-2.405 0 1.721 1.721 0 0 1-.499-1.212V30.5zm8.435.85c0-.455.179-.89.498-1.212a1.694 1.694 0 0 1 2.405 0c.319.321.498.757.498 1.212v22.666c0 .455-.179.891-.498 1.213a1.694 1.694 0 0 1-2.405 0 1.721 1.721 0 0 1-.498-1.212V31.35zM233.744 22h-38.348a6.31 6.31 0 0 0-2.438.473 6.348 6.348 0 0 0-2.072 1.378A6.444 6.444 0 0 0 189 28.375v38.25a6.445 6.445 0 0 0 1.886 4.525 6.348 6.348 0 0 0 2.072 1.377 6.31 6.31 0 0 0 2.438.473h38.348a6.312 6.312 0 0 0 4.505-1.846 6.426 6.426 0 0 0 1.891-4.515V28.375a6.447 6.447 0 0 0-.494-2.448 6.406 6.406 0 0 0-1.387-2.072 6.345 6.345 0 0 0-2.067-1.378 6.31 6.31 0 0 0-2.434-.477M6.688 36.664V59h-4.48V36.664h4.48zm13.733 4.352c2.111 0 3.818.672 5.12 2.016 1.3 1.323 1.951 3.179 1.951 5.568V59h-4.48v-9.792c0-1.408-.352-2.485-1.056-3.232-.703-.768-1.663-1.152-2.88-1.152-1.237 0-2.218.384-2.944 1.152-.704.747-1.056 1.824-1.056 3.232V59h-4.48V41.272h4.48v2.208a6.074 6.074 0 0 1 2.273-1.792c.938-.448 1.962-.672 3.072-.672zm16.03 3.936v8.576c0 .597.139 1.035.416 1.312.299.256.79.384 1.472.384h2.08V59h-2.816c-3.776 0-5.664-1.835-5.664-5.504v-8.544h-2.112v-3.68h2.112v-4.384h4.512v4.384h3.968v3.68h-3.968zm23.152 4.8c0 .64-.042 1.216-.128 1.728h-12.96c.107 1.28.555 2.283 1.344 3.008.79.725 1.76 1.088 2.913 1.088 1.663 0 2.848-.715 3.552-2.144h4.832c-.512 1.707-1.494 3.115-2.944 4.224-1.451 1.088-3.233 1.632-5.345 1.632-1.706 0-3.242-.373-4.607-1.12-1.344-.768-2.4-1.845-3.168-3.232-.747-1.387-1.12-2.987-1.12-4.8 0-1.835.373-3.445 1.12-4.832.746-1.387 1.791-2.453 3.136-3.2 1.343-.747 2.89-1.12 4.64-1.12 1.685 0 3.189.363 4.511 1.088a7.506 7.506 0 0 1 3.105 3.104c.746 1.323 1.12 2.848 1.12 4.576zm-4.64-1.28c-.02-1.152-.437-2.07-1.248-2.752-.81-.704-1.802-1.056-2.976-1.056-1.109 0-2.047.341-2.816 1.024-.746.661-1.205 1.59-1.376 2.784h8.417zm11.873-4.448a6.34 6.34 0 0 1 2.24-2.208c.938-.533 2.005-.8 3.2-.8v4.704h-1.184c-1.408 0-2.475.33-3.2.992-.704.661-1.056 1.813-1.056 3.456V59h-4.48V41.272h4.48v2.752zm6.788 6.112c0-1.835.373-3.435 1.12-4.8.746-1.387 1.78-2.453 3.103-3.2 1.323-.768 2.838-1.152 4.544-1.152 2.198 0 4.011.555 5.44 1.664 1.451 1.088 2.422 2.624 2.912 4.608h-4.831c-.257-.768-.694-1.365-1.313-1.792-.597-.448-1.344-.672-2.24-.672-1.28 0-2.293.47-3.04 1.408-.746.917-1.12 2.23-1.12 3.936 0 1.685.374 2.997 1.12 3.936.747.917 1.76 1.376 3.04 1.376 1.814 0 2.998-.81 3.553-2.432h4.831c-.49 1.92-1.46 3.445-2.911 4.576-1.451 1.13-3.264 1.696-5.44 1.696-1.707 0-3.222-.373-4.544-1.12a8.143 8.143 0 0 1-3.105-3.2c-.746-1.387-1.12-2.997-1.12-4.832zm27.756 9.152c-1.707 0-3.243-.373-4.608-1.12a8.402 8.402 0 0 1-3.232-3.232c-.768-1.387-1.152-2.987-1.152-4.8 0-1.813.394-3.413 1.184-4.8a8.337 8.337 0 0 1 3.296-3.2c1.386-.768 2.933-1.152 4.64-1.152 1.706 0 3.253.384 4.64 1.152a8.13 8.13 0 0 1 3.264 3.2c.81 1.387 1.216 2.987 1.216 4.8 0 1.813-.416 3.413-1.248 4.8a8.505 8.505 0 0 1-3.328 3.232c-1.387.747-2.944 1.12-4.672 1.12zm0-3.904c.81 0 1.568-.192 2.272-.576.725-.405 1.301-1.003 1.728-1.792.426-.79.64-1.75.64-2.88 0-1.685-.448-2.976-1.344-3.872-.875-.917-1.952-1.376-3.232-1.376-1.28 0-2.358.459-3.232 1.376-.854.896-1.28 2.187-1.28 3.872s.416 2.987 1.248 3.904c.853.896 1.92 1.344 3.2 1.344zm34.032-14.368c2.176 0 3.926.672 5.248 2.016 1.344 1.323 2.016 3.179 2.016 5.568V59h-4.48v-9.792c0-1.387-.352-2.443-1.056-3.168-.704-.747-1.664-1.12-2.88-1.12s-2.186.373-2.912 1.12c-.704.725-1.056 1.781-1.056 3.168V59h-4.48v-9.792c0-1.387-.352-2.443-1.056-3.168-.704-.747-1.664-1.12-2.88-1.12-1.237 0-2.218.373-2.944 1.12-.704.725-1.056 1.781-1.056 3.168V59h-4.48V41.272h4.48v2.144a5.993 5.993 0 0 1 2.208-1.76c.918-.427 1.92-.64 3.008-.64 1.387 0 2.624.299 3.712.896a6.064 6.064 0 0 1 2.528 2.496c.576-1.024 1.408-1.845 2.496-2.464a7.242 7.242 0 0 1 3.584-.928z" fill="#286EFA"/></svg>