<svg width="38" height="40" viewBox="0 0 38 40" fill="none" xmlns="http://www.w3.org/2000/svg">
<path fill-rule="evenodd" clip-rule="evenodd" d="M18.7069 0C20.5511 0 22.0891 1.26955 22.5039 2.97168C31.0139 4.7265 37.415 12.2617 37.415 21.2931C37.415 31.6242 29.0385 40 18.7081 40C8.37584 40 0 31.6242 0 21.2931C0 12.2641 6.39799 4.72895 14.908 2.9729C15.3216 1.27016 16.8601 0 18.7069 0ZM5.82633 21.2919C5.82633 28.4062 11.5932 34.1725 18.7075 34.1725C25.8211 34.1725 31.588 28.4062 31.5874 21.2919C31.5874 14.1789 25.8205 8.41199 18.7075 8.41199C11.5932 8.41199 5.82633 14.1789 5.82633 21.2919ZM15.0017 22.5241L13.1688 14.7333C12.9997 14.0155 13.3804 13.7347 14.0154 14.1049L20.9373 18.1251C21.5744 18.495 22.2275 19.3761 22.3966 20.0938L24.2301 27.8842C24.3992 28.602 24.019 28.8829 23.3819 28.5124L16.4609 24.4934C15.8244 24.123 15.1708 23.2418 15.0017 22.5241ZM20.1328 20.2311C20.7258 21.0312 20.5581 22.1596 19.758 22.7526C18.9592 23.3442 17.8308 23.1765 17.237 22.3779C16.6451 21.578 16.8128 20.4496 17.6118 19.8564C18.4118 19.2639 19.5402 19.4316 20.1328 20.2311Z" fill="#42CFA6"/>
</svg>
