<svg width="23" height="40" viewBox="0 0 23 40" fill="none" xmlns="http://www.w3.org/2000/svg">
<path d="M21.6375 22.1062C21.0135 21.0652 20.1581 20.1819 19.1375 19.525C18.1439 18.8842 17.0644 18.3876 15.9312 18.05C15.3062 17.8563 14.55 17.6562 13.6875 17.425C12.9937 17.2313 12.2375 17.05 11.0687 16.8C9.85752 16.5442 8.6684 16.1931 7.5125 15.75C6.94791 15.5195 6.44805 15.1548 6.05625 14.6875C5.73577 14.27 5.57805 13.7502 5.6125 13.225C5.6125 13.1438 5.6125 13.0687 5.6125 12.9875C5.6371 12.5445 5.79142 12.1185 6.05625 11.7625C6.52571 11.1921 7.14142 10.76 7.8375 10.5125C8.98374 10.1256 10.1912 9.95187 11.4 10C12.3368 10.0001 13.2696 10.122 14.175 10.3625C14.7749 10.5326 15.3399 10.8077 15.8437 11.175C16.1637 11.405 16.4372 11.6934 16.65 12.025L18.0062 14.125L22.2125 11.4188L20.8562 9.31875C20.3073 8.46082 19.6012 7.71438 18.775 7.11875C17.8008 6.40992 16.709 5.87884 15.55 5.55C15.0994 5.42259 14.6425 5.31829 14.1812 5.2375V0H9.18125V5.13125C8.17998 5.25772 7.19384 5.48384 6.2375 5.80625C4.67621 6.34344 3.29106 7.29641 2.23125 8.5625L2.1625 8.64375C1.20015 9.86624 0.652789 11.3638 0.599999 12.9187C0.495755 14.6317 1.00787 16.3255 2.04375 17.6938L2.125 17.8C3.08263 18.9704 4.32727 19.8727 5.7375 20.4187C7.13581 20.9476 8.57358 21.3656 10.0375 21.6687C11.1062 21.9062 11.7875 22.0688 12.4 22.2437H12.4687C13.2625 22.4438 13.9312 22.625 14.5125 22.8C15.1901 22.9998 15.8361 23.2944 16.4312 23.675C16.7866 23.911 17.0854 24.2226 17.3062 24.5875C17.5322 25.0363 17.6398 25.5354 17.6187 26.0375C17.6187 26.075 17.6187 26.1125 17.6187 26.15C17.6401 26.7568 17.4671 27.3546 17.125 27.8563C16.6282 28.5488 15.9362 29.0776 15.1375 29.375C13.9243 29.8395 12.6293 30.0522 11.3312 30H11.175C9.76722 30.0427 8.36974 29.747 7.1 29.1375C6.47206 28.7983 5.93423 28.314 5.53125 27.725L4.10625 25.6688L0 28.5188L1.425 30.575C2.2948 31.8352 3.45436 32.8683 4.80625 33.5875L4.875 33.6188C6.23164 34.276 7.68597 34.7087 9.18125 34.9V40H14.1812V34.7875C15.1309 34.6213 16.0608 34.3574 16.9562 34C18.6423 33.3572 20.1056 32.2391 21.1687 30.7812C22.0163 29.5226 22.5108 28.0597 22.601 26.545C22.6911 25.0302 22.3735 23.5191 21.6812 22.1688L21.6375 22.1062Z" fill="#42CFA6"/>
</svg>
