<svg width="40" height="40" viewBox="0 0 40 40" fill="none" xmlns="http://www.w3.org/2000/svg">
<path fill-rule="evenodd" clip-rule="evenodd" d="M14.8724 17.805L5.35069 27.3234C3.73714 28.9387 3.73714 31.5648 5.35069 33.1823L6.8151 34.6444C8.38307 36.2122 11.111 36.2101 12.6748 34.6444L17.1737 30.1482C17.9835 29.3385 19.2947 29.3385 20.1025 30.1482C20.9124 30.9559 20.9124 32.2668 20.1025 33.0766L15.6036 37.5728C14.0398 39.1364 11.9602 40 9.74598 40C7.53176 40 5.45218 39.1385 3.88628 37.5707L2.42187 36.1107C-0.807289 32.8799 -0.807289 27.6237 2.42187 24.395L11.9436 14.8746C13.5095 13.311 15.5891 12.4494 17.8013 12.4494C20.0134 12.4494 22.0951 13.3109 23.661 14.8787L25.1233 16.3388C25.9332 17.1485 25.9332 18.4594 25.1233 19.2692C24.3155 20.079 23.0044 20.079 22.1945 19.2692L20.7301 17.805C19.1663 16.2393 16.4383 16.2393 14.8724 17.805ZM28.0548 25.1275C26.4889 26.689 24.4093 27.5526 22.1951 27.5526C19.9809 27.5526 17.9034 26.6891 16.3375 25.1234C15.5297 24.3136 15.5297 23.0068 16.3395 22.195C17.1473 21.3873 18.4585 21.3873 19.2684 22.197C20.8322 23.7627 23.5601 23.7627 25.1239 22.195L34.6457 12.6787C35.4266 11.8959 35.8574 10.8562 35.8574 9.75033C35.8574 8.64234 35.4266 7.60271 34.6457 6.82194L33.1813 5.35764C32.3983 4.57273 31.3585 4.14204 30.2504 4.14204C29.1443 4.14204 28.1045 4.57273 27.3216 5.35764L23.21 9.46658C22.4002 10.2784 21.089 10.2784 20.2792 9.46658C19.4713 8.65889 19.4713 7.34796 20.2812 6.53819L24.3928 2.42719C25.9566 0.861512 28.0383 0 30.2504 0C32.4646 0 34.5442 0.861512 36.1101 2.42719L37.5745 3.89345C39.1404 5.45706 40 7.53642 40 9.75033C40 11.9622 39.1404 14.0414 37.5745 15.6071L28.0548 25.1275Z" fill="url(#paint0_linear_56:1068)"/>
<defs>
<linearGradient id="paint0_linear_56:1068" x1="0" y1="20" x2="40" y2="20" gradientUnits="userSpaceOnUse">
<stop stop-color="#73C592"/>
<stop offset="1" stop-color="#428EB4"/>
</linearGradient>
</defs>
</svg>
