<svg width="49" height="45" viewBox="0 0 49 45" fill="none" xmlns="http://www.w3.org/2000/svg">
<path d="M20.1692 33.6486H22.5509C22.8043 33.6486 23.007 33.4459 23.007 33.1925V30.8107C25.4901 30.4053 27.5678 28.429 27.8212 25.8952C28.1253 22.5506 25.5408 19.7634 22.2469 19.7634H20.4732C19.105 19.7634 17.9901 18.5979 18.1421 17.1789C18.2435 15.9627 19.3583 15.1012 20.5746 15.1012H22.6523C23.4124 15.1012 24.0712 15.6587 24.2232 16.3681C24.2739 16.5708 24.4766 16.7228 24.6793 16.7228H27.0611C27.3145 16.7228 27.5678 16.5201 27.5172 16.2161C27.2638 13.8343 25.3381 12.01 22.9563 11.858V9.52688C22.9563 9.2735 22.7536 9.0708 22.5003 9.0708H20.1692C19.9158 9.0708 19.7131 9.2735 19.7131 9.52688V11.858C16.8246 12.2634 14.5948 14.8985 14.8989 17.9391C15.2029 20.8276 17.7874 22.956 20.7266 22.956H22.2469C23.6151 22.956 24.73 24.1215 24.578 25.5404C24.4766 26.7567 23.3617 27.6182 22.1455 27.6182H20.0171C19.257 27.6182 18.5982 27.0607 18.4462 26.3513C18.3955 26.1486 18.1928 25.9965 17.9901 25.9965H15.6083C15.355 25.9965 15.1016 26.1992 15.1523 26.5033C15.4056 28.885 17.3313 30.7094 19.7131 30.8614V33.1925C19.7131 33.4459 19.9158 33.6486 20.1692 33.6486Z" fill="url(#paint0_linear_56:1149)"/>
<path d="M21.3345 38.9697C11.6048 38.9697 3.69934 31.0643 3.69934 21.3345C3.69934 11.6048 11.6048 3.69933 21.3345 3.69933C31.0643 3.69933 38.9697 11.6048 38.9697 21.3345C38.9697 22.7028 38.8177 23.9697 38.5643 25.2366C38.767 25.1859 38.9697 25.1859 39.1724 25.1859C40.2366 25.1859 41.3008 25.3379 42.3143 25.642C42.6184 24.2737 42.7197 22.8041 42.7197 21.3345C42.7197 9.57773 33.142 0 21.3852 0C9.62841 0 0 9.57773 0 21.3345C0 33.0913 9.57773 42.669 21.3345 42.669C24.223 42.669 27.0102 42.1116 29.4933 41.0474C28.9359 39.9832 28.5305 38.767 28.3785 37.4494C26.2501 38.4123 23.8683 38.9697 21.3345 38.9697Z" fill="url(#paint1_linear_56:1149)"/>
<path d="M39.1722 27.0605C34.2059 27.0605 30.1519 31.0639 30.1519 36.0302C30.1519 40.9964 34.1552 44.9998 39.1215 44.9998C44.0877 44.9998 48.0911 40.9964 48.0911 36.0302C48.1418 31.0639 44.1384 27.0605 39.1722 27.0605ZM43.0742 34.3072L38.9694 39.1721C38.8174 39.3748 38.564 39.4761 38.3107 39.4761C38.0573 39.4761 37.8039 39.3748 37.6519 39.1721L35.3208 36.3849C35.0167 36.0302 35.0674 35.4727 35.4221 35.118C35.7769 34.8139 36.3343 34.8646 36.689 35.2194L38.3613 37.1957L41.7566 33.1416C42.0607 32.7869 42.6181 32.7362 43.0235 33.0403C43.3276 33.395 43.3782 33.9525 43.0742 34.3072Z" fill="url(#paint2_linear_56:1149)"/>
<defs>
<linearGradient id="paint0_linear_56:1149" x1="14.8711" y1="21.3597" x2="27.8455" y2="21.3597" gradientUnits="userSpaceOnUse">
<stop stop-color="#73C592"/>
<stop offset="1" stop-color="#428EB4"/>
</linearGradient>
<linearGradient id="paint1_linear_56:1149" x1="0" y1="21.3345" x2="42.7197" y2="21.3345" gradientUnits="userSpaceOnUse">
<stop stop-color="#73C592"/>
<stop offset="1" stop-color="#428EB4"/>
</linearGradient>
<linearGradient id="paint2_linear_56:1149" x1="30.1519" y1="36.0302" x2="48.0916" y2="36.0302" gradientUnits="userSpaceOnUse">
<stop stop-color="#73C592"/>
<stop offset="1" stop-color="#428EB4"/>
</linearGradient>
</defs>
</svg>
