<svg width="38" height="40" viewBox="0 0 38 40" fill="none" xmlns="http://www.w3.org/2000/svg"><path fill-rule="evenodd" clip-rule="evenodd" d="M18.707 0a3.905 3.905 0 0 1 3.797 2.972c8.51 1.754 14.911 9.29 14.911 18.321C37.415 31.624 29.038 40 18.708 40 8.376 40 0 31.624 0 21.293 0 12.264 6.398 4.73 14.908 2.973A3.904 3.904 0 0 1 18.707 0zM5.827 21.292c0 7.114 5.766 12.88 12.88 12.88 7.114 0 12.881-5.766 12.88-12.88 0-7.113-5.767-12.88-12.88-12.88-7.114 0-12.88 5.767-12.88 12.88zm9.175 1.232l-1.833-7.79c-.17-.719.211-1 .846-.63l6.922 4.021c.637.37 1.29 1.251 1.46 1.969l1.833 7.79c.17.718-.211.999-.848.628l-6.921-4.019c-.637-.37-1.29-1.251-1.46-1.969zm5.13-2.293a1.802 1.802 0 1 1-2.894 2.147 1.802 1.802 0 0 1 2.895-2.147z" fill="#42CFA6"/></svg>