<svg width="23" height="40" viewBox="0 0 23 40" fill="none" xmlns="http://www.w3.org/2000/svg"><path d="M21.637 22.106a7.9 7.9 0 0 0-2.5-2.581 12.501 12.501 0 0 0-3.206-1.475c-.625-.194-1.381-.394-2.243-.625a42.781 42.781 0 0 0-2.62-.625 23.505 23.505 0 0 1-3.555-1.05 3.75 3.75 0 0 1-1.457-1.063 2.169 2.169 0 0 1-.444-1.462v-.237c.025-.444.18-.87.444-1.226a4.075 4.075 0 0 1 1.782-1.25A9.907 9.907 0 0 1 11.4 10c.937 0 1.87.122 2.775.363.6.17 1.165.445 1.669.812.32.23.593.518.806.85l1.356 2.1 4.206-2.706-1.356-2.1a8.08 8.08 0 0 0-2.081-2.2A10.225 10.225 0 0 0 15.55 5.55c-.45-.127-.908-.232-1.369-.313V0h-5v5.131a15.162 15.162 0 0 0-2.943.675A9.075 9.075 0 0 0 2.23 8.562l-.068.082A7.312 7.312 0 0 0 .6 12.919a7.188 7.188 0 0 0 1.444 4.775l.081.106a8.75 8.75 0 0 0 3.612 2.619 28.47 28.47 0 0 0 4.3 1.25c1.07.237 1.75.4 2.363.575h.069c.793.2 1.462.381 2.043.556.678.2 1.324.494 1.92.875.355.236.653.548.874.912.226.45.334.948.313 1.45v.113a2.85 2.85 0 0 1-.494 1.706 4.287 4.287 0 0 1-1.988 1.519 9.57 9.57 0 0 1-3.806.625h-.156a8.8 8.8 0 0 1-4.075-.863 4.482 4.482 0 0 1-1.569-1.412l-1.425-2.056L0 28.519l1.425 2.056a9.57 9.57 0 0 0 3.381 3.012l.069.032A13.933 13.933 0 0 0 9.181 34.9V40h5v-5.212c.95-.167 1.88-.43 2.775-.788a9.324 9.324 0 0 0 4.213-3.219 8.487 8.487 0 0 0 .512-8.612l-.044-.063z" fill="#42CFA6"/></svg>