<svg width="24" height="25" viewBox="0 0 24 25" fill="none" xmlns="http://www.w3.org/2000/svg"><g clip-path="url(#a)"><path d="M12.004 6.338a6.157 6.157 0 0 0-6.158 6.158 6.157 6.157 0 0 0 6.158 6.158 6.157 6.157 0 0 0 6.158-6.158 6.157 6.157 0 0 0-6.158-6.158zm0 10.155a3.996 3.996 0 1 1 3.997-3.997 3.995 3.995 0 0 1-3.997 3.997z" fill="#BEC2CB" filter="url(#b)"/><path d="M16.948.576C14.74.473 9.271.478 7.061.576c-1.942.09-3.655.56-5.036 1.94C-.283 4.826.012 7.936.012 12.497c0 4.668-.26 7.706 2.013 9.979 2.317 2.316 5.472 2.013 9.98 2.013 4.623 0 6.22.003 7.854-.63 2.223-.863 3.901-2.85 4.065-6.42.104-2.208.098-7.676 0-9.886-.198-4.213-2.459-6.768-6.976-6.976zm3.495 20.372c-1.513 1.513-3.612 1.378-8.468 1.378-5 0-7.005.074-8.468-1.393-1.685-1.677-1.38-4.37-1.38-8.453 0-5.525-.567-9.504 4.978-9.788 1.274-.045 1.65-.06 4.856-.06l.045.03c5.33 0 9.51-.558 9.761 4.986.057 1.265.07 1.645.07 4.847 0 4.942.093 6.959-1.394 8.453z" fill="#BEC2CB" filter="url(#c)"/><path d="M18.406 7.534a1.439 1.439 0 1 0 0-2.878 1.439 1.439 0 0 0 0 2.878z" fill="#BEC2CB" filter="url(#d)"/></g><defs><filter id="b" x="-44.154" y="-43.662" width="112.316" height="112.316" filterUnits="userSpaceOnUse" color-interpolation-filters="sRGB"><feFlood flood-opacity="0" result="BackgroundImageFix"/><feGaussianBlur in="BackgroundImage" stdDeviation="25"/><feComposite in2="SourceAlpha" operator="in" result="effect1_backgroundBlur_56:1055"/><feBlend in="SourceGraphic" in2="effect1_backgroundBlur_56:1055" result="shape"/></filter><filter id="c" x="-50" y="-49.5" width="124" height="124" filterUnits="userSpaceOnUse" color-interpolation-filters="sRGB"><feFlood flood-opacity="0" result="BackgroundImageFix"/><feGaussianBlur in="BackgroundImage" stdDeviation="25"/><feComposite in2="SourceAlpha" operator="in" result="effect1_backgroundBlur_56:1055"/><feBlend in="SourceGraphic" in2="effect1_backgroundBlur_56:1055" result="shape"/></filter><filter id="d" x="-33.033" y="-45.344" width="102.878" height="102.878" filterUnits="userSpaceOnUse" color-interpolation-filters="sRGB"><feFlood flood-opacity="0" result="BackgroundImageFix"/><feGaussianBlur in="BackgroundImage" stdDeviation="25"/><feComposite in2="SourceAlpha" operator="in" result="effect1_backgroundBlur_56:1055"/><feBlend in="SourceGraphic" in2="effect1_backgroundBlur_56:1055" result="shape"/></filter><clipPath id="a"><path fill="#fff" transform="translate(0 .5)" d="M0 0h24v24H0z"/></clipPath></defs></svg>