<svg width="49" height="45" viewBox="0 0 49 45" fill="none" xmlns="http://www.w3.org/2000/svg"><path d="M20.17 33.649h2.38a.454.454 0 0 0 .457-.456V30.81c2.483-.406 4.56-2.382 4.814-4.916a5.581 5.581 0 0 0-5.574-6.132h-1.774a2.332 2.332 0 0 1-2.33-2.584c.1-1.216 1.215-2.078 2.432-2.078h2.077c.76 0 1.42.558 1.571 1.267.05.203.254.355.456.355h2.382c.253 0 .507-.203.456-.507a4.881 4.881 0 0 0-4.56-4.358V9.527a.454.454 0 0 0-.457-.456h-2.33a.454.454 0 0 0-.457.456v2.331c-2.888.405-5.118 3.04-4.814 6.081.304 2.889 2.888 5.017 5.828 5.017h1.52a2.332 2.332 0 0 1 2.331 2.584c-.101 1.217-1.216 2.078-2.433 2.078h-2.128c-.76 0-1.419-.557-1.57-1.267a.487.487 0 0 0-.457-.354h-2.382c-.253 0-.506.202-.456.506a4.881 4.881 0 0 0 4.561 4.358v2.332c0 .253.203.456.456.456z" fill="url(#a)"/><path d="M21.334 38.97c-9.73 0-17.635-7.906-17.635-17.636S11.605 3.7 21.335 3.7 38.97 11.605 38.97 21.335c0 1.368-.152 2.635-.406 3.902.203-.051.406-.051.608-.051 1.065 0 2.129.152 3.142.456.304-1.368.406-2.838.406-4.308C42.72 9.578 33.142 0 21.385 0 9.628 0 0 9.578 0 21.334 0 33.091 9.578 42.67 21.334 42.67c2.889 0 5.676-.557 8.16-1.622a10.312 10.312 0 0 1-1.116-3.598 17.045 17.045 0 0 1-7.044 1.52z" fill="url(#b)"/><path d="M39.172 27.06c-4.966 0-9.02 4.004-9.02 8.97a8.954 8.954 0 0 0 8.97 8.97 8.954 8.954 0 0 0 8.97-8.97c.05-4.966-3.954-8.97-8.92-8.97zm3.902 7.247l-4.105 4.865c-.152.203-.405.304-.658.304-.254 0-.507-.101-.66-.304l-2.33-2.787c-.304-.355-.254-.912.101-1.267.355-.304.912-.253 1.267.101l1.672 1.977 3.396-4.054c.304-.355.861-.406 1.267-.102.304.355.354.913.05 1.267z" fill="url(#c)"/><defs><linearGradient id="a" x1="14.871" y1="21.36" x2="27.846" y2="21.36" gradientUnits="userSpaceOnUse"><stop stop-color="#73C592"/><stop offset="1" stop-color="#428EB4"/></linearGradient><linearGradient id="b" y1="21.334" x2="42.72" y2="21.334" gradientUnits="userSpaceOnUse"><stop stop-color="#73C592"/><stop offset="1" stop-color="#428EB4"/></linearGradient><linearGradient id="c" x1="30.152" y1="36.03" x2="48.092" y2="36.03" gradientUnits="userSpaceOnUse"><stop stop-color="#73C592"/><stop offset="1" stop-color="#428EB4"/></linearGradient></defs></svg>