<svg width="40" height="40" viewBox="0 0 40 40" fill="none" xmlns="http://www.w3.org/2000/svg"><path fill-rule="evenodd" clip-rule="evenodd" d="M14.872 17.805l-9.521 9.518a4.15 4.15 0 0 0 0 5.86l1.464 1.461c1.568 1.568 4.296 1.566 5.86 0l4.499-4.496a2.07 2.07 0 0 1 2.928 0c.81.808.81 2.119 0 2.929l-4.498 4.496A8.23 8.23 0 0 1 9.746 40a8.224 8.224 0 0 1-5.86-2.43l-1.464-1.46c-3.23-3.23-3.23-8.486 0-11.715l9.522-9.52a8.236 8.236 0 0 1 5.857-2.426c2.212 0 4.294.862 5.86 2.43l1.462 1.46a2.07 2.07 0 1 1-2.928 2.93l-1.465-1.464c-1.564-1.566-4.292-1.566-5.858 0zm13.183 7.323a8.246 8.246 0 0 1-5.86 2.425 8.228 8.228 0 0 1-5.858-2.43 2.07 2.07 0 1 1 2.931-2.926c1.564 1.566 4.292 1.566 5.856-.002l9.522-9.516a4.12 4.12 0 0 0 1.211-2.929c0-1.108-.43-2.147-1.211-2.928L33.18 5.358a4.11 4.11 0 0 0-2.93-1.216c-1.107 0-2.146.43-2.93 1.216L23.21 9.467a2.07 2.07 0 1 1-2.929-2.928l4.112-4.112A8.226 8.226 0 0 1 30.25 0a8.23 8.23 0 0 1 5.86 2.427l1.465 1.466A8.218 8.218 0 0 1 40 9.75c0 2.212-.86 4.291-2.425 5.857l-9.52 9.52z" fill="url(#a)"/><defs><linearGradient id="a" y1="20" x2="40" y2="20" gradientUnits="userSpaceOnUse"><stop stop-color="#73C592"/><stop offset="1" stop-color="#428EB4"/></linearGradient></defs></svg>