<svg width="32" height="29" viewBox="0 0 32 29" fill="none" xmlns="http://www.w3.org/2000/svg"><g clip-path="url(#a)" filter="url(#b)"><path d="M27.469 5.929l.03.196a3.043 3.043 0 0 0-2.068-2.112l-.021-.005c-1.871-.508-9.4-.508-9.4-.508s-7.51-.01-9.4.508a3.044 3.044 0 0 0-2.083 2.096l-.005.021c-.7 3.651-.704 8.038.03 11.947l-.03-.198a3.043 3.043 0 0 0 2.068 2.112l.02.005c1.87.509 9.4.509 9.4.509s7.51 0 9.4-.509a3.043 3.043 0 0 0 2.085-2.096l.005-.021c.318-1.698.5-3.652.5-5.648l-.001-.221v-.23c0-1.997-.181-3.951-.53-5.846zm-13.861 9.722V8.358l6.266 3.652-6.266 3.641z" fill="#BEC2CB" filter="url(#c)"/></g><defs><filter id="b" x="0" y="0" width="32" height="32" filterUnits="userSpaceOnUse" color-interpolation-filters="sRGB"><feFlood flood-opacity="0" result="BackgroundImageFix"/><feColorMatrix in="SourceAlpha" values="0 0 0 0 0 0 0 0 0 0 0 0 0 0 0 0 0 0 127 0" result="hardAlpha"/><feOffset dy="4"/><feGaussianBlur stdDeviation="2"/><feComposite in2="hardAlpha" operator="out"/><feColorMatrix values="0 0 0 0 0 0 0 0 0 0 0 0 0 0 0 0 0 0 0.25 0"/><feBlend in2="BackgroundImageFix" result="effect1_dropShadow_56:1059"/><feBlend in="SourceGraphic" in2="effect1_dropShadow_56:1059" result="shape"/></filter><filter id="c" x="-46.001" y="-46.5" width="124" height="117" filterUnits="userSpaceOnUse" color-interpolation-filters="sRGB"><feFlood flood-opacity="0" result="BackgroundImageFix"/><feGaussianBlur in="BackgroundImage" stdDeviation="25"/><feComposite in2="SourceAlpha" operator="in" result="effect1_backgroundBlur_56:1059"/><feBlend in="SourceGraphic" in2="effect1_backgroundBlur_56:1059" result="shape"/></filter><clipPath id="a"><path fill="#fff" transform="translate(4)" d="M0 0h24v24H0z"/></clipPath></defs></svg>